<svg xmlns="http://www.w3.org/2000/svg" width="217" height="53" fill="none" viewBox="0 0 217 53">
  <path fill="#fff" fill-opacity=".6" d="M12.835 12.79c0-6.627 5.372-12 12-12H205c6.627 0 12 5.373 12 12v28.087c0 6.627-5.373 12-12 12H47.215c-6.627 0-34.38-15.564-34.38-22.191V12.79Z"/>
  <path fill="#00277F" d="M45.116 52.779a47.686 47.686 0 0 1-26.569-10.217 48.808 48.808 0 0 1-9.345-9.857 47.533 47.533 0 0 1-8.45-21.821A38.947 38.947 0 0 1 .48 4.562a4.144 4.144 0 0 1 3.366-3.496c.316-.06 2.608-.101 5.57-.101 5.379 0 5.818.035 6.665.516a5.483 5.483 0 0 1 1.615 1.576c.447.926.654 1.949.6 2.975a30.937 30.937 0 0 0 1.17 7.403 5.95 5.95 0 0 1 .412 2.942c-.174.921-.562 1.536-2.985 4.716-1.274 1.674-2.339 3.1-2.366 3.171a18.48 18.48 0 0 0 2.03 3.614 31.286 31.286 0 0 0 11.06 10.206c1.025.585 1.34.721 1.47.637.131-.085 1.514-1.126 3.158-2.374 1.645-1.249 3.26-2.404 3.587-2.57a2.91 2.91 0 0 1 1.522-.34 5.737 5.737 0 0 1 2.343.367 31.422 31.422 0 0 0 7.65 1.226c.715.014 1.427.1 2.125.257a4.14 4.14 0 0 1 2.732 3.193c.136.713.136 10.242 0 10.968a4.17 4.17 0 0 1-3.341 3.336 18.965 18.965 0 0 1-3.757 0l.011-.005Z"/>
</svg>
