<svg width="51" height="61" viewBox="0 0 51 61" fill="none" xmlns="http://www.w3.org/2000/svg">
<path d="M44.2231 44.2852C49.3553 37.1978 50.1483 30.4564 50.1483 25.5995C50.1483 11.8174 38.9757 0.644836 25.1936 0.644836C11.4116 0.644836 0.239014 11.8174 0.239014 25.5995C0.239014 37.1484 8.08426 46.8649 18.7361 49.7105C21.9672 50.5737 23.0655 51.0012 23.3047 52.9831C23.7592 56.7491 15.9615 59.0208 17.4594 60.6448C23.3047 60.0921 35.741 55.9986 44.2231 44.2852Z" fill="url(#paint0_linear_615_557)"/>
<path d="M10.0468 33.7503C11.9297 37.1562 17.9982 39.6495 25.1936 39.6495C32.389 39.6495 38.4575 37.1562 40.3404 33.7504C36.2615 35.1973 30.9726 36.0707 25.1936 36.0707C19.4147 36.0707 14.1257 35.1973 10.0468 33.7503Z" fill="white"/>
<ellipse cx="32.5852" cy="20.4818" rx="3.17769" ry="1.86517" fill="white"/>
<ellipse cx="17.8021" cy="20.4818" rx="3.17769" ry="1.86517" fill="white"/>
<defs>
<linearGradient id="paint0_linear_615_557" x1="28.9271" y1="196.265" x2="-57.1793" y2="177.679" gradientUnits="userSpaceOnUse">
<stop stop-color="#00277F"/>
<stop offset="1" stop-color="#2059DB"/>
</linearGradient>
</defs>
</svg>
