<svg width="26" height="25" viewBox="0 0 26 25" fill="none" xmlns="http://www.w3.org/2000/svg">
<path fill-rule="evenodd" clip-rule="evenodd" d="M18.4712 2.1048C19.8371 2.10876 21.1459 2.63685 22.1117 3.57374C23.0776 4.51064 23.622 5.7802 23.6261 7.10516V17.1048C23.622 18.4298 23.0776 19.6993 22.1117 20.6362C21.1459 21.5731 19.8371 22.1012 18.4712 22.1052H8.16262C6.79673 22.1012 5.48794 21.5731 4.5221 20.6362C3.55626 19.6993 3.01185 18.4298 3.00778 17.1048V7.10516C3.01185 5.7802 3.55626 4.51064 4.5221 3.57374C5.48794 2.63685 6.79673 2.10876 8.16262 2.1048H18.4712ZM18.4712 0.10498H8.16262C4.19349 0.10498 0.946167 3.25498 0.946167 7.10516V17.1048C0.946167 20.955 4.19349 24.105 8.16262 24.105H18.4712C22.4404 24.105 25.6877 20.955 25.6877 17.1048V7.10516C25.6877 3.25498 22.4404 0.10498 18.4712 0.10498ZM20.0176 7.10507C19.7118 7.10507 19.4128 7.01709 19.1585 6.85227C18.9042 6.68745 18.706 6.45318 18.589 6.17909C18.472 5.905 18.4413 5.6034 18.501 5.31243C18.5607 5.02146 18.7079 4.75418 18.9242 4.54441C19.1405 4.33463 19.416 4.19177 19.716 4.13389C20.0159 4.07601 20.3268 4.10572 20.6094 4.21925C20.892 4.33278 21.1335 4.52504 21.3034 4.77171C21.4733 5.01838 21.564 5.30839 21.564 5.60507C21.5644 5.80217 21.5247 5.99741 21.4472 6.17959C21.3696 6.36177 21.2557 6.5273 21.112 6.66667C20.9684 6.80604 20.7977 6.91652 20.6099 6.99175C20.4221 7.06698 20.2208 7.10549 20.0176 7.10507ZM15.608 8.77889C14.9298 8.33934 14.1326 8.10474 13.3169 8.10474C12.2236 8.10587 11.1754 8.52768 10.4023 9.27762C9.62919 10.0275 9.19435 11.0444 9.19318 12.1049C9.19318 12.8961 9.43503 13.6695 9.88816 14.3273C10.3413 14.9851 10.9853 15.4978 11.7388 15.8006C12.4924 16.1034 13.3215 16.1826 14.1215 16.0282C14.9214 15.8739 15.6562 15.4929 16.2329 14.9335C16.8096 14.374 17.2024 13.6613 17.3615 12.8853C17.5206 12.1094 17.4389 11.3051 17.1268 10.5741C16.8147 9.84318 16.2861 9.21844 15.608 8.77889ZM9.88054 7.1161C10.8977 6.45681 12.0936 6.10492 13.3169 6.10492C14.9574 6.10492 16.5307 6.73706 17.6907 7.86228C18.8507 8.9875 19.5023 10.5136 19.5023 12.1049C19.5023 13.2916 19.1396 14.4516 18.4599 15.4383C17.7802 16.425 16.8142 17.1941 15.684 17.6482C14.5538 18.1023 13.3101 18.2211 12.1102 17.9896C10.9104 17.7581 9.80827 17.1867 8.94323 16.3476C8.07819 15.5084 7.48909 14.4393 7.25042 13.2755C7.01176 12.1116 7.13425 10.9052 7.6024 9.80882C8.07056 8.71246 8.86336 7.77539 9.88054 7.1161Z" fill="#8C9EDB"/>
</svg>
