<svg width="172" height="36" viewBox="0 0 172 36" fill="none" xmlns="http://www.w3.org/2000/svg">
<path fill-rule="evenodd" clip-rule="evenodd" d="M17.691 0C27.224 0 34.963 7.85876 34.963 17.5377C34.963 27.2173 27.224 35.0754 17.691 35.0754C8.15875 35.0754 0.419067 27.2173 0.419067 17.5377C0.419067 7.85876 8.15875 0 17.691 0ZM17.691 5.80295C24.0697 5.80295 29.248 11.061 29.248 17.5377C29.248 24.0144 24.0697 29.2724 17.691 29.2724C11.3124 29.2724 6.13411 24.0144 6.13411 17.5377C6.13411 11.061 11.3124 5.80295 17.691 5.80295ZM21.5477 15.2649C21.241 14.9638 20.7436 14.9638 20.4369 15.2642L15.374 20.2322C15.068 20.5325 15.068 21.021 15.3746 21.3221L20.4363 26.2886C20.7429 26.5897 21.241 26.5897 21.547 26.2886L26.61 21.3214C26.9167 21.021 26.9167 20.5325 26.61 20.2315L21.5477 15.2649ZM12.643 19.515C12.4598 19.3352 12.1612 19.3352 11.9781 19.515L8.94446 22.4912C8.76127 22.671 8.76127 22.9638 8.94446 23.1443L11.9774 26.1199C12.1612 26.2997 12.4591 26.3004 12.643 26.1199L15.6759 23.1436C15.8598 22.9638 15.8598 22.671 15.6759 22.4912L12.643 19.515ZM14.9458 8.78676C14.6391 8.48639 14.1418 8.48639 13.8351 8.78676L8.77212 13.754C8.46612 14.0551 8.46612 14.5436 8.7728 14.8439L13.8351 19.8112C14.1411 20.1116 14.6391 20.1123 14.9451 19.8112L20.0081 14.8439C20.3148 14.5429 20.3148 14.0551 20.0081 13.754L14.9458 8.78676ZM19.7062 12.5849C19.523 12.4044 19.5223 12.1123 19.7062 11.9318L22.7391 8.95555C22.923 8.77574 23.2208 8.77574 23.4047 8.95624L26.4376 11.9318C26.6215 12.1116 26.6215 12.4044 26.4376 12.5849L23.4047 15.5604C23.2208 15.7409 22.923 15.7409 22.7391 15.5604L19.7062 12.5849Z" fill="#8C9EDB"/>
<path fill-rule="evenodd" clip-rule="evenodd" d="M18.5311 33.3751L18.5378 32.3279L17.5065 32.321L17.5038 32.7792L18.0296 32.7826L18.0276 33.1271C17.8946 33.2228 17.7243 33.2697 17.5343 33.2683C17.1137 33.2656 16.8172 32.9397 16.8206 32.4988V32.4919C16.8233 32.082 17.1272 31.743 17.5072 31.7458C17.782 31.7471 17.9442 31.8381 18.1267 31.9945L18.4585 31.5935C18.2122 31.3786 17.955 31.2594 17.5275 31.2566C16.8083 31.2518 16.2784 31.8098 16.2744 32.4953V32.5022C16.2696 33.2146 16.7744 33.7451 17.5147 33.7506C17.9489 33.7533 18.2854 33.5839 18.5311 33.3751ZM15.5979 33.6293L16.0348 31.2594L15.5287 31.1629L15.2593 32.6221L14.4349 30.9549L13.9613 30.8646L13.5237 33.2346L14.0305 33.331L14.3087 31.8243L15.1609 33.546L15.5979 33.6293ZM21.95 32.3568L21.948 32.3506C21.8523 31.9414 21.5484 31.8339 21.051 31.8236C20.6269 31.816 20.5164 31.7898 20.4804 31.6355L20.4784 31.6286C20.4519 31.515 20.5333 31.3992 20.728 31.3524C20.9228 31.3055 21.144 31.3441 21.3828 31.4385L21.5558 30.9865C21.2763 30.8515 20.9642 30.8136 20.6276 30.8949C20.1554 31.0093 19.8847 31.3717 19.9844 31.7974L19.9864 31.8043C20.095 32.27 20.4261 32.3279 20.9201 32.3362C21.3292 32.3438 21.4242 32.392 21.4547 32.5222L21.4568 32.5291C21.4886 32.6669 21.3828 32.7805 21.1752 32.8308C20.9106 32.8949 20.667 32.8364 20.4187 32.7123L20.2036 33.1505C20.5394 33.3345 20.9221 33.3737 21.2715 33.289C21.7702 33.1691 22.0586 32.8233 21.95 32.3568ZM12.7651 32.981L13.5094 30.691L13.0135 30.525L12.2691 32.8143L12.7651 32.981ZM11.5092 32.556L12.5405 30.3837L12.0703 30.1536L11.6619 31.0127L10.7941 30.5883L11.2025 29.7285L10.7317 29.4984L9.70032 31.67L10.1712 31.9008L10.5851 31.0286L11.4529 31.4536L11.039 32.3258L11.5092 32.556ZM24.5209 31.6665L24.0846 31.4833C23.9781 31.7147 23.8668 31.8822 23.6164 31.9883C23.2412 32.1488 22.8497 31.9414 22.6923 31.5604L22.6896 31.5542C22.5322 31.1732 22.6699 30.7482 23.039 30.5911C23.2575 30.4981 23.4692 30.5194 23.7026 30.6035L23.8607 30.1136C23.573 29.9972 23.2684 29.9628 22.8552 30.1385C22.1828 30.4251 21.9276 31.1429 22.1889 31.7754L22.1916 31.7816C22.4555 32.4195 23.1428 32.7213 23.7874 32.4464C24.2095 32.2666 24.3967 32.0075 24.5209 31.6665ZM26.9092 30.6269L25.6309 28.5952L25.1906 28.8804L25.6967 29.6844L24.8846 30.2115L24.3784 29.4075L23.938 29.6927L25.2164 31.7251L25.6567 31.4392L25.1438 30.6235L25.9559 30.0971L26.4689 30.9128L26.9092 30.6269ZM9.53613 30.742L9.5402 30.7358C9.77836 30.392 9.65554 30.0902 9.33325 29.7044C9.05846 29.3772 9.00418 29.2759 9.09374 29.1457L9.09781 29.1402C9.16431 29.0444 9.30272 29.0299 9.46692 29.1471C9.63044 29.2635 9.74917 29.4578 9.83738 29.7017L10.2859 29.5336C10.1997 29.2318 10.0206 28.9693 9.73764 28.7675C9.34071 28.4843 8.89359 28.5187 8.64594 28.877L8.64186 28.8825C8.37114 29.2738 8.54754 29.5646 8.86847 29.9449C9.13444 30.2611 9.16228 30.3651 9.08629 30.4753L9.08221 30.4809C9.00215 30.5966 8.84812 30.5918 8.67307 30.4671C8.4512 30.3086 8.33245 30.0847 8.25918 29.8133L7.79373 29.94C7.88058 30.3176 8.10516 30.6338 8.39963 30.8439C8.81895 31.1429 9.26472 31.1333 9.53613 30.742ZM7.12065 29.7954L8.69952 27.9945L8.30939 27.6417L6.73051 29.4426L7.12065 29.7954ZM28.4901 27.5935L28.4854 27.5887C28.0247 27.0878 27.2675 27.0479 26.7321 27.5556C26.1968 28.0641 26.1859 28.8432 26.6466 29.3441L26.6514 29.3489C27.1128 29.8498 27.87 29.8904 28.4046 29.382C28.94 28.8736 28.9515 28.0944 28.4901 27.5935ZM28.0959 27.9772C28.3741 28.2797 28.3884 28.7282 28.081 29.0203C27.7736 29.3117 27.3238 29.2669 27.0456 28.9652L27.0408 28.9604C26.7633 28.6586 26.7491 28.2094 27.0565 27.918C27.3638 27.6259 27.8137 27.6707 28.0912 27.9724L28.0959 27.9772ZM6.13208 28.9018L7.93079 27.3269L7.59358 26.9307L6.48625 27.9001L6.86689 26.0751L6.55275 25.7044L4.75403 27.2793L5.09125 27.6755L6.23385 26.6745L5.84168 28.5601L6.13208 28.9018ZM30.1945 25.2601L30.1884 25.2559C29.6416 24.8543 28.8911 24.9611 28.4616 25.5639C28.0315 26.1667 28.1672 26.9342 28.714 27.3358L28.7195 27.34C29.2663 27.7423 30.0174 27.6348 30.4469 27.032C30.8764 26.4292 30.7414 25.6617 30.1945 25.2601ZM29.8797 25.7134C30.2095 25.9559 30.3072 26.3934 30.0609 26.7399C29.8139 27.0857 29.3641 27.1291 29.0343 26.8866L29.0289 26.8832C28.6991 26.6407 28.6007 26.2025 28.8477 25.8567C29.094 25.5101 29.5445 25.4667 29.8736 25.7092L29.8797 25.7134ZM4.3164 26.6007L6.30306 25.28L6.01673 24.8364L4.03007 26.1571L4.3164 26.6007ZM32.2178 23.7995L31.7904 23.5894L31.274 24.671L29.5642 23.8291L29.3362 24.3066L31.4735 25.3586L32.2178 23.7995ZM5.3735 24.7413L5.79756 24.5243L4.9854 22.8846L2.86372 23.9676L3.09848 24.4416L3.91947 24.022L4.42903 25.0499L4.85309 24.8336L4.34421 23.8057L4.79543 23.5749L5.3735 24.7413ZM21.3604 21.1863C21.355 21.2022 21.3441 21.218 21.3272 21.2339C21.224 21.3682 21.1392 21.4667 21.0741 21.5315C20.6758 21.9214 20.2273 22.1157 19.7286 22.113C19.2292 22.1102 18.7726 21.9056 18.358 21.4991C17.9109 21.0603 17.6904 20.5491 17.6958 19.9662C17.7012 19.3827 17.9353 18.8639 18.3988 18.4092C18.928 17.8898 19.5319 17.6424 20.211 17.6665C20.8895 17.6907 21.5131 17.9807 22.0803 18.5374C22.8708 19.3131 23.2582 20.29 23.2412 21.4667C23.2249 22.6441 22.7941 23.7382 21.9493 24.7495L20.8943 23.7141C21.2647 23.2752 21.4887 22.8501 21.5646 22.4382C21.6413 22.0262 21.5728 21.6087 21.3604 21.1863ZM13.9654 23.1815C14.0319 23.185 14.0943 23.216 14.1384 23.2663C14.1825 23.3166 14.2042 23.3834 14.2002 23.4509C14.1907 23.5921 14.0706 23.7003 13.9308 23.6927C13.272 23.6562 11.5479 23.5625 11.5479 23.5625C11.5479 23.5625 11.4346 21.9325 11.3884 21.2793C11.3837 21.2091 11.4068 21.1402 11.4522 21.0871C11.4984 21.0341 11.5628 21.0017 11.632 20.9969C11.7759 20.9879 11.8994 21.0975 11.9102 21.2428C11.9509 21.8057 12.0439 23.0761 12.0439 23.0761C12.0439 23.0761 13.3934 23.1498 13.9654 23.1815ZM3.17311 15.8656L3.71185 16.9618L4.90534 17.143L4.04432 18.0021L4.2438 19.2105L3.17311 18.6448L2.10312 19.2105L2.30192 18.0021L1.44158 17.143L2.63507 16.9618L3.17311 15.8656ZM32.209 15.8656L32.7477 16.9618L33.9412 17.143L33.0802 18.0021L33.2797 19.2105L32.209 18.6448L31.139 19.2105L31.3378 18.0021L30.4775 17.143L31.6703 16.9618L32.209 15.8656ZM12.8445 15.8243C12.4082 15.3958 12.1911 14.8887 12.1938 14.3031C12.1965 13.7168 12.4164 13.2105 12.8527 12.7819C13.2889 12.3541 13.8039 12.1399 14.3983 12.1399C14.9926 12.1399 15.5083 12.3541 15.9446 12.7819C16.3809 13.2105 16.5973 13.7148 16.5946 14.2949C16.5919 14.8756 16.3727 15.3799 15.9365 15.8078C15.5002 16.2363 14.9832 16.4513 14.3861 16.454C13.789 16.4568 13.2754 16.2466 12.8445 15.8243ZM23.4421 13.8636C23.4461 13.9338 23.4773 14 23.5296 14.0462C23.5812 14.093 23.649 14.1164 23.7182 14.1123C23.8614 14.1033 23.9713 13.9779 23.9632 13.8326C23.9258 13.1739 23.8315 11.5102 23.8315 11.5102C23.8315 11.5102 22.1353 11.3965 21.4839 11.3524C21.3455 11.3434 21.2261 11.4495 21.2166 11.5901C21.2071 11.732 21.3129 11.8546 21.4527 11.8643C22.0179 11.9042 23.3355 11.9965 23.3355 11.9965C23.3355 11.9965 23.4095 13.2924 23.4421 13.8636ZM29.3091 12.1392L32.1812 10.3603L31.8006 9.72718L30.0324 10.8219L30.9796 8.36031L30.6247 7.7692L27.7526 9.54737L28.1326 10.1812L29.9584 9.04995L28.9814 11.5935L29.3091 12.1392ZM6.44554 9.51223L6.43672 9.5074C5.92717 9.21322 5.52414 9.42956 5.03222 9.94282C4.61562 10.3817 4.48127 10.4726 4.28925 10.3617L4.28112 10.3569C4.13863 10.2756 4.09995 10.0785 4.23972 9.82845C4.38017 9.57768 4.63326 9.38201 4.9603 9.22218L4.66582 8.60351C4.25872 8.76748 3.91879 9.0589 3.67657 9.49156C3.33664 10.0985 3.44588 10.7337 3.97647 11.0403L3.9846 11.0451C4.5654 11.38 4.94469 11.0878 5.42982 10.5766C5.83285 10.1523 5.97331 10.0985 6.13615 10.1929L6.14496 10.1977C6.31595 10.2969 6.3302 10.5181 6.18093 10.7854C5.99095 11.125 5.69579 11.3255 5.3294 11.4674L5.56892 12.1157C6.08119 11.9407 6.49033 11.5756 6.74205 11.1257C7.1003 10.4857 7.02634 9.84774 6.44554 9.51223ZM9.53137 7.59146L9.06117 7.12298L7.78287 8.44712L7.27806 7.9442L8.38878 6.79504L7.91857 6.32657L6.80786 7.4764L6.3207 6.99139L7.58271 5.68447L7.11251 5.21668L5.33619 7.05615L7.73741 9.44815L9.53137 7.59146ZM27.2756 9.00172L27.7248 8.51258L26.3888 7.24837L26.8705 6.72339L28.0308 7.82156L28.4799 7.33311L27.3197 6.23493L27.7852 5.72787L29.1035 6.97554L29.5527 6.4864L27.6963 4.72959L25.4023 7.22838L27.2756 9.00172ZM13.0155 5.43852L11.3823 2.45196L10.6848 2.84534L10.6021 4.54358L9.13853 3.71685L8.44103 4.11024L10.0742 7.0968L10.7086 6.73924L9.64943 4.80194L11.1591 5.60248L11.1761 5.59353L11.3063 3.85119L12.3723 5.8009L13.0155 5.43852ZM24.8941 6.86324L25.2211 6.26594L23.7542 5.43921L25.061 3.04995L24.4144 2.6855L22.7805 5.67138L24.8941 6.86324ZM14.6134 5.03204L13.7035 1.74303L12.9911 1.94627L13.9009 5.23528L14.6134 5.03204ZM22.4854 3.66036L22.4874 3.6514C22.6896 2.70204 22.1244 1.77403 21.11 1.55151C20.0957 1.32829 19.1926 1.9442 18.9904 2.89287L18.9884 2.90252C18.7862 3.85188 19.3507 4.77919 20.3651 5.00241C21.3794 5.22494 22.2832 4.60972 22.4854 3.66036ZM18.5372 4.59111L17.0037 2.70479L18.2963 1.18361L17.4034 1.23184L16.1183 2.79643L16.0403 1.30556L15.3014 1.34482L15.4798 4.75647L16.2187 4.71651L16.1644 3.67345L16.5315 3.24286L17.649 4.63935L18.5372 4.59111ZM21.7268 3.50397C21.6047 4.07648 21.1012 4.4554 20.5191 4.32725C19.9362 4.19911 19.6241 3.63142 19.7462 3.05891L19.7483 3.04995C19.8704 2.47744 20.3739 2.09853 20.9567 2.22667C21.5389 2.35412 21.8503 2.9225 21.7288 3.49433L21.7268 3.50397Z" fill="#00277F"/>
<path fill-rule="evenodd" clip-rule="evenodd" d="M18.5311 33.3751L18.5378 32.3279L17.5065 32.321L17.5038 32.7792L18.0296 32.7826L18.0276 33.1271C17.8946 33.2228 17.7243 33.2697 17.5343 33.2683C17.1137 33.2656 16.8172 32.9397 16.8206 32.4988V32.4919C16.8233 32.082 17.1272 31.743 17.5072 31.7458C17.782 31.7471 17.9442 31.8381 18.1267 31.9945L18.4585 31.5935C18.2122 31.3786 17.955 31.2594 17.5275 31.2566C16.8083 31.2518 16.2784 31.8098 16.2744 32.4953V32.5022C16.2696 33.2146 16.7744 33.7451 17.5147 33.7506C17.9489 33.7533 18.2854 33.5839 18.5311 33.3751ZM15.5979 33.6293L16.0348 31.2594L15.5287 31.1629L15.2593 32.6221L14.4349 30.9549L13.9613 30.8646L13.5237 33.2346L14.0305 33.331L14.3087 31.8243L15.1609 33.546L15.5979 33.6293ZM21.95 32.3568L21.948 32.3506C21.8523 31.9414 21.5484 31.8339 21.051 31.8236C20.6269 31.816 20.5164 31.7898 20.4804 31.6355L20.4784 31.6286C20.4519 31.515 20.5333 31.3992 20.728 31.3524C20.9228 31.3055 21.144 31.3441 21.3828 31.4385L21.5558 30.9865C21.2763 30.8515 20.9642 30.8136 20.6276 30.8949C20.1554 31.0093 19.8847 31.3717 19.9844 31.7974L19.9864 31.8043C20.095 32.27 20.4261 32.3279 20.9201 32.3362C21.3292 32.3438 21.4242 32.392 21.4547 32.5222L21.4568 32.5291C21.4886 32.6669 21.3828 32.7805 21.1752 32.8308C20.9106 32.8949 20.667 32.8364 20.4187 32.7123L20.2036 33.1505C20.5394 33.3345 20.9221 33.3737 21.2715 33.289C21.7702 33.1691 22.0586 32.8233 21.95 32.3568ZM12.7651 32.981L13.5094 30.691L13.0135 30.525L12.2691 32.8143L12.7651 32.981ZM11.5092 32.556L12.5405 30.3837L12.0703 30.1536L11.6619 31.0127L10.7941 30.5883L11.2025 29.7285L10.7317 29.4984L9.70032 31.67L10.1712 31.9008L10.5851 31.0286L11.4529 31.4536L11.039 32.3258L11.5092 32.556ZM24.5209 31.6665L24.0846 31.4833C23.9781 31.7147 23.8668 31.8822 23.6164 31.9883C23.2412 32.1488 22.8497 31.9414 22.6923 31.5604L22.6896 31.5542C22.5322 31.1732 22.6699 30.7482 23.039 30.5911C23.2575 30.4981 23.4692 30.5194 23.7026 30.6035L23.8607 30.1136C23.573 29.9972 23.2684 29.9628 22.8552 30.1385C22.1828 30.4251 21.9276 31.1429 22.1889 31.7754L22.1916 31.7816C22.4555 32.4195 23.1428 32.7213 23.7874 32.4464C24.2095 32.2666 24.3967 32.0075 24.5209 31.6665ZM26.9092 30.6269L25.6309 28.5952L25.1906 28.8804L25.6967 29.6844L24.8846 30.2115L24.3784 29.4075L23.938 29.6927L25.2164 31.7251L25.6567 31.4392L25.1438 30.6235L25.9559 30.0971L26.4689 30.9128L26.9092 30.6269ZM9.53613 30.742L9.5402 30.7358C9.77836 30.392 9.65554 30.0902 9.33325 29.7044C9.05846 29.3772 9.00418 29.2759 9.09374 29.1457L9.09781 29.1402C9.16431 29.0444 9.30272 29.0299 9.46692 29.1471C9.63044 29.2635 9.74917 29.4578 9.83738 29.7017L10.2859 29.5336C10.1997 29.2318 10.0206 28.9693 9.73764 28.7675C9.34071 28.4843 8.89359 28.5187 8.64594 28.877L8.64186 28.8825C8.37114 29.2738 8.54754 29.5646 8.86847 29.9449C9.13444 30.2611 9.16228 30.3651 9.08629 30.4753L9.08221 30.4809C9.00215 30.5966 8.84812 30.5918 8.67307 30.4671C8.4512 30.3086 8.33245 30.0847 8.25918 29.8133L7.79373 29.94C7.88058 30.3176 8.10516 30.6338 8.39963 30.8439C8.81895 31.1429 9.26472 31.1333 9.53613 30.742ZM7.12065 29.7954L8.69952 27.9945L8.30939 27.6417L6.73051 29.4426L7.12065 29.7954ZM28.4901 27.5935L28.4854 27.5887C28.0247 27.0878 27.2675 27.0479 26.7321 27.5556C26.1968 28.0641 26.1859 28.8432 26.6466 29.3441L26.6514 29.3489C27.1128 29.8498 27.87 29.8904 28.4046 29.382C28.94 28.8736 28.9515 28.0944 28.4901 27.5935ZM28.0959 27.9772C28.3741 28.2797 28.3884 28.7282 28.081 29.0203C27.7736 29.3117 27.3238 29.2669 27.0456 28.9652L27.0408 28.9604C26.7633 28.6586 26.7491 28.2094 27.0565 27.918C27.3638 27.6259 27.8137 27.6707 28.0912 27.9724L28.0959 27.9772ZM6.13208 28.9018L7.93079 27.3269L7.59358 26.9307L6.48625 27.9001L6.86689 26.0751L6.55275 25.7044L4.75403 27.2793L5.09125 27.6755L6.23385 26.6745L5.84168 28.5601L6.13208 28.9018ZM30.1945 25.2601L30.1884 25.2559C29.6416 24.8543 28.8911 24.9611 28.4616 25.5639C28.0315 26.1667 28.1672 26.9342 28.714 27.3358L28.7195 27.34C29.2663 27.7423 30.0174 27.6348 30.4469 27.032C30.8764 26.4292 30.7414 25.6617 30.1945 25.2601ZM29.8797 25.7134C30.2095 25.9559 30.3072 26.3934 30.0609 26.7399C29.8139 27.0857 29.3641 27.1291 29.0343 26.8866L29.0289 26.8832C28.6991 26.6407 28.6007 26.2025 28.8477 25.8567C29.094 25.5101 29.5445 25.4667 29.8736 25.7092L29.8797 25.7134ZM4.3164 26.6007L6.30306 25.28L6.01673 24.8364L4.03007 26.1571L4.3164 26.6007ZM32.2178 23.7995L31.7904 23.5894L31.274 24.671L29.5642 23.8291L29.3362 24.3066L31.4735 25.3586L32.2178 23.7995ZM5.3735 24.7413L5.79756 24.5243L4.9854 22.8846L2.86372 23.9676L3.09848 24.4416L3.91947 24.022L4.42903 25.0499L4.85309 24.8336L4.34421 23.8057L4.79543 23.5749L5.3735 24.7413ZM21.3604 21.1863C21.355 21.2022 21.3441 21.218 21.3272 21.2339C21.224 21.3682 21.1392 21.4667 21.0741 21.5315C20.6758 21.9214 20.2273 22.1157 19.7286 22.113C19.2292 22.1102 18.7726 21.9056 18.358 21.4991C17.9109 21.0603 17.6904 20.5491 17.6958 19.9662C17.7012 19.3827 17.9353 18.8639 18.3988 18.4092C18.928 17.8898 19.5319 17.6424 20.211 17.6665C20.8895 17.6907 21.5131 17.9807 22.0803 18.5374C22.8708 19.3131 23.2582 20.29 23.2412 21.4667C23.2249 22.6441 22.7941 23.7382 21.9493 24.7495L20.8943 23.7141C21.2647 23.2752 21.4887 22.8501 21.5646 22.4382C21.6413 22.0262 21.5728 21.6087 21.3604 21.1863ZM13.9654 23.1815C14.0319 23.185 14.0943 23.216 14.1384 23.2663C14.1825 23.3166 14.2042 23.3834 14.2002 23.4509C14.1907 23.5921 14.0706 23.7003 13.9308 23.6927C13.272 23.6562 11.5479 23.5625 11.5479 23.5625C11.5479 23.5625 11.4346 21.9325 11.3884 21.2793C11.3837 21.2091 11.4068 21.1402 11.4522 21.0871C11.4984 21.0341 11.5628 21.0017 11.632 20.9969C11.7759 20.9879 11.8994 21.0975 11.9102 21.2428C11.9509 21.8057 12.0439 23.0761 12.0439 23.0761C12.0439 23.0761 13.3934 23.1498 13.9654 23.1815ZM3.17311 15.8656L3.71185 16.9618L4.90534 17.143L4.04432 18.0021L4.2438 19.2105L3.17311 18.6448L2.10312 19.2105L2.30192 18.0021L1.44158 17.143L2.63507 16.9618L3.17311 15.8656ZM32.209 15.8656L32.7477 16.9618L33.9412 17.143L33.0802 18.0021L33.2797 19.2105L32.209 18.6448L31.139 19.2105L31.3378 18.0021L30.4775 17.143L31.6703 16.9618L32.209 15.8656ZM12.8445 15.8243C12.4082 15.3958 12.1911 14.8887 12.1938 14.3031C12.1965 13.7168 12.4164 13.2105 12.8527 12.7819C13.2889 12.3541 13.8039 12.1399 14.3983 12.1399C14.9926 12.1399 15.5083 12.3541 15.9446 12.7819C16.3809 13.2105 16.5973 13.7148 16.5946 14.2949C16.5919 14.8756 16.3727 15.3799 15.9365 15.8078C15.5002 16.2363 14.9832 16.4513 14.3861 16.454C13.789 16.4568 13.2754 16.2466 12.8445 15.8243ZM23.4421 13.8636C23.4461 13.9338 23.4773 14 23.5296 14.0462C23.5812 14.093 23.649 14.1164 23.7182 14.1123C23.8614 14.1033 23.9713 13.9779 23.9632 13.8326C23.9258 13.1739 23.8315 11.5102 23.8315 11.5102C23.8315 11.5102 22.1353 11.3965 21.4839 11.3524C21.3455 11.3434 21.2261 11.4495 21.2166 11.5901C21.2071 11.732 21.3129 11.8546 21.4527 11.8643C22.0179 11.9042 23.3355 11.9965 23.3355 11.9965C23.3355 11.9965 23.4095 13.2924 23.4421 13.8636ZM29.3091 12.1392L32.1812 10.3603L31.8006 9.72718L30.0324 10.8219L30.9796 8.36031L30.6247 7.7692L27.7526 9.54737L28.1326 10.1812L29.9584 9.04995L28.9814 11.5935L29.3091 12.1392ZM6.44554 9.51223L6.43672 9.5074C5.92717 9.21322 5.52414 9.42956 5.03222 9.94282C4.61562 10.3817 4.48127 10.4726 4.28925 10.3617L4.28112 10.3569C4.13863 10.2756 4.09995 10.0785 4.23972 9.82845C4.38017 9.57768 4.63326 9.38201 4.9603 9.22218L4.66582 8.60351C4.25872 8.76748 3.91879 9.0589 3.67657 9.49156C3.33664 10.0985 3.44588 10.7337 3.97647 11.0403L3.9846 11.0451C4.5654 11.38 4.94469 11.0878 5.42982 10.5766C5.83285 10.1523 5.97331 10.0985 6.13615 10.1929L6.14496 10.1977C6.31595 10.2969 6.3302 10.5181 6.18093 10.7854C5.99095 11.125 5.69579 11.3255 5.3294 11.4674L5.56892 12.1157C6.08119 11.9407 6.49033 11.5756 6.74205 11.1257C7.1003 10.4857 7.02634 9.84774 6.44554 9.51223ZM9.53137 7.59146L9.06117 7.12298L7.78287 8.44712L7.27806 7.9442L8.38878 6.79504L7.91857 6.32657L6.80786 7.4764L6.3207 6.99139L7.58271 5.68447L7.11251 5.21668L5.33619 7.05615L7.73741 9.44815L9.53137 7.59146ZM27.2756 9.00172L27.7248 8.51258L26.3888 7.24837L26.8705 6.72339L28.0308 7.82156L28.4799 7.33311L27.3197 6.23493L27.7852 5.72787L29.1035 6.97554L29.5527 6.4864L27.6963 4.72959L25.4023 7.22838L27.2756 9.00172ZM13.0155 5.43852L11.3823 2.45196L10.6848 2.84534L10.6021 4.54358L9.13853 3.71685L8.44103 4.11024L10.0742 7.0968L10.7086 6.73924L9.64943 4.80194L11.1591 5.60248L11.1761 5.59353L11.3063 3.85119L12.3723 5.8009L13.0155 5.43852ZM24.8941 6.86324L25.2211 6.26594L23.7542 5.43921L25.061 3.04995L24.4144 2.6855L22.7805 5.67138L24.8941 6.86324ZM14.6134 5.03204L13.7035 1.74303L12.9911 1.94627L13.9009 5.23528L14.6134 5.03204ZM22.4854 3.66036L22.4874 3.6514C22.6896 2.70204 22.1244 1.77403 21.11 1.55151C20.0957 1.32829 19.1926 1.9442 18.9904 2.89287L18.9884 2.90252C18.7862 3.85188 19.3507 4.77919 20.3651 5.00241C21.3794 5.22494 22.2832 4.60972 22.4854 3.66036ZM18.5372 4.59111L17.0037 2.70479L18.2963 1.18361L17.4034 1.23184L16.1183 2.79643L16.0403 1.30556L15.3014 1.34482L15.4798 4.75647L16.2187 4.71651L16.1644 3.67345L16.5315 3.24286L17.649 4.63935L18.5372 4.59111ZM21.7268 3.50397C21.6047 4.07648 21.1012 4.4554 20.5191 4.32725C19.9362 4.19911 19.6241 3.63142 19.7462 3.05891L19.7483 3.04995C19.8704 2.47744 20.3739 2.09853 20.9567 2.22667C21.5389 2.35412 21.8503 2.9225 21.7288 3.49433L21.7268 3.50397Z" fill="black" fill-opacity="0.2"/>
<path d="M53.9432 17.6964C52.8888 17.6964 51.8541 17.5153 50.8392 17.1532C49.8244 16.791 48.9017 16.2345 48.0714 15.4838L49.8705 13.3304C50.5031 13.8441 51.1523 14.2524 51.8179 14.5553C52.4835 14.8582 53.2117 15.0097 54.0025 15.0097C54.6352 15.0097 55.1262 14.8944 55.4754 14.6639C55.8247 14.4335 55.9994 14.1141 55.9994 13.7058V13.6663C55.9994 13.4687 55.963 13.2942 55.8903 13.1427C55.8176 12.9913 55.6788 12.8497 55.4741 12.718C55.2693 12.5863 54.9851 12.4546 54.6216 12.3229C54.2581 12.1912 53.7857 12.0529 53.2043 11.908C52.5039 11.7368 51.8695 11.5458 51.3012 11.3351C50.7329 11.1244 50.2505 10.8642 49.8541 10.5546C49.4577 10.2454 49.1504 9.85993 48.9323 9.39897C48.7142 8.938 48.6052 8.365 48.6052 7.68038V7.64063C48.6052 7.00861 48.723 6.43882 48.9587 5.93208C49.1944 5.42494 49.5251 4.98686 49.9507 4.61825C50.3762 4.24923 50.8844 3.96615 51.4753 3.7686C52.0661 3.57104 52.7174 3.47226 53.4292 3.47226C54.4441 3.47226 55.3766 3.62364 56.2267 3.9268C57.0768 4.22956 57.8578 4.66442 58.5695 5.23059L56.9879 7.52218C56.3684 7.10096 55.7621 6.76809 55.169 6.52475C54.5759 6.28102 53.9828 6.15895 53.3896 6.15895C52.7965 6.15895 52.3517 6.2742 52.0551 6.50468C51.7586 6.73516 51.6103 7.02186 51.6103 7.36437V7.40372C51.6103 7.62778 51.6532 7.82172 51.7391 7.98635C51.825 8.15098 51.9803 8.29915 52.205 8.43086C52.4296 8.56256 52.7369 8.68784 53.1268 8.80629C53.5166 8.92475 54.0089 9.06328 54.6037 9.22108C55.3041 9.40579 55.9285 9.61298 56.4769 9.84347C57.0254 10.074 57.4879 10.3506 57.8646 10.6734C58.2413 10.996 58.5254 11.3746 58.717 11.8092C58.9087 12.2439 59.0045 12.7641 59.0045 13.3699V13.4094C59.0045 14.0943 58.8801 14.7034 58.6313 15.2369C58.3825 15.7703 58.0355 16.2181 57.5903 16.5802C57.145 16.9424 56.6137 17.219 55.9963 17.41C55.3789 17.6009 54.6945 17.6964 53.9432 17.6964Z" fill="#8C9EDB"/>
<path d="M61.9305 3.66981H72.3496V6.37659H64.9356V9.18173H71.4599V11.8883H64.9356V14.7923H72.4484V17.4989H61.9305V3.66981Z" fill="#8C9EDB"/>
<path d="M75.4536 3.66981H78.7355L82.3733 9.51742L86.0111 3.66981H89.293V17.4989H86.2879V8.47061L82.3931 14.3775H82.314L78.4587 8.52963V17.4989H75.4536V3.66981Z" fill="#8C9EDB"/>
<path d="M96.0743 3.66981H93.0297V17.4988H96.0743V3.66981Z" fill="#8C9EDB"/>
<path d="M99.8107 3.66981H102.855V9.71498L108.47 3.66981H112.148L106.513 9.5375L112.405 17.4989H108.747L104.457 11.6117L102.855 13.2712V17.4989H99.8107V3.66981Z" fill="#8C9EDB"/>
<path d="M121.282 14.9306C121.888 14.9306 122.448 14.8187 122.962 14.5948C123.476 14.3709 123.915 14.0614 124.277 13.6663C124.64 13.2712 124.923 12.8135 125.127 12.2932C125.332 11.773 125.434 11.2166 125.434 10.6241V10.5843C125.434 9.99163 125.332 9.43188 125.127 8.90506C124.923 8.37825 124.633 7.91728 124.257 7.52217C123.882 7.12705 123.437 6.81426 122.923 6.58377C122.409 6.35329 121.848 6.23805 121.242 6.23805C120.623 6.23805 120.059 6.35008 119.552 6.57414C119.044 6.79779 118.61 7.10738 118.247 7.50249C117.885 7.89761 117.601 8.35536 117.397 8.87535C117.193 9.39575 117.09 9.95228 117.09 10.5449V10.5843C117.09 11.1771 117.193 11.7368 117.397 12.2636C117.601 12.7904 117.891 13.2514 118.267 13.6465C118.643 14.0416 119.084 14.3544 119.591 14.5849C120.099 14.8154 120.662 14.9306 121.282 14.9306ZM121.242 17.7359C120.175 17.7359 119.193 17.5483 118.297 17.1729C117.4 16.7975 116.626 16.2905 115.973 15.6517C115.321 15.0129 114.813 14.2622 114.451 13.3996C114.089 12.5369 113.907 11.6117 113.907 10.6241V10.5843C113.907 9.59652 114.092 8.67137 114.461 7.80887C114.83 6.94596 115.341 6.18866 115.993 5.53696C116.645 4.88487 117.423 4.37129 118.326 3.99586C119.229 3.62042 120.214 3.43291 121.282 3.43291C122.35 3.43291 123.331 3.62042 124.228 3.99586C125.124 4.37129 125.898 4.87844 126.55 5.51688C127.203 6.15573 127.711 6.90661 128.073 7.76912C128.435 8.63202 128.617 9.55716 128.617 10.5449V10.5843C128.617 11.5722 128.432 12.4974 128.063 13.3601C127.694 14.2227 127.183 14.98 126.531 15.632C125.879 16.2839 125.101 16.7975 124.198 17.1729C123.295 17.5483 122.31 17.7359 121.242 17.7359Z" fill="#8C9EDB"/>
<path d="M131.602 3.66981H134.647V14.7528H141.547V17.4989H131.602V3.66981Z" fill="#8C9EDB"/>
<path d="M144.117 3.66981H154.536V6.37659H147.122V9.18173H153.646V11.8883H147.122V14.7923H154.635V17.4989H144.117V3.66981Z" fill="#8C9EDB"/>
<path d="M157.64 3.66981H160.447L166.932 12.1846V3.66981H169.937V17.4989H167.347L160.645 8.70752V17.4989H157.64V3.66981Z" fill="#8C9EDB"/>
<path d="M48.2813 23.0377H54.6679V24.702H50.1266V26.51H54.1287V28.1743H50.1266V31.4191H48.2813V23.0377Z" fill="#8C9EDB"/>
<path d="M58.2386 23.0377H56.3933V31.419H58.2386V23.0377Z" fill="#8C9EDB"/>
<path d="M60.5032 23.0377H62.2047L66.1349 28.1983V23.0377H67.9562V31.4191H66.3866L62.3245 26.091V31.4191H60.5032V23.0377Z" fill="#8C9EDB"/>
<path d="M72.0662 23.0377H70.2209V31.419H72.0662V23.0377Z" fill="#8C9EDB"/>
<path d="M77.3264 31.5388C76.6873 31.5388 76.0602 31.429 75.4451 31.2095C74.8301 30.99 74.2709 30.6528 73.7676 30.1978L74.858 28.8927C75.2414 29.204 75.6349 29.4515 76.0383 29.6351C76.4417 29.8186 76.883 29.9104 77.3623 29.9104C77.7457 29.9104 78.0433 29.8406 78.255 29.7009C78.4667 29.5612 78.5725 29.3676 78.5725 29.1202V29.0962C78.5725 28.9765 78.5505 28.8708 78.5064 28.779C78.4624 28.6872 78.3783 28.6013 78.2542 28.5215C78.13 28.4417 77.9578 28.3619 77.7375 28.2821C77.5172 28.2023 77.2309 28.1184 76.8785 28.0306C76.454 27.9269 76.0695 27.8111 75.7251 27.6834C75.3807 27.5557 75.0884 27.398 74.8481 27.2104C74.6078 27.0229 74.4216 26.7894 74.2894 26.51C74.1572 26.2307 74.0912 25.8834 74.0912 25.4683V25.4444C74.0912 25.0613 74.1626 24.7161 74.3054 24.4085C74.4483 24.1013 74.6487 23.8359 74.9066 23.6127C75.1645 23.389 75.4725 23.2176 75.8307 23.0975C76.1887 22.9778 76.5835 22.918 77.0148 22.918C77.6299 22.918 78.1951 23.01 78.7103 23.1935C79.2256 23.377 79.6988 23.6404 80.1302 23.9837L79.1716 25.3726C78.7962 25.1171 78.4288 24.9156 78.0693 24.7679C77.7098 24.6201 77.3503 24.5462 76.9908 24.5462C76.6314 24.5462 76.3618 24.6161 76.1821 24.7558C76.0023 24.8956 75.9125 25.0692 75.9125 25.2768V25.3007C75.9125 25.4364 75.9385 25.5541 75.9905 25.6539C76.0426 25.7537 76.1367 25.8435 76.2729 25.9233C76.409 26.0031 76.5953 26.079 76.8315 26.1508C77.0678 26.2227 77.3662 26.3065 77.7267 26.4023C78.1512 26.514 78.5296 26.6397 78.862 26.7794C79.1943 26.9191 79.4747 27.0867 79.703 27.2823C79.9313 27.4779 80.1035 27.7073 80.2196 27.9708C80.3358 28.2342 80.3938 28.5495 80.3938 28.9167V28.9406C80.3938 29.3557 80.3184 29.7248 80.1677 30.0481C80.0169 30.3714 79.8066 30.6428 79.5367 30.8623C79.2669 31.0818 78.9448 31.2494 78.5706 31.3652C78.1964 31.4809 77.7817 31.5388 77.3264 31.5388Z" fill="#8C9EDB"/>
<path d="M82.1672 23.0377H84.0125V26.3544H87.4154V23.0377H89.2607V31.4191H87.4154V28.0546H84.0125V31.4191H82.1672V23.0377Z" fill="#8C9EDB"/>
<path d="M93.3704 23.0377H91.5252V31.419H93.3704V23.0377Z" fill="#8C9EDB"/>
<path d="M95.6352 23.0377H97.3366L101.267 28.1983V23.0377H103.088V31.4191H101.519L97.4568 26.091V31.4191H95.6352V23.0377Z" fill="#8C9EDB"/>
<path d="M109.307 31.5628C108.652 31.5628 108.055 31.455 107.516 31.2395C106.976 31.0239 106.513 30.7246 106.126 30.3415C105.738 29.9583 105.437 29.5034 105.221 28.9765C105.005 28.4497 104.898 27.875 104.898 27.2524V27.2284C104.898 26.6298 105.007 26.069 105.227 25.5462C105.447 25.0234 105.752 24.5643 106.144 24.1692C106.535 23.7741 106.998 23.4629 107.534 23.2352C108.069 23.008 108.656 22.8943 109.295 22.8943C109.671 22.8943 110.012 22.92 110.32 22.9718C110.627 23.024 110.913 23.0975 111.176 23.1935C111.44 23.289 111.688 23.4091 111.919 23.5524C112.151 23.6962 112.375 23.86 112.59 24.0435L111.428 25.4444C111.268 25.3087 111.108 25.189 110.949 25.0852C110.789 24.9814 110.623 24.8937 110.451 24.8217C110.279 24.7498 110.094 24.694 109.894 24.6543C109.694 24.6141 109.475 24.5944 109.235 24.5944C108.9 24.5944 108.586 24.6643 108.295 24.8044C108.003 24.9443 107.747 25.1323 107.528 25.3684C107.308 25.6044 107.136 25.8804 107.013 26.1964C106.889 26.5124 106.827 26.8504 106.827 27.2105V27.2344C106.827 27.6184 106.889 27.9725 107.013 28.2965C107.136 28.6205 107.312 28.9025 107.54 29.1425C107.767 29.3824 108.035 29.5684 108.343 29.7004C108.65 29.8325 108.992 29.8985 109.367 29.8985C110.054 29.8985 110.633 29.7297 111.104 29.3921V28.1863H109.247V26.5939H112.89V30.2337C112.458 30.6009 111.945 30.9142 111.35 31.1736C110.755 31.433 110.074 31.5628 109.307 31.5628Z" fill="#8C9EDB"/>
<path d="M121.421 31.5388C120.782 31.5388 120.155 31.429 119.54 31.2095C118.925 30.99 118.366 30.6528 117.863 30.1978L118.953 28.8927C119.336 29.204 119.73 29.4515 120.133 29.6351C120.536 29.8186 120.978 29.9104 121.457 29.9104C121.84 29.9104 122.138 29.8406 122.35 29.7009C122.561 29.5612 122.667 29.3676 122.667 29.1202V29.0962C122.667 28.9765 122.645 28.8708 122.601 28.779C122.557 28.6872 122.473 28.6013 122.349 28.5215C122.225 28.4417 122.053 28.3619 121.832 28.2821C121.612 28.2023 121.326 28.1184 120.973 28.0306C120.549 27.9269 120.164 27.8111 119.82 27.6834C119.476 27.5557 119.183 27.398 118.943 27.2104C118.702 27.0229 118.516 26.7894 118.384 26.51C118.252 26.2307 118.186 25.8834 118.186 25.4683V25.4444C118.186 25.0613 118.257 24.7161 118.4 24.4085C118.543 24.1013 118.743 23.8359 119.001 23.6127C119.259 23.389 119.567 23.2176 119.926 23.0975C120.284 22.9778 120.678 22.918 121.109 22.918C121.725 22.918 122.29 23.01 122.805 23.1935C123.32 23.377 123.794 23.6404 124.225 23.9837L123.267 25.3726C122.891 25.1171 122.524 24.9156 122.164 24.7679C121.805 24.6201 121.445 24.5462 121.086 24.5462C120.726 24.5462 120.456 24.6161 120.277 24.7558C120.097 24.8956 120.007 25.0692 120.007 25.2768V25.3007C120.007 25.4364 120.033 25.5541 120.085 25.6539C120.137 25.7537 120.231 25.8435 120.368 25.9233C120.504 26.0031 120.69 26.079 120.926 26.1508C121.163 26.2227 121.461 26.3065 121.822 26.4023C122.246 26.514 122.624 26.6397 122.957 26.7794C123.289 26.9191 123.57 27.0867 123.798 27.2823C124.026 27.4779 124.198 27.7073 124.315 27.9708C124.431 28.2342 124.489 28.5495 124.489 28.9167V28.9406C124.489 29.3557 124.413 29.7248 124.262 30.0481C124.112 30.3714 123.901 30.6428 123.631 30.8623C123.362 31.0818 123.039 31.2494 122.665 31.3652C122.291 31.4809 121.877 31.5388 121.421 31.5388Z" fill="#8C9EDB"/>
<path d="M130.192 31.5628C129.577 31.5628 129.006 31.451 128.479 31.2275C127.952 31.004 127.496 30.6987 127.113 30.3115C126.729 29.9244 126.43 29.4674 126.214 28.9406C125.998 28.4138 125.891 27.851 125.891 27.2524V27.2284C125.891 26.6298 125.998 26.069 126.214 25.5462C126.43 25.0234 126.729 24.5643 127.113 24.1692C127.496 23.7741 127.956 23.4629 128.491 23.2352C129.026 23.008 129.617 22.8943 130.264 22.8943C130.656 22.8943 131.013 22.926 131.337 22.9899C131.66 23.0537 131.954 23.1417 132.217 23.2533C132.481 23.3649 132.725 23.5006 132.948 23.6605C133.172 23.8199 133.379 23.9957 133.571 24.1873L132.397 25.5402C132.069 25.2448 131.736 25.0134 131.397 24.8458C131.057 24.678 130.676 24.5944 130.252 24.5944C129.901 24.5944 129.575 24.6623 129.276 24.798C128.976 24.9335 128.718 25.1211 128.503 25.3606C128.287 25.6001 128.119 25.8774 127.999 26.1928C127.88 26.508 127.82 26.8453 127.82 27.2045V27.2284C127.82 27.5876 127.88 27.9269 127.999 28.2461C128.119 28.5654 128.285 28.8448 128.497 29.0843C128.708 29.3238 128.964 29.5133 129.264 29.653C129.563 29.7927 129.893 29.8625 130.252 29.8625C130.732 29.8625 131.137 29.7748 131.469 29.5991C131.8 29.4235 132.13 29.1841 132.457 28.8807L133.631 30.0661C133.415 30.2976 133.192 30.5051 132.96 30.6887C132.728 30.8723 132.475 31.0299 132.199 31.1616C131.924 31.2933 131.622 31.3931 131.295 31.461C130.967 31.5288 130.6 31.5628 130.192 31.5628Z" fill="#8C9EDB"/>
<path d="M135.273 23.0377H137.118V26.3544H140.521V23.0377H142.366V31.4191H140.521V28.0546H137.118V31.4191H135.273V23.0377Z" fill="#8C9EDB"/>
<path d="M148.645 29.8625C149.012 29.8625 149.352 29.7947 149.663 29.659C149.975 29.5233 150.24 29.3357 150.46 29.0962C150.68 28.8568 150.852 28.5794 150.975 28.2641C151.099 27.9488 151.161 27.6116 151.161 27.2524V27.2284C151.161 26.8692 151.099 26.53 150.975 26.2107C150.852 25.8914 150.676 25.6121 150.448 25.3726C150.22 25.1331 149.951 24.9435 149.639 24.804C149.328 24.6643 148.988 24.5944 148.621 24.5944C148.245 24.5944 147.904 24.6623 147.596 24.798C147.289 24.9335 147.025 25.1211 146.806 25.3606C146.586 25.6001 146.414 25.8774 146.29 26.1928C146.167 26.508 146.105 26.8453 146.105 27.2045V27.2284C146.105 27.5876 146.167 27.9269 146.29 28.2461C146.414 28.5654 146.59 28.8448 146.818 29.0843C147.045 29.3238 147.313 29.5133 147.62 29.653C147.928 29.7927 148.269 29.8625 148.645 29.8625ZM148.621 31.5628C147.974 31.5628 147.379 31.449 146.836 31.2215C146.292 30.994 145.823 30.6867 145.428 30.2996C145.032 29.9125 144.725 29.4575 144.505 28.9346C144.285 28.4118 144.176 27.851 144.176 27.2524V27.2284C144.176 26.6298 144.287 26.069 144.511 25.5462C144.735 25.0234 145.044 24.5643 145.44 24.1692C145.835 23.7741 146.306 23.4629 146.853 23.2352C147.401 23.008 147.998 22.8943 148.645 22.8943C149.292 22.8943 149.887 23.008 150.43 23.2352C150.973 23.4629 151.443 23.7701 151.838 24.1572C152.234 24.5442 152.541 24.9994 152.761 25.5222C152.981 26.0451 153.09 26.6058 153.09 27.2045V27.2284C153.09 27.8271 152.979 28.3878 152.755 28.9107C152.531 29.4335 152.222 29.8925 151.826 30.2876C151.431 30.6827 150.959 30.994 150.412 31.2215C149.865 31.449 149.268 31.5628 148.621 31.5628Z" fill="#8C9EDB"/>
<path d="M158.998 29.8625C159.365 29.8625 159.705 29.7947 160.016 29.659C160.327 29.5233 160.593 29.3357 160.813 29.0962C161.033 28.8568 161.204 28.5794 161.328 28.2641C161.452 27.9488 161.514 27.6116 161.514 27.2524V27.2284C161.514 26.8692 161.452 26.53 161.328 26.2107C161.204 25.8914 161.029 25.6121 160.801 25.3726C160.573 25.1331 160.304 24.9435 159.992 24.804C159.681 24.6643 159.341 24.5944 158.974 24.5944C158.598 24.5944 158.257 24.6623 157.949 24.798C157.642 24.9335 157.378 25.1211 157.158 25.3606C156.939 25.6001 156.767 25.8774 156.643 26.1928C156.519 26.508 156.457 26.8453 156.457 27.2045V27.2284C156.457 27.5876 156.519 27.9269 156.643 28.2461C156.767 28.5654 156.943 28.8448 157.17 29.0843C157.398 29.3238 157.666 29.5133 157.973 29.653C158.281 29.7927 158.622 29.8625 158.998 29.8625ZM158.974 31.5628C158.327 31.5628 157.732 31.449 157.188 31.2215C156.645 30.994 156.176 30.6867 155.78 30.2996C155.385 29.9125 155.077 29.4575 154.858 28.9346C154.638 28.4118 154.528 27.851 154.528 27.2524V27.2284C154.528 26.6298 154.64 26.069 154.864 25.5462C155.087 25.0234 155.397 24.5643 155.792 24.1692C156.188 23.7741 156.659 23.4629 157.206 23.2352C157.753 23.008 158.35 22.8943 158.998 22.8943C159.645 22.8943 160.24 23.008 160.783 23.2352C161.326 23.4629 161.795 23.7701 162.191 24.1572C162.586 24.5442 162.894 24.9994 163.113 25.5222C163.333 26.0451 163.443 26.6058 163.443 27.2045V27.2284C163.443 27.8271 163.331 28.3878 163.107 28.9107C162.884 29.4335 162.574 29.8925 162.179 30.2876C161.783 30.6827 161.312 30.994 160.765 31.2215C160.218 31.449 159.621 31.5628 158.974 31.5628Z" fill="#8C9EDB"/>
<path d="M165.252 23.0377H167.098V29.7548H171.28V31.4191H165.252V23.0377Z" fill="#8C9EDB"/>
</svg>
