<svg width="122" height="37" viewBox="0 0 122 37" fill="none" xmlns="http://www.w3.org/2000/svg">
<path fill-rule="evenodd" clip-rule="evenodd" d="M5.06365 36.0471H116.873C119.195 36.0471 121.088 34.1606 121.086 31.8401V4.62311C121.086 2.30082 119.193 0.411621 116.872 0.411621H5.06365C2.74047 0.411621 0.849487 2.30082 0.849487 4.62311V31.8401C0.849487 34.1606 2.74047 36.0471 5.06365 36.0471ZM116.873 35.2533C118.762 35.2533 120.29 33.726 120.29 31.8403L120.289 4.62244C120.289 2.73769 118.762 1.20495 116.872 1.20495H5.06365C3.17542 1.20495 1.64267 2.73769 1.64267 4.62244V31.8403C1.64267 33.726 3.17534 35.2533 5.06365 35.2533H116.873Z" fill="#8C9EDB"/>
<path d="M27.6975 18.042C27.6717 15.1699 30.0492 13.7726 30.158 13.7076C28.8115 11.7444 26.7245 11.4762 25.9911 11.4548C24.2382 11.2703 22.538 12.5036 21.6451 12.5036C20.7343 12.5036 19.3593 11.4726 17.8773 11.5029C15.9703 11.5323 14.1863 12.6364 13.2078 14.3509C11.1886 17.8469 12.6945 22.9842 14.6292 25.81C15.5969 27.1948 16.7279 28.7392 18.208 28.6848C19.656 28.626 20.197 27.7625 21.9445 27.7625C23.6759 27.7625 24.1839 28.6848 25.6934 28.6501C27.2476 28.626 28.226 27.2599 29.16 25.8635C30.2783 24.2782 30.7274 22.7151 30.7453 22.6349C30.7096 22.6224 27.7278 21.4836 27.6975 18.042ZM24.8459 9.59587C25.6247 8.62186 26.1577 7.29675 26.0097 5.95203C24.8824 6.00193 23.4727 6.73177 22.6608 7.68439C21.9425 8.52383 21.3009 9.89974 21.4667 11.1937C22.7331 11.2881 24.0332 10.5547 24.8459 9.59587Z" fill="#8C9EDB"/>
<path d="M48.6721 28.4861H46.6484L45.5398 25.0027H41.6865L40.6305 28.4861H38.6603L42.4788 16.6269H44.8367L48.6721 28.4861ZM45.2057 23.5412L44.2032 20.4446C44.0972 20.1282 43.8975 19.3832 43.6052 18.2105H43.5696C43.452 18.7149 43.2639 19.4599 43.0064 20.4446L42.0208 23.5412H45.2057ZM58.4729 24.1053C58.4729 25.5597 58.0781 26.7092 57.2876 27.5532C56.5801 28.3043 55.7006 28.6796 54.6517 28.6796C53.519 28.6796 52.7045 28.2758 52.2099 27.4668V31.9536H50.3101V22.7455C50.3101 21.832 50.2861 20.8955 50.2397 19.9348H51.9106L52.0166 21.2902H52.0522C52.6858 20.269 53.6473 19.7583 54.9377 19.7583C55.9465 19.7583 56.7886 20.1566 57.4623 20.9542C58.1351 21.7536 58.4729 22.8034 58.4729 24.1053ZM56.5373 24.1748C56.5373 23.3425 56.3501 22.6563 55.9741 22.1154C55.5633 21.5531 55.0117 21.2716 54.3201 21.2716C53.8514 21.2716 53.4255 21.4284 53.0449 21.7376C52.6635 22.0495 52.414 22.4567 52.2974 22.9611C52.2385 23.1964 52.2091 23.388 52.2091 23.5395V24.9662C52.2091 25.5873 52.3998 26.1122 52.7812 26.5418C53.1626 26.9695 53.6581 27.1842 54.2676 27.1842C54.9833 27.1842 55.5403 26.9071 55.9385 26.3572C56.3377 25.8056 56.5373 25.0784 56.5373 24.1748ZM68.3083 24.1053C68.3083 25.5597 67.9135 26.7092 67.123 27.5532C66.4146 28.3043 65.5359 28.6796 64.4862 28.6796C63.3536 28.6796 62.5391 28.2758 62.0445 27.4668V31.9536H60.1446V22.7455C60.1446 21.832 60.1205 20.8955 60.0742 19.9348H61.7451L61.8511 21.2902H61.8868C62.5195 20.269 63.481 19.7583 64.7722 19.7583C65.78 19.7583 66.6222 20.1566 67.2977 20.9542C67.9697 21.7536 68.3083 22.8034 68.3083 24.1053ZM66.3718 24.1748C66.3718 23.3425 66.1839 22.6563 65.8077 22.1154C65.3969 21.5531 64.8471 21.2716 64.1556 21.2716C63.6868 21.2716 63.2609 21.4284 62.8786 21.7376C62.4972 22.0495 62.2486 22.4567 62.1318 22.9611C62.0739 23.1964 62.0427 23.388 62.0427 23.5395V24.9662C62.0427 25.5873 62.2343 26.1122 62.6139 26.5418C62.9953 26.9686 63.4908 27.1842 64.1021 27.1842C64.8185 27.1842 65.3755 26.9071 65.773 26.3572C66.1722 25.8056 66.3718 25.0784 66.3718 24.1748ZM79.3048 25.1595C79.3048 26.1692 78.9519 26.9899 78.2507 27.6235C77.4789 28.315 76.4016 28.6617 75.0203 28.6617C73.7442 28.6617 72.7211 28.4157 71.9494 27.9229L72.3888 26.3394C73.222 26.8331 74.1372 27.079 75.1334 27.079C75.8499 27.079 76.4069 26.9169 76.8043 26.5952C77.2026 26.2726 77.404 25.8413 77.404 25.303C77.404 24.821 77.2374 24.4172 76.9104 24.0885C76.5815 23.7605 76.0379 23.4549 75.2743 23.1742C73.1979 22.3998 72.1588 21.2671 72.1588 19.7772C72.1588 18.8041 72.526 18.0074 73.2586 17.3845C73.9911 16.7625 74.9624 16.4515 76.1708 16.4515C77.25 16.4515 78.1491 16.6396 78.8629 17.0147L78.3861 18.5634C77.7142 18.1999 76.9558 18.0181 76.1074 18.0181C75.4374 18.0181 74.9115 18.1829 74.5355 18.5109C74.2191 18.8041 74.0587 19.1615 74.0587 19.5856C74.0587 20.0535 74.2415 20.442 74.605 20.7468C74.9205 21.0274 75.4961 21.3332 76.3284 21.6611C77.3497 22.0728 78.0999 22.5522 78.5803 23.103C79.0642 23.6535 79.3048 24.3406 79.3048 25.1595ZM85.6025 21.3606H83.5083V25.5124C83.5083 26.5684 83.8773 27.0951 84.6169 27.0951C84.9564 27.0951 85.2381 27.0665 85.4608 27.0069L85.5133 28.4496C85.1391 28.5896 84.6463 28.6599 84.0358 28.6599C83.2855 28.6599 82.6992 28.4309 82.2759 27.9728C81.8544 27.5148 81.6423 26.7475 81.6423 25.6675V21.3571H80.3947V19.9313H81.6423V18.3655L83.5083 17.8023V19.9313H85.6025V21.3606ZM95.0324 24.1401C95.0324 25.4544 94.6564 26.5336 93.906 27.3776C93.1209 28.2464 92.0765 28.6795 90.7746 28.6795C89.5181 28.6795 88.5191 28.2634 87.7741 27.4319C87.0292 26.5986 86.6567 25.549 86.6567 24.2827C86.6567 22.9575 87.0416 21.8721 87.8089 21.0282C88.578 20.1835 89.6135 19.7611 90.9154 19.7611C92.1701 19.7611 93.1781 20.1781 93.9408 21.0104C94.6698 21.8178 95.0324 22.8604 95.0324 24.1401ZM93.063 24.1837C93.063 23.4004 92.8938 22.7285 92.5542 22.1661C92.1558 21.4871 91.5855 21.1477 90.8468 21.1477C90.0858 21.1477 89.5021 21.4871 89.1046 22.1661C88.7642 22.7285 88.5949 23.412 88.5949 24.2193C88.5949 25.0036 88.7642 25.6772 89.1046 26.2378C89.5154 26.9169 90.0884 27.2564 90.8307 27.2564C91.557 27.2564 92.1264 26.9097 92.5381 26.2209C92.8875 25.6452 93.063 24.9688 93.063 24.1837ZM101.211 21.6057C101.023 21.5709 100.821 21.553 100.612 21.553C99.9435 21.553 99.4267 21.8044 99.0632 22.3105C98.7477 22.7561 98.589 23.3193 98.589 23.9992V28.4861H96.6891V22.6278C96.6891 21.6431 96.6704 20.7449 96.6339 19.9357H98.2888L98.3583 21.5718H98.4109C98.6122 21.0095 98.9277 20.5559 99.3608 20.2164C99.7841 19.9108 100.241 19.7583 100.734 19.7583C100.91 19.7583 101.068 19.7708 101.209 19.7931L101.211 21.6057ZM109.708 23.8059C109.708 24.1463 109.685 24.4332 109.638 24.6676H103.938C103.96 25.5124 104.236 26.1594 104.765 26.605C105.246 27.0025 105.867 27.202 106.63 27.202C107.474 27.202 108.243 27.0683 108.936 26.7983L109.234 28.1163C108.424 28.4692 107.469 28.6448 106.367 28.6448C105.041 28.6448 104 28.2544 103.242 27.4756C102.487 26.6958 102.108 25.6479 102.108 24.3352C102.108 23.0466 102.46 21.9728 103.165 21.1165C103.903 20.2022 104.9 19.7449 106.155 19.7449C107.387 19.7449 108.32 20.2021 108.954 21.1165C109.455 21.841 109.708 22.7392 109.708 23.8059ZM107.896 23.3131C107.909 22.749 107.785 22.2634 107.527 21.8525C107.198 21.3232 106.692 21.0594 106.014 21.0594C105.393 21.0594 104.887 21.317 104.502 21.8338C104.185 22.2446 103.997 22.7383 103.939 23.3113L107.896 23.3131Z" fill="#8C9EDB"/>
<path d="M44.2896 12.3825H43.2941L42.7496 10.6706H40.856L40.3365 12.3825H39.3678L41.2445 6.55356H42.403L44.2896 12.3825ZM42.5857 9.95234L42.0929 8.43028C42.0412 8.27434 41.9458 7.91164 41.7988 7.33241H41.781C41.7204 7.58282 41.634 7.9464 41.5038 8.43028L41.02 9.95234H42.5857ZM48.9822 8.17988L47.3907 12.3825H46.4825L44.9427 8.17988H45.9461L46.6644 10.4024C46.7856 10.774 46.889 11.1286 46.9665 11.4655H46.9923C47.0619 11.1634 47.1652 10.8087 47.2944 10.4024L48.0038 8.17988H48.9822ZM52.3703 12.3825L52.3008 11.8985H52.2749C51.9897 12.2879 51.5745 12.4777 51.047 12.4777C50.2948 12.4777 49.7583 11.9502 49.7583 11.2408C49.7583 10.2036 50.6575 9.6671 52.2143 9.6671V9.58957C52.2143 9.03618 51.9202 8.75904 51.341 8.75904C50.9256 8.75904 50.5621 8.8633 50.2431 9.07093L50.0532 8.45694C50.4426 8.21456 50.9266 8.09336 51.4977 8.09336C52.5956 8.09336 53.1499 8.6726 53.1499 9.83196V11.3799C53.1499 11.804 53.1677 12.1329 53.2105 12.3833L52.3703 12.3825ZM52.2402 10.2892C51.2021 10.2892 50.6834 10.5405 50.6834 11.1367C50.6834 11.5778 50.9516 11.7934 51.3232 11.7934C51.799 11.7934 52.2402 11.4307 52.2402 10.9379V10.2892ZM55.23 7.48747C54.919 7.48747 54.6766 7.24508 54.6766 6.92516C54.6766 6.60524 54.927 6.37177 55.2478 6.37177C55.5677 6.37177 55.827 6.60524 55.8182 6.92516C55.8182 7.2629 55.5767 7.48747 55.23 7.48747ZM55.7147 12.3825H54.7808V8.17988H55.7147V12.3825ZM58.3079 12.3825H57.374V6.25146H58.3079V12.3825ZM62.277 12.3825L62.2074 11.8985H62.1817C61.8965 12.2879 61.4812 12.4777 60.9537 12.4777C60.2016 12.4777 59.6651 11.9502 59.6651 11.2408C59.6651 10.2036 60.5642 9.6671 62.121 9.6671V9.58957C62.121 9.03618 61.8269 8.75904 61.2477 8.75904C60.8324 8.75904 60.4688 8.8633 60.1498 9.07093L59.9592 8.45605C60.3486 8.21366 60.8325 8.09247 61.4037 8.09247C62.5016 8.09247 63.0558 8.67171 63.0558 9.83107V11.379C63.0558 11.8031 63.0746 12.132 63.1156 12.3824L62.277 12.3825ZM62.1469 10.2892C61.1088 10.2892 60.5901 10.5405 60.5901 11.1367C60.5901 11.5778 60.8583 11.7934 61.2299 11.7934C61.7057 11.7934 62.1469 11.4307 62.1469 10.9379V10.2892ZM66.8397 12.4778C66.2435 12.4778 65.8032 12.2265 65.5181 11.7337H65.4994L65.4459 12.3825H64.6501C64.676 12.0456 64.6849 11.6642 64.6849 11.2498V6.25146H65.6197V8.79476H65.6375C65.9146 8.3278 66.3629 8.09433 66.9778 8.09433C67.9901 8.09433 68.6994 8.95962 68.6994 10.2215C68.6994 11.5261 67.9117 12.4778 66.8397 12.4778ZM66.6498 8.82773C66.1125 8.82773 65.6206 9.29468 65.6206 9.94343V10.6786C65.6206 11.2578 66.0626 11.7337 66.6339 11.7337C67.3334 11.7337 67.7495 11.1634 67.7495 10.2553C67.7486 9.40786 67.3155 8.82773 66.6498 8.82773ZM71.0137 12.3825H70.0807V6.25146H71.0137V12.3825ZM76.0977 10.5057H73.2942C73.3129 11.3015 73.8386 11.7506 74.6174 11.7506C75.0327 11.7506 75.4132 11.6811 75.7501 11.5519L75.8953 12.2007C75.4979 12.3735 75.0309 12.46 74.4864 12.46C73.1711 12.46 72.3932 11.6294 72.3932 10.3418C72.3932 9.05319 73.1899 8.08452 74.3813 8.08452C75.4534 8.08452 76.1288 8.88031 76.1288 10.0824C76.1324 10.2464 76.1243 10.3934 76.0977 10.5057ZM75.2412 9.84006C75.2412 9.19131 74.9123 8.73327 74.3153 8.73327C73.7788 8.73327 73.3565 9.20022 73.2941 9.84006H75.2412ZM81.7581 12.4778C80.5301 12.4778 79.7343 11.5608 79.7343 10.3159C79.7343 9.01843 80.547 8.09344 81.8285 8.09344C83.0377 8.09344 83.8522 8.96675 83.8522 10.2473C83.8523 11.5608 83.0128 12.4778 81.7581 12.4778ZM81.7937 8.77604C81.1191 8.77604 80.687 9.40696 80.687 10.2892C80.687 11.1545 81.1281 11.7854 81.7849 11.7854C82.4416 11.7854 82.8818 11.1108 82.8818 10.2714C82.8827 9.41588 82.4505 8.77604 81.7937 8.77604ZM88.8729 12.3825H87.9399V9.96927C87.9399 9.22606 87.6547 8.85357 87.0925 8.85357C86.5391 8.85357 86.1577 9.32944 86.1577 9.88283V12.3825H85.2247V9.38112C85.2247 9.00952 85.2149 8.61118 85.1899 8.17898H86.0115L86.0552 8.82773H86.081C86.3305 8.3786 86.8421 8.09254 87.4124 8.09254C88.2937 8.09254 88.8729 8.76713 88.8729 9.86501L88.8729 12.3825ZM94.9834 8.88031H93.9559V10.921C93.9559 11.4405 94.1369 11.6998 94.4995 11.6998C94.6643 11.6998 94.8034 11.682 94.9148 11.6562L94.9407 12.3655C94.7588 12.4351 94.5155 12.4698 94.2152 12.4698C93.4791 12.4698 93.0398 12.0634 93.0398 10.9994V8.88031H92.4267V8.17988H93.0398V7.40994L93.9559 7.13279V8.17898H94.9834V8.88031ZM99.9292 12.3825H98.9944V9.98709C98.9944 9.23498 98.7092 8.85446 98.147 8.85446C97.663 8.85446 97.214 9.18329 97.214 9.84897V12.3825H96.2792V6.25146H97.214V8.77604H97.2318C97.5258 8.318 97.95 8.09254 98.4945 8.09254C99.3848 8.09254 99.9292 8.78406 99.9292 9.88283V12.3825ZM104.701 10.5057H101.899C101.916 11.3015 102.442 11.7506 103.221 11.7506C103.637 11.7506 104.017 11.6811 104.354 11.5519L104.5 12.2007C104.102 12.3735 103.635 12.46 103.09 12.46C101.775 12.46 100.997 11.6294 100.997 10.3418C100.997 9.05319 101.794 8.08452 102.985 8.08452C104.057 8.08452 104.733 8.88031 104.733 10.0824C104.736 10.2464 104.727 10.3934 104.701 10.5057ZM103.845 9.84006C103.845 9.19131 103.517 8.73327 102.92 8.73327C102.382 8.73327 101.96 9.20022 101.899 9.84006H103.845Z" fill="#8C9EDB"/>
</svg>
