<svg width="34" height="25" viewBox="0 0 34 25" fill="none" xmlns="http://www.w3.org/2000/svg">
<path d="M33.6262 5.40421C33.6262 2.59179 31.4933 0.329349 28.8577 0.329349C25.2878 0.167479 21.647 0.10498 17.9263 0.10498H16.7663C13.0547 0.10498 9.4074 0.167479 5.83747 0.329974C3.20835 0.329974 1.07542 2.60491 1.07542 5.41734C0.914318 7.64165 0.846013 9.86659 0.849879 12.0915C0.843435 14.3165 0.916466 16.5435 1.06897 18.7726C1.06897 21.585 3.20191 23.8662 5.83102 23.8662C9.58138 24.035 13.4284 24.11 17.3399 24.1037C21.2578 24.1162 25.094 24.037 28.8487 23.8662C31.4842 23.8662 33.6172 21.585 33.6172 18.7726C33.7718 16.5414 33.8427 14.3165 33.8363 12.0853C33.8509 9.86034 33.7809 7.63332 33.6262 5.40421ZM14.1888 18.2226V5.9417L23.5325 12.079L14.1888 18.2226Z" fill="#8C9EDB"/>
</svg>
