<svg width="67" height="69" viewBox="0 0 67 69" fill="#fff" xmlns="http://www.w3.org/2000/svg">
<path fill-rule="evenodd" clip-rule="evenodd" d="M33.5012 0.757141C51.9776 0.757141 66.977 15.9973 66.977 34.7673C66.977 53.5386 51.9776 68.7775 33.5012 68.7775C15.0261 68.7775 0.0253906 53.5386 0.0253906 34.7673C0.0253906 15.9973 15.0261 0.757141 33.5012 0.757141ZM33.5012 12.0106C45.864 12.0106 55.9004 22.2072 55.9004 34.7673C55.9004 47.3274 45.864 57.524 33.5012 57.524C21.1385 57.524 11.102 47.3274 11.102 34.7673C11.102 22.2072 21.1385 12.0106 33.5012 12.0106ZM40.9759 30.3597C40.3815 29.7759 39.4176 29.7759 38.8232 30.3584L29.0103 39.9926C28.4173 40.5751 28.4173 41.5223 29.0117 42.1062L38.8219 51.7377C39.4163 52.3215 40.3815 52.3215 40.9746 51.7377L50.7875 42.1048C51.3819 41.5223 51.3819 40.5751 50.7875 39.9912L40.9759 30.3597ZM23.7173 38.6017C23.3622 38.253 22.7836 38.253 22.4285 38.6017L16.549 44.3734C16.1939 44.7221 16.1939 45.2899 16.549 45.64L22.4272 51.4103C22.7836 51.759 23.3609 51.7604 23.7173 51.4103L29.5955 45.6386C29.9519 45.2899 29.9519 44.7221 29.5955 44.3734L23.7173 38.6017ZM28.1805 17.797C27.5861 17.2144 26.6222 17.2144 26.0278 17.797L16.2149 27.4298C15.6218 28.0136 15.6218 28.9609 16.2162 29.5434L26.0278 39.1762C26.6209 39.7587 27.5861 39.7601 28.1792 39.1762L37.9921 29.5434C38.5865 28.9596 38.5865 28.0136 37.9921 27.4298L28.1805 17.797ZM37.4069 25.1625C37.0519 24.8125 37.0505 24.246 37.4069 23.896L43.2852 18.1243C43.6416 17.7756 44.2188 17.7756 44.5752 18.1256L50.4535 23.896C50.8099 24.2447 50.8099 24.8125 50.4535 25.1625L44.5752 30.9329C44.2188 31.2829 43.6416 31.2829 43.2852 30.9329L37.4069 25.1625Z" fill="#00277F"/>
<path fill-rule="evenodd" clip-rule="evenodd" d="M35.1294 65.4802L35.1426 63.4494L33.1437 63.436L33.1384 64.3245L34.1576 64.3312L34.1536 64.9992C33.8959 65.1849 33.5658 65.2757 33.1976 65.2731C32.3823 65.2677 31.8076 64.6358 31.8142 63.7807V63.7673C31.8195 62.9724 32.4086 62.3151 33.145 62.3204C33.6776 62.3231 33.9919 62.4994 34.3457 62.8027L34.9887 62.0252C34.5113 61.6083 34.0129 61.3772 33.1845 61.3718C31.7905 61.3625 30.7635 62.4447 30.7556 63.774V63.7874C30.7464 65.1689 31.7248 66.1976 33.1595 66.2083C34.0011 66.2136 34.6534 65.885 35.1294 65.4802ZM29.4445 65.9731L30.2914 61.3772L29.3103 61.1901L28.7883 64.0199L27.1905 60.7867L26.2726 60.6116L25.4244 65.2076L26.4067 65.3946L26.9459 62.4727L28.5976 65.8115L29.4445 65.9731ZM41.7559 63.5055L41.752 63.4935C41.5666 62.6999 40.9774 62.4914 40.0135 62.4714C39.1916 62.4567 38.9773 62.4059 38.9076 62.1067L38.9036 62.0933C38.8523 61.8729 39.0101 61.6484 39.3875 61.5576C39.765 61.4667 40.1937 61.5415 40.6566 61.7246L40.9919 60.8481C40.4501 60.5862 39.8452 60.5128 39.1929 60.6704C38.2776 60.8922 37.7529 61.595 37.9462 62.4206L37.9502 62.434C38.1606 63.3371 38.8024 63.4494 39.7597 63.4654C40.5527 63.4801 40.7368 63.5736 40.7959 63.8261L40.7999 63.8395C40.8617 64.1067 40.6566 64.3271 40.2542 64.4247C39.7413 64.5489 39.2692 64.4354 38.7879 64.1949L38.371 65.0446C39.022 65.4013 39.7636 65.4775 40.4409 65.3131C41.4075 65.0807 41.9663 64.41 41.7559 63.5055ZM23.9542 64.7159L25.3968 60.2749L24.4355 59.953L22.9928 64.3926L23.9542 64.7159ZM21.52 63.8916L23.5189 59.6791L22.6075 59.2328L21.8159 60.8989L20.1339 60.0759L20.9256 58.4085L20.013 57.9623L18.0141 62.1735L18.9267 62.621L19.7289 60.9296L21.4108 61.7539L20.6086 63.4454L21.52 63.8916ZM46.7387 62.1668L45.8931 61.8114C45.6866 62.2603 45.471 62.585 44.9857 62.7907C44.2585 63.102 43.4997 62.6998 43.1946 61.961L43.1894 61.949C42.8843 61.2102 43.1512 60.3858 43.8666 60.0812C44.29 59.9009 44.7003 59.9423 45.1527 60.1053L45.4591 59.1553C44.9016 58.9296 44.3111 58.8628 43.5102 59.2035C42.207 59.7592 41.7125 61.1514 42.2188 62.3779L42.2241 62.3899C42.7357 63.6271 44.0678 64.2123 45.3171 63.6792C46.1351 63.3305 46.498 62.8281 46.7387 62.1668ZM51.3676 60.1507L48.8901 56.2107L48.0366 56.7638L49.0176 58.323L47.4435 59.3451L46.4625 57.7859L45.609 58.339L48.0866 62.2803L48.9401 61.7259L47.9459 60.144L49.52 59.1233L50.5142 60.7052L51.3676 60.1507ZM17.6958 60.3738L17.7037 60.3618C18.1653 59.6951 17.9273 59.1099 17.3026 58.3617C16.77 57.7271 16.6648 57.5307 16.8384 57.2782L16.8463 57.2675C16.9752 57.0818 17.2435 57.0538 17.5617 57.2809C17.8786 57.5067 18.1087 57.8834 18.2797 58.3564L19.149 58.0304C18.982 57.4452 18.6348 56.9362 18.0864 56.5447C17.3171 55.9956 16.4505 56.0624 15.9705 56.7572L15.9626 56.7678C15.4379 57.5267 15.7798 58.0905 16.4018 58.828C16.9173 59.4413 16.9713 59.643 16.824 59.8568L16.8161 59.8675C16.6609 60.0919 16.3624 60.0826 16.0231 59.8407C15.5931 59.5334 15.3629 59.0992 15.2209 58.5728L14.3188 58.8187C14.4871 59.5508 14.9224 60.1641 15.4931 60.5716C16.3058 61.1514 17.1698 61.1327 17.6958 60.3738ZM13.0143 58.5381L16.0744 55.0457L15.3182 54.3617L12.2581 57.854L13.0143 58.5381ZM54.4317 54.2681L54.4225 54.2588C53.5296 53.2875 52.062 53.21 51.0244 54.1947C49.9868 55.1806 49.9658 56.6917 50.8587 57.663L50.8679 57.6723C51.7621 58.6436 53.2297 58.7225 54.266 57.7365C55.3036 56.7505 55.3259 55.2394 54.4317 54.2681ZM53.6676 55.0123C54.2068 55.5988 54.2344 56.4686 53.6387 57.0351C53.043 57.6002 52.1711 57.5134 51.632 56.9282L51.6227 56.9188C51.0849 56.3336 51.0573 55.4625 51.653 54.8974C52.2487 54.3309 53.1206 54.4178 53.6584 55.0029L53.6676 55.0123ZM11.0982 56.8053L14.5844 53.7511L13.9309 52.9829L11.7847 54.8627L12.5224 51.3235L11.9136 50.6047L8.42738 53.6589L9.08095 54.4271L11.2955 52.4859L10.5354 56.1426L11.0982 56.8053ZM57.7351 49.743L57.7233 49.735C56.6633 48.9561 55.2089 49.1631 54.3764 50.3322C53.5427 51.5012 53.8057 52.9895 54.8656 53.7684L54.8762 53.7765C55.9361 54.5567 57.3919 54.3483 58.2243 53.1793C59.0567 52.0102 58.795 50.5219 57.7351 49.743ZM57.1249 50.6221C57.764 51.0924 57.9534 51.9407 57.476 52.6128C56.9973 53.2835 56.1255 53.3676 55.4864 52.8973L55.4758 52.8907C54.8367 52.4204 54.6461 51.5707 55.1247 50.9C55.6021 50.228 56.4753 50.1438 57.1131 50.6141L57.1249 50.6221ZM7.57918 52.3429L11.4296 49.7817L10.8747 48.9213L7.02423 51.4825L7.57918 52.3429ZM61.6566 46.9106L60.8281 46.5031L59.8273 48.6007L56.5134 46.968L56.0716 47.8939L60.214 49.934L61.6566 46.9106ZM9.628 48.7369L10.4499 48.3161L8.8758 45.1363L4.76366 47.2366L5.21866 48.1558L6.80986 47.3421L7.79747 49.3355L8.61937 48.916L7.63309 46.9226L8.50761 46.475L9.628 48.7369ZM40.6132 41.843C40.6026 41.8737 40.5816 41.9044 40.5487 41.9352C40.3488 42.1957 40.1845 42.3867 40.0582 42.5123C39.2863 43.2685 38.417 43.6453 37.4505 43.64C36.4826 43.6346 35.5976 43.2378 34.7941 42.4495C33.9275 41.5985 33.5001 40.6072 33.5106 39.4769C33.5211 38.3452 33.9748 37.3392 34.873 36.4574C35.8987 35.4501 37.0691 34.9704 38.3855 35.0172C39.7005 35.0639 40.9091 35.6264 42.0084 36.7059C43.5405 38.2103 44.2914 40.1048 44.2585 42.3868C44.2269 44.67 43.3919 46.7917 41.7546 48.753L39.7097 46.7449C40.4277 45.8939 40.8617 45.0695 41.009 44.2706C41.1576 43.4716 41.0248 42.662 40.6132 41.843ZM26.2805 45.7121C26.4093 45.7188 26.5303 45.779 26.6158 45.8765C26.7013 45.974 26.7434 46.1036 26.7355 46.2345C26.7171 46.5084 26.4843 46.7182 26.2134 46.7035C24.9365 46.6327 21.5949 46.451 21.5949 46.451C21.5949 46.451 21.3753 43.2899 21.2859 42.0233C21.2767 41.8871 21.3214 41.7535 21.4095 41.6506C21.4989 41.5477 21.6239 41.4849 21.758 41.4756C22.0368 41.4582 22.2761 41.6706 22.2972 41.9525C22.3761 43.0441 22.5562 45.5077 22.5562 45.5077C22.5562 45.5077 25.1719 45.6507 26.2805 45.7121ZM5.36331 31.5248L6.40747 33.6504L8.72063 34.0018L7.05184 35.6678L7.43846 38.0112L5.36331 36.9143L3.2895 38.0112L3.6748 35.6678L2.00732 34.0018L4.32049 33.6504L5.36331 31.5248ZM61.6395 31.5248L62.6836 33.6504L64.9968 34.0018L63.328 35.6678L63.7146 38.0112L61.6395 36.9143L59.5657 38.0112L59.951 35.6678L58.2835 34.0018L60.5953 33.6504L61.6395 31.5248ZM24.108 31.4446C23.2624 30.6136 22.8416 29.6303 22.8469 28.4946C22.8521 27.3577 23.2782 26.3757 24.1238 25.5447C24.9694 24.715 25.9675 24.2995 27.1195 24.2995C28.2714 24.2995 29.2709 24.715 30.1165 25.5447C30.962 26.3757 31.3815 27.3537 31.3763 28.4786C31.371 29.6049 30.9463 30.5829 30.1007 31.4125C29.2551 32.2436 28.253 32.6604 27.0958 32.6658C25.9385 32.6711 24.9431 32.2636 24.108 31.4446ZM44.6477 27.6422C44.6556 27.7785 44.7161 27.9068 44.8174 27.9963C44.9173 28.0871 45.0488 28.1326 45.183 28.1246C45.1843 28.1246 45.1843 28.1246 45.1843 28.1246C45.4618 28.1072 45.6735 27.864 45.6577 27.5821C45.5854 26.3049 45.4026 23.0783 45.4026 23.0783C45.4026 23.0783 42.115 22.8579 40.8525 22.7724C40.5842 22.755 40.3528 22.9608 40.3344 23.2333C40.316 23.5085 40.5211 23.7464 40.792 23.7651C41.8875 23.8426 44.4413 24.0216 44.4413 24.0216C44.4413 24.0216 44.5846 26.5347 44.6477 27.6422ZM56.0189 24.2982L61.5855 20.8485L60.8478 19.6207L57.4208 21.7437L59.2566 16.97L58.5688 15.8237L53.0022 19.272L53.7387 20.5011L57.2774 18.3074L55.3838 23.24L56.0189 24.2982ZM11.7058 19.2038L11.6887 19.1945C10.7011 18.624 9.91997 19.0435 8.96656 20.0389C8.15912 20.8899 7.89872 21.0663 7.52656 20.8512L7.5108 20.8418C7.23464 20.6842 7.15966 20.3021 7.43056 19.8171C7.70278 19.3308 8.19331 18.9513 8.82716 18.6414L8.25642 17.4416C7.46739 17.7596 6.80856 18.3247 6.33908 19.1638C5.68024 20.3408 5.89197 21.5726 6.92034 22.1672L6.9361 22.1765C8.06178 22.8258 8.7969 22.2594 9.73716 21.268C10.5183 20.445 10.7905 20.3408 11.1061 20.5238L11.1232 20.5332C11.4546 20.7256 11.4822 21.1545 11.1929 21.6728C10.8247 22.3315 10.2527 22.7203 9.54254 22.9955L10.0068 24.2527C10.9996 23.9134 11.7926 23.2053 12.2805 22.3328C12.9748 21.0917 12.8315 19.8545 11.7058 19.2038ZM17.6866 15.479L16.7753 14.5705L14.2977 17.1383L13.3194 16.163L15.4721 13.9345L14.5607 13.026L12.408 15.2558L11.4638 14.3153L13.9098 11.7808L12.9985 10.8737L9.5557 14.4409L14.2096 19.0796L17.6866 15.479ZM52.0777 18.2138L52.9483 17.2653L50.359 14.8136L51.2927 13.7956L53.5414 15.9252L54.412 14.978L52.1632 12.8483L53.0653 11.865L55.6205 14.2845L56.4911 13.336L52.8931 9.92907L48.4469 14.7749L52.0777 18.2138ZM24.4394 11.3039L21.2741 5.51214L19.9222 6.27501L19.7618 9.56834L16.9252 7.9651L15.5734 8.72797L18.7387 14.5197L19.9682 13.8263L17.9154 10.0694L20.8414 11.6218L20.8743 11.6045L21.1268 8.22562L23.1927 12.0066L24.4394 11.3039ZM47.4619 14.0668L48.0958 12.9084L45.2527 11.3052L47.7854 6.67181L46.5322 5.96504L43.3656 11.7554L47.4619 14.0668ZM27.5363 10.5156L25.7728 4.13735L24.392 4.53148L26.1555 10.9097L27.5363 10.5156ZM42.7935 7.85554L42.7975 7.83817C43.1894 5.99711 42.0939 4.19747 40.1279 3.76593C38.1619 3.33305 36.4116 4.52747 36.0197 6.36719L36.0158 6.3859C35.6239 8.22695 36.718 10.0253 38.684 10.4581C40.65 10.8897 42.4016 9.6966 42.7935 7.85554ZM35.1412 9.66052L32.1693 6.00245L34.6744 3.05249L32.9438 3.14601L30.4531 6.18016L30.3019 3.28897L28.8698 3.36512L29.2157 9.98118L30.6477 9.90369L30.5425 7.88093L31.254 7.04591L33.4199 9.75406L35.1412 9.66052ZM41.3233 7.55225C41.0866 8.6625 40.1108 9.39733 38.9825 9.14883C37.8529 8.90032 37.248 7.79943 37.4847 6.68918L37.4886 6.67181C37.7253 5.56156 38.7011 4.82675 39.8307 5.07525C40.959 5.32242 41.5626 6.42465 41.3272 7.53356L41.3233 7.55225Z" fill="white"/>
</svg>
