<svg width="21" height="21" viewBox="0 0 21 21" fill="none" xmlns="http://www.w3.org/2000/svg">
<path d="M13.7819 14.0558C13.0751 13.8566 12.3598 13.7233 11.6366 13.6481V11.7686H14.1607C14.0892 12.5535 13.9645 13.3455 13.7819 14.0558Z" stroke="#8C9EDB"/>
<path d="M12.924 16.3458C12.8856 16.4172 12.8478 16.4843 12.8168 16.536L12.8166 16.536L12.8101 16.5475C12.4376 17.2074 12.0491 17.7101 11.6217 18.0696V16.0969C12.0631 16.1554 12.4944 16.2384 12.924 16.3458Z" stroke="#8C9EDB"/>
<path d="M7.89662 16.3359C8.31849 16.2333 8.74765 16.1572 9.18115 16.1007V18.0332C8.78569 17.691 8.38781 17.2022 7.99263 16.5031L7.99278 16.503L7.9861 16.4918C7.95731 16.4439 7.92685 16.3908 7.89662 16.3359Z" stroke="#8C9EDB"/>
<path d="M9.21078 13.648C8.48323 13.7235 7.75567 13.8576 7.05087 14.0588C6.8648 13.344 6.73213 12.5498 6.66802 11.7686H9.21078V13.648Z" stroke="#8C9EDB"/>
<path d="M12.8316 4.6199C12.8592 4.66582 12.8897 4.72294 12.9212 4.78531C12.4961 4.89917 12.0601 4.98239 11.6217 5.03476V3.05783C12.0331 3.40737 12.4366 3.91579 12.8242 4.60716L12.8278 4.61358L12.8316 4.6199Z" stroke="#8C9EDB"/>
<path d="M11.6365 9.34249V7.48103C12.383 7.40768 13.1031 7.24426 13.7934 7.03996C13.9693 7.75011 14.1003 8.56652 14.1642 9.34249H11.6365Z" stroke="#8C9EDB"/>
<path d="M9.19592 5.03492C8.75908 4.98274 8.32472 4.89994 7.9011 4.78672C7.93051 4.73119 7.95946 4.67917 7.98602 4.63491L7.98981 4.62859L7.99341 4.62216C8.38089 3.93099 8.78264 3.41749 9.19592 3.06558V5.03492Z" stroke="#8C9EDB"/>
<path d="M6.66793 9.35787C6.73146 8.57685 6.86183 7.76828 7.03759 7.05043C7.72631 7.24518 8.44759 7.40814 9.19592 7.48157V9.35787H6.66793Z" stroke="#8C9EDB"/>
<path d="M6.4716 18.6348L6.54814 18.7387L6.66538 18.7926C7.83524 19.3301 9.05081 19.5808 10.4088 19.5808C11.7669 19.5808 12.9846 19.33 14.1573 18.7754L14.2736 18.7204L14.3489 18.6161C14.5515 18.3356 14.7561 18.0212 14.9312 17.7029L14.932 17.7014C14.9985 17.5795 15.0894 17.4088 15.1697 17.2534C15.2097 17.2748 15.2405 17.2914 15.2619 17.3036C15.3209 17.3447 15.3829 17.3834 15.4328 17.4146L15.4385 17.4181C15.501 17.4572 15.5466 17.4859 15.5837 17.5124L15.8991 17.7377L16.1959 17.4884C16.5893 17.1579 16.9514 16.7958 17.2819 16.4024L17.6176 16.0027L17.2039 15.6845C17.0328 15.5529 16.8373 15.4292 16.6694 15.323C16.626 15.2955 16.5844 15.2693 16.5456 15.2443C16.3917 15.1454 16.2075 15.0489 16.0456 14.9656C16.3217 13.9226 16.5067 12.8475 16.5907 11.7688H18.8298C18.957 11.7688 19.0887 11.7281 19.198 11.6431C19.3033 11.5611 19.4015 11.4238 19.4168 11.2436C19.4788 10.7816 19.4792 10.3176 19.4167 9.86654C19.4009 9.68718 19.303 9.55046 19.198 9.46879C19.0887 9.38378 18.957 9.34304 18.8298 9.34304H16.591C16.5076 8.26034 16.3235 7.18964 16.0385 6.15003C16.4302 5.94023 16.8062 5.70309 17.1649 5.45967L17.6125 5.15596L17.2746 4.73359C16.9504 4.3283 16.5678 3.96324 16.181 3.63832L15.894 3.3972L15.5821 3.60514C15.4594 3.68694 15.3204 3.76962 15.1759 3.8525C15.1068 3.71009 15.0324 3.56371 14.9569 3.43151L14.9569 3.4315L14.9555 3.42906C14.8519 3.25008 14.7383 3.06427 14.6262 2.88092C14.56 2.77277 14.4944 2.66547 14.4317 2.56093L14.3522 2.42838L14.2117 2.36384C13.0582 1.83387 11.7991 1.50133 10.4237 1.50133C9.11792 1.50133 7.84276 1.78468 6.66268 2.33538L6.54132 2.39202L6.46451 2.50174C6.24758 2.81165 6.06121 3.10676 5.87564 3.43151L5.87556 3.43146L5.87081 3.44015C5.80592 3.55912 5.73684 3.70103 5.67453 3.82904C5.67054 3.83722 5.66659 3.84534 5.66267 3.85339C5.50661 3.76708 5.34441 3.67273 5.22075 3.59029L4.90884 3.38235L4.62181 3.62346C4.23491 3.94846 3.8556 4.31085 3.53452 4.69614L3.18965 5.10999L3.62802 5.4231C3.99908 5.68815 4.39 5.92886 4.78112 6.14567C4.49642 7.19327 4.31202 8.26228 4.22785 9.34304H1.98791C1.65582 9.34304 1.48129 9.58869 1.42446 9.75919L1.40456 9.8189L1.40007 9.88168C1.38531 10.0884 1.3691 10.3278 1.3691 10.5559C1.3691 10.7962 1.38481 11.0208 1.4156 11.257C1.4305 11.4379 1.52889 11.5758 1.63453 11.6579C1.74382 11.7429 1.87556 11.7837 2.00276 11.7837H4.2386C4.31276 12.8647 4.50554 13.9395 4.78754 14.9802C4.37007 15.2044 3.97819 15.4564 3.60506 15.7137L3.15241 16.0259L3.50608 16.4469C3.84574 16.8513 4.22999 17.2024 4.63855 17.5167L4.92259 17.7352L5.22075 17.5364C5.34251 17.4552 5.50717 17.3559 5.65899 17.2697C5.73466 17.421 5.82305 17.5866 5.88566 17.7014L5.88651 17.7029C6.05561 18.0104 6.24572 18.3283 6.4716 18.6348ZM17.1085 3.86841L17.1098 3.86976L17.1414 3.90132L17.1821 3.94199C17.1824 3.94234 17.1828 3.94269 17.1831 3.94304C20.8492 7.65256 20.8213 13.6472 17.1119 17.3291C13.3868 20.9971 7.4057 20.9682 3.72402 17.2583L3.72267 17.2569L3.68554 17.2198L3.65044 17.1847C3.65007 17.1843 3.6497 17.184 3.64934 17.1836C-0.0169177 13.4738 0.0112181 7.47874 3.72132 3.79685C7.42998 0.116398 13.4254 0.15707 17.1085 3.86841Z" stroke="#8C9EDB"/>
</svg>
