<svg width="176" height="181" viewBox="0 0 176 181" fill="none" xmlns="http://www.w3.org/2000/svg">
<path d="M85.8182 90.0514C84.1065 87.593 81.4015 86.79 79.246 84.7612C78.4993 85.7192 77.8371 86.473 77.2736 87.3042C72.1595 94.8415 66.9679 102.33 62.0017 109.958C59.6912 113.509 56.4368 115.946 53.2176 118.454C45.476 124.491 37.6287 130.394 29.8731 136.416C27.0624 138.6 24.0193 139.657 20.4409 139.354C15.0309 138.896 10.0788 134.374 9.56459 128.795C9.14194 124.23 10.4662 120.468 14.0588 117.601C17.9895 114.467 21.9695 111.395 25.9353 108.31C30.5493 104.717 35.1844 101.153 39.7843 97.5535C40.4042 97.0745 40.8973 96.4405 41.6721 95.6516C40.1083 94.6795 38.7769 93.813 37.4033 93.01C24.6251 85.5361 16.2495 74.4556 11.3397 60.7052C9.54346 55.6757 8.60658 50.3784 8.19097 45.0178C8.09939 43.8696 7.72605 42.7425 7.58516 41.5872C7.20478 38.5653 8.36003 37.1917 11.5792 36.5577C12.2625 36.4238 12.9881 36.5084 13.6925 36.5084C29.2039 36.4802 43.8981 32.7749 57.9513 26.4211C64.6574 23.385 71.5678 20.9688 78.7881 19.6868C83.9445 18.771 89.1713 18.1371 94.4474 18.1793C99.0261 18.2145 103.605 18.1511 108.184 18.2005C110.381 18.2286 112.579 18.4188 115.038 18.5527C115.108 18.2145 115.312 17.6862 115.305 17.165C115.277 14.1148 116.348 11.4591 118.158 9.07115C120.659 5.76742 123.47 2.61161 127.471 1.31547C137.128 -1.8192 146.3 2.79476 148.484 13.2413C148.568 13.6499 148.639 14.0585 148.793 14.8897C151.048 12.1495 153.048 9.71922 155.042 7.28192C156.387 5.64062 157.902 4.267 159.825 3.24559C166.489 -0.27652 175.252 4.06976 175.815 13.037C175.949 15.1785 175.273 17.4256 173.843 19.243C172.328 21.1731 170.842 23.1314 169.271 25.0122C166.496 28.3371 163.868 31.824 160.818 34.8741C154.344 41.3477 146.793 46.0674 137.628 47.758C134.205 48.392 130.753 48.8921 127.323 49.4486C119.983 56.8309 112.544 64.3119 104.95 71.9408C105.612 72.9269 106.324 73.9413 106.993 74.9698C113.551 85.1346 112.178 98.2791 104.105 106.598C97.5609 113.34 90.7351 119.799 84.2403 126.583C78.4641 132.62 66.7284 131.373 63.6571 120.954C62.3117 116.39 63.8121 112.396 67.0172 109.099C72.4201 103.548 77.9639 98.1241 83.4302 92.6367C84.2403 91.8407 84.987 90.9601 85.8182 90.0514ZM94.7644 25.7307C94.6939 25.5264 94.6164 25.3222 94.546 25.1108C91.8903 25.3574 89.2276 25.5687 86.579 25.8646C84.036 26.1463 81.4649 26.3717 78.9642 26.8719C71.8636 28.3089 65.1575 30.9082 58.5501 33.8316C45.4267 39.6571 31.6834 42.8834 17.3484 43.5385C16.6792 43.5667 16.0241 43.7146 15.3761 43.7991C16.0946 63.5441 28.8235 82.2676 45.8141 89.2907C48.984 84.4513 52.3159 79.6612 55.3308 74.688C58.6909 69.1513 63.1781 64.2062 64.6503 57.6269C64.749 57.1902 65.0166 56.7605 65.2984 56.3942C66.7354 54.5556 68.0527 52.5974 69.6799 50.949C77.182 43.3342 84.7757 35.811 92.3341 28.2525C93.1653 27.4284 93.9543 26.569 94.7644 25.7307ZM76.8439 54.0766C75.3716 55.563 73.8783 56.9014 72.5962 58.4088C71.1381 60.1206 70.2998 62.0859 70.2223 64.4528C70.0885 68.5807 72.3708 71.2293 75.3576 73.4834C77.2172 74.8852 79.1966 76.125 81.1127 77.4634C83.6979 79.2667 86.2972 81.0489 88.8331 82.9297C92.3411 85.522 94.0177 89.9106 91.362 94.3273C90.7703 95.3135 89.8968 96.1447 89.0726 96.9689C83.7754 102.287 78.457 107.584 73.1527 112.896C72.4906 113.558 71.7509 114.185 71.2578 114.96C70.2857 116.495 69.8983 118.094 70.7788 119.912C72.5187 123.518 76.4142 124.314 79.4291 121.356C86.1282 114.791 92.7638 108.148 99.3149 101.435C102.45 98.2227 103.851 94.123 104.035 89.6992C104.267 84.0216 102.02 79.2315 98.0892 75.2515C91.4958 68.5736 84.825 61.9732 78.1893 55.3446C77.7808 54.9501 77.3581 54.5697 76.8439 54.0766ZM64.7912 73.3355C64.7842 73.3426 64.5799 73.4764 64.4531 73.6666C59.5715 81.1969 54.725 88.7483 49.7941 96.2503C48.4627 98.272 47.4836 100.547 45.4619 102.097C38.0443 107.775 30.662 113.495 23.2938 119.229C21.3566 120.736 19.4406 122.279 17.6584 123.955C16.0805 125.442 16.3904 127.442 16.9469 129.224C17.5527 131.169 19.1025 132.169 21.1946 132.317C22.9416 132.436 24.3293 131.76 25.6747 130.718C34.6349 123.793 43.6375 116.925 52.5695 109.972C53.7389 109.064 54.718 107.831 55.5704 106.598C60.0152 100.167 64.3968 93.7003 68.7853 87.2337C70.2646 85.0571 71.6805 82.8452 72.9273 80.9503C70.0321 78.2453 67.4187 75.7939 64.7912 73.3355ZM82.3243 48.5258C88.495 54.7106 94.3417 60.5714 100.202 66.4463C104.091 63.1918 116.658 50.4066 118.186 48.0327C112.114 46.9761 107.106 44.4824 106.282 37.72C105.634 32.4016 108.085 28.4991 113.023 26.2238C112.459 25.1531 111.459 25.1813 110.55 25.294C107.388 25.6885 104.38 26.4985 102.027 28.8724C99.7164 31.2111 97.3778 33.5146 95.0461 35.8321C90.7351 40.1361 86.424 44.4402 82.3243 48.5258ZM127.513 42.1367C130.084 41.8408 132.796 41.7774 135.388 41.1857C143.165 39.4106 150.047 35.9096 155.5 29.9291C158.021 27.1607 160.508 24.3641 162.938 21.5183C164.608 19.567 166.277 17.6017 167.721 15.4814C169.419 12.9948 168.461 10.3743 165.608 9.41632C163.678 8.76825 162.29 9.88828 161.135 11.2549C158.648 14.1993 156.274 17.2424 153.731 20.1376C150.336 24.0119 146.934 27.8933 142.242 30.3165C139.122 31.9296 135.867 33.2892 132.38 33.5639C127.619 33.9372 122.807 34.1274 118.137 32.5847C117.538 32.3875 116.756 32.4227 116.144 32.62C114.256 33.2328 113.115 34.7825 113.298 36.5506C113.474 38.2694 114.242 39.5162 116.108 40.115C119.799 41.2984 123.582 41.7493 127.513 42.1367ZM133.05 7.33123C132.028 7.53551 130.936 7.56369 130.007 7.97225C126.661 9.43041 124.104 11.8818 122.836 15.2701C121.589 18.5879 122.258 21.6873 124.822 24.3007C127.189 26.7099 130.796 27.2804 133.874 25.8575C136.713 24.5402 138.741 22.2861 140.397 19.7079C143.701 14.5516 139.333 6.75361 133.05 7.33123Z" fill="url(#paint0_linear_1021_536)"/>
<path d="M147.807 89.3541C149.195 92.0379 148.639 93.9328 146.701 95.8629C119.166 123.307 91.686 150.801 64.1925 178.287C63.2063 179.273 62.3398 180.422 60.6915 180.344C59.339 180.281 58.2331 180.069 57.4864 178.682C56.7679 177.35 56.8876 176.181 57.6766 175.075C58.3528 174.131 59.2193 173.314 60.0505 172.483C85.7971 146.736 111.544 120.997 137.304 95.2642C138.213 94.3555 139.242 93.5524 140.376 92.5592C139.573 91.6152 139.009 90.9179 138.417 90.2487C135.945 87.4521 136.783 84.564 140.425 83.7187C148.793 81.7745 157.183 79.9219 165.559 78.0129C167.369 77.5973 169.144 77.0126 170.969 76.6886C173.216 76.287 174.505 76.8999 175.315 78.7173C175.611 79.3865 175.716 80.2811 175.561 80.9996C174.265 87.0154 172.892 93.01 171.532 99.0117C170.666 102.858 169.806 106.711 168.919 110.557C168.707 111.466 168.524 112.396 168.165 113.241C167.263 115.361 164.699 116.045 162.91 114.636C161.987 113.917 161.198 113.03 160.163 112.043C159.275 112.868 158.345 113.678 157.479 114.551C139.368 132.648 121.265 150.751 103.154 168.848C102.006 169.996 101.006 171.306 99.0543 171.215C97.5961 171.144 96.4972 170.616 95.9267 169.355C95.3842 168.137 95.3913 166.833 96.3775 165.749C96.9269 165.143 97.5045 164.558 98.0892 163.973C117.44 144.623 136.797 125.28 156.148 105.936C156.563 105.521 156.986 105.112 157.394 104.696C158.578 103.499 159.874 102.978 161.494 103.865C161.882 104.076 162.368 104.098 163.009 104.26C164.481 97.8705 165.918 91.6012 167.468 84.8599C160.684 86.3955 154.281 87.8677 147.807 89.3541Z" fill="url(#paint1_linear_1021_536)"/>
<path d="M39.897 137.177C43.2148 137.304 44.7857 140.263 43.3345 142.503C42.8978 143.179 42.2709 143.742 41.6932 144.32C33.4938 152.527 25.2943 160.726 17.0878 168.926C16.5877 169.419 16.1157 169.954 15.5592 170.377C14.1645 171.44 12.2977 171.306 11.1073 170.123C9.74774 168.771 9.52232 167.263 10.5085 165.742C10.8255 165.255 11.2482 164.833 11.6567 164.417C20.2718 155.795 28.8728 147.173 37.5301 138.6C38.2979 137.846 39.425 137.459 39.897 137.177Z" fill="url(#paint2_linear_1021_536)"/>
<path d="M68.7853 141.467C68.4824 141.869 67.9611 142.77 67.2567 143.489C64.3122 146.504 61.3114 149.462 58.3317 152.442C55.6831 155.091 53.0978 157.81 50.3506 160.353C48.1528 162.396 46.8919 161.909 45.1872 160.402C44.0883 159.437 43.8699 158.254 44.5602 156.915C45.0322 156.006 45.6944 155.147 46.4199 154.414C51.527 149.258 56.6833 144.151 61.7974 138.995C62.9104 137.875 64.0164 136.931 65.7492 137.205C67.5385 137.494 68.9262 139.107 68.7853 141.467Z" fill="url(#paint3_linear_1021_536)"/>
<path d="M3.894 173.758C6.11997 173.716 7.50768 174.969 7.52177 177.019C7.52881 179.055 6.13406 180.344 3.93626 180.316C1.89344 180.288 0.59026 179.118 0.491641 177.231C0.385978 175.167 1.73142 173.8 3.894 173.758Z" fill="url(#paint4_linear_1021_536)"/>
<path d="M89.8898 180.316C87.8188 180.295 86.5367 179.104 86.4733 177.153C86.4099 175.026 87.7483 173.737 89.9954 173.751C91.996 173.765 93.3907 175.026 93.4894 176.907C93.588 178.823 91.996 180.33 89.8898 180.316Z" fill="url(#paint5_linear_1021_536)"/>
<defs>
<linearGradient id="paint0_linear_1021_536" x1="19.5586" y1="-8.98369" x2="-20.778" y2="174.61" gradientUnits="userSpaceOnUse">
<stop stop-color="#6E2FFF"/>
<stop offset="1" stop-color="#00277F"/>
</linearGradient>
<linearGradient id="paint1_linear_1021_536" x1="19.5586" y1="-8.98369" x2="-20.778" y2="174.61" gradientUnits="userSpaceOnUse">
<stop stop-color="#6E2FFF"/>
<stop offset="1" stop-color="#00277F"/>
</linearGradient>
<linearGradient id="paint2_linear_1021_536" x1="19.5586" y1="-8.98369" x2="-20.778" y2="174.61" gradientUnits="userSpaceOnUse">
<stop stop-color="#6E2FFF"/>
<stop offset="1" stop-color="#00277F"/>
</linearGradient>
<linearGradient id="paint3_linear_1021_536" x1="19.5586" y1="-8.98369" x2="-20.778" y2="174.61" gradientUnits="userSpaceOnUse">
<stop stop-color="#6E2FFF"/>
<stop offset="1" stop-color="#00277F"/>
</linearGradient>
<linearGradient id="paint4_linear_1021_536" x1="19.5586" y1="-8.98369" x2="-20.778" y2="174.61" gradientUnits="userSpaceOnUse">
<stop stop-color="#6E2FFF"/>
<stop offset="1" stop-color="#00277F"/>
</linearGradient>
<linearGradient id="paint5_linear_1021_536" x1="19.5586" y1="-8.98369" x2="-20.778" y2="174.61" gradientUnits="userSpaceOnUse">
<stop stop-color="#6E2FFF"/>
<stop offset="1" stop-color="#00277F"/>
</linearGradient>
</defs>
</svg>
