<svg width="272" height="53" viewBox="0 0 272 53" fill="none" xmlns="http://www.w3.org/2000/svg">
<path d="M13.2356 12.691C13.2356 6.06362 18.6082 0.69104 25.2356 0.69104H259.243C265.87 0.69104 271.243 6.06362 271.243 12.691V40.7781C271.243 47.4055 265.87 52.778 259.243 52.778H47.6165C40.9891 52.778 13.2356 37.2144 13.2356 30.587V12.691Z" fill="white" fill-opacity="0.6"/>
<path d="M45.5175 52.6795C35.8274 52.0584 26.5578 48.4939 18.9481 42.4627C15.3888 39.6288 12.2432 36.3113 9.60269 32.6064C5.01182 26.1503 2.10733 18.6492 1.15327 10.7849C0.890922 8.68866 0.799586 6.57456 0.880119 4.46353C1.00232 3.60089 1.39331 2.79871 1.99749 2.17098C2.60168 1.54326 3.38832 1.12192 4.24566 0.966846C4.56255 0.906747 6.85452 0.865784 9.81578 0.865784C15.1947 0.865784 15.6345 0.901284 16.4813 1.38208C17.123 1.78987 17.6728 2.32666 18.0958 2.95833C18.5429 3.88372 18.7496 4.90685 18.6968 5.93323C18.7851 8.43921 19.1777 10.9252 19.866 13.3364C20.2501 14.2664 20.392 15.2787 20.2785 16.2785C20.1037 17.1991 19.7158 17.8138 17.2927 20.9936C16.0197 22.6681 14.9543 24.0941 14.9269 24.1652C15.4658 25.4422 16.1467 26.6546 16.9567 27.7793C19.7582 32.0307 23.5551 35.534 28.0176 37.9853C29.0421 38.5699 29.3562 38.7065 29.4874 38.6218C29.6185 38.5371 31.0007 37.4963 32.6453 36.2478C34.2898 34.9994 35.9043 33.8439 36.2321 33.6772C36.699 33.4277 37.2252 33.3106 37.7537 33.3385C38.552 33.2959 39.3504 33.4206 40.0976 33.7045C42.5869 34.4274 45.1561 34.8394 47.7466 34.9311C48.4619 34.9445 49.174 35.0306 49.8719 35.1879C50.5709 35.4278 51.1929 35.8505 51.6733 36.4121C52.1537 36.9737 52.4749 37.6536 52.6037 38.3814C52.7403 39.0944 52.7403 48.6228 52.6037 49.3495C52.4493 50.178 52.0473 50.9403 51.4509 51.5358C50.8545 52.1312 50.0915 52.5319 49.2627 52.685C48.0138 52.8092 46.7555 52.8092 45.5065 52.685L45.5175 52.6795Z" fill="url(#paint0_linear_719_1976)"/>
<defs>
<linearGradient id="paint0_linear_719_1976" x1="30.658" y1="170.117" x2="-57.0778" y2="147.376" gradientUnits="userSpaceOnUse">
<stop stop-color="#00277F"/>
<stop offset="1" stop-color="#2059DB"/>
</linearGradient>
</defs>
</svg>
