<svg xmlns="http://www.w3.org/2000/svg" width="51" height="60" fill="none" viewBox="0 0 51 60">
  <path fill="#00277F" d="M44.82 43.64c5.132-7.087 5.925-13.828 5.925-18.685C50.745 11.173 39.573 0 25.791 0 12.008 0 .836 11.173.836 24.955c0 11.549 7.845 21.265 18.497 24.11 3.231.864 4.33 1.291 4.569 3.273.454 3.766-7.344 6.038-5.846 7.662 5.846-.553 18.282-4.646 26.764-16.36Z"/>
  <path fill="#fff" d="M10.644 33.105c1.883 3.406 7.951 5.9 15.146 5.9 7.196 0 13.264-2.494 15.147-5.9-4.079 1.448-9.368 2.32-15.147 2.32-5.778 0-11.067-.872-15.146-2.32Z"/>
  <ellipse cx="33.182" cy="19.837" fill="#fff" rx="3.178" ry="1.865"/>
  <ellipse cx="18.399" cy="19.837" fill="#fff" rx="3.178" ry="1.865"/>
</svg>
