<svg width="34" height="25" viewBox="0 0 34 25" fill="none" xmlns="http://www.w3.org/2000/svg">
<path d="M33.3595 2.94873C32.1221 3.4377 30.8128 3.75984 29.4731 3.90498C30.881 3.15522 31.9399 1.96409 32.451 0.554989C31.1198 1.26286 29.6659 1.75953 28.1514 2.02373C27.5137 1.41594 26.7468 0.932429 25.8972 0.60258C25.0476 0.272731 24.1331 0.103438 23.2093 0.104991C19.4692 0.104991 16.4425 2.81748 16.4425 6.16122C16.4399 6.62632 16.4985 7.09004 16.6171 7.54247C13.9352 7.42813 11.309 6.80596 8.90666 5.71576C6.5043 4.62556 4.37862 3.09133 2.66562 1.21124C2.06466 2.13256 1.74684 3.18376 1.74538 4.25498C1.74538 6.35497 2.95015 8.21122 4.76934 9.29871C3.69152 9.27545 2.63579 9.01603 1.69177 8.54246V8.61746C1.69177 11.555 4.02847 13.9987 7.12116 14.5549C6.53958 14.6959 5.94028 14.7674 5.33839 14.7674C4.91131 14.7681 4.4852 14.7304 4.06627 14.6549C4.92604 17.0612 7.42837 18.8112 10.3925 18.8612C7.98394 20.5493 5.0268 21.4616 1.98592 21.4549C1.44616 21.4542 0.906892 21.425 0.37085 21.3674C3.46435 23.1638 7.0603 24.114 10.7307 24.1049C23.1949 24.1049 30.0043 14.8737 30.0043 6.86747C30.0043 6.60497 29.9967 6.34247 29.983 6.08622C31.3047 5.23126 32.4481 4.1688 33.3595 2.94873V2.94873Z" fill="#8C9EDB"/>
</svg>
