<svg width="121" height="37" viewBox="0 0 121 37" fill="none" xmlns="http://www.w3.org/2000/svg">
<path d="M115.87 1.12853C116.862 1.12853 117.814 1.52264 118.515 2.22416C119.217 2.92568 119.611 3.87714 119.611 4.86924V31.5886C119.611 32.5807 119.217 33.5321 118.515 34.2336C117.814 34.9351 116.862 35.3293 115.87 35.3293H4.53952C3.54743 35.3293 2.59596 34.9351 1.89445 34.2336C1.19293 33.5321 0.798819 32.5807 0.798819 31.5886V4.86924C0.798819 3.87714 1.19293 2.92568 1.89445 2.22416C2.59596 1.52264 3.54743 1.12853 4.53952 1.12853H115.87ZM115.87 0.416016H4.53952C2.09025 0.416016 0.0863037 2.41996 0.0863037 4.86924V31.5886C0.0863037 34.0378 2.09025 36.0418 4.53952 36.0418H115.87C118.319 36.0418 120.323 34.0378 120.323 31.5886V4.86924C120.323 2.41996 118.319 0.416016 115.87 0.416016Z" fill="#8C9EDB"/>
<path d="M8.74109 8.44374V28.0135C8.74122 28.0559 8.75388 28.0974 8.77749 28.1327C8.8011 28.168 8.8346 28.1955 8.87379 28.2118C8.91299 28.2282 8.95613 28.2326 8.99781 28.2245C9.03949 28.2164 9.07785 28.1962 9.10808 28.1663L19.2978 18.2291L9.10808 8.29087C9.07785 8.26106 9.03949 8.24084 8.99781 8.23275C8.95613 8.22465 8.91299 8.22904 8.87379 8.24537C8.8346 8.2617 8.8011 8.28923 8.77749 8.32452C8.75388 8.35981 8.74122 8.40128 8.74109 8.44374ZM23.5703 14.1459L10.7937 7.10672L10.7857 7.10224C10.5656 6.98273 10.3565 7.28051 10.5367 7.4538L20.5521 17.0305L23.5703 14.1459ZM10.5377 29.0044C10.3565 29.1777 10.5656 29.4755 10.7867 29.356L10.7947 29.3515L23.5703 22.3124L20.5521 19.4267L10.5377 29.0044ZM28.7281 16.9842L25.1602 15.0193L21.8055 18.2291L25.1602 21.4374L28.7281 19.474C29.6986 18.9377 29.6986 17.5205 28.7281 16.9842Z" fill="#8C9EDB"/>
<path d="M42.3206 9.53625C42.3206 10.2844 42.098 10.8811 41.6527 11.3175C41.1539 11.843 40.5037 12.1102 39.6932 12.1102C38.9184 12.1102 38.2593 11.843 37.7249 11.3086C37.1905 10.7742 36.9233 10.1063 36.9233 9.3225C36.9233 8.53873 37.1905 7.87075 37.7249 7.33636C38.2593 6.80198 38.9184 6.52588 39.6932 6.52588C40.0851 6.52588 40.4592 6.59713 40.8065 6.73073C41.1539 6.87323 41.4389 7.06917 41.6616 7.31855L41.1717 7.80841C41.0114 7.61246 40.7976 7.45215 40.5304 7.34527C40.2665 7.23041 39.9811 7.17273 39.6932 7.17605C39.1143 7.17605 38.6156 7.3809 38.2148 7.78169C37.814 8.19138 37.618 8.69905 37.618 9.31359C37.618 9.92814 37.814 10.4358 38.2148 10.8455C38.6156 11.2463 39.1054 11.4511 39.6932 11.4511C40.2276 11.4511 40.664 11.2997 41.0203 11.0058C41.3766 10.7119 41.5814 10.2933 41.6348 9.77673H39.6932V9.13547H42.285C42.3028 9.27797 42.3206 9.41156 42.3206 9.53625ZM46.4265 6.65057V7.30964H43.9951V9.00187H46.186V9.64313H43.9951V11.3354H46.4265V11.9944H43.3093V6.65057H46.4265ZM49.3211 7.30964V11.9944H48.6353V7.30964H47.139V6.65057H50.8085V7.30964H49.3211ZM54.1573 11.9944H53.4715V6.65057H54.1573V11.9944ZM57.2033 7.30964V11.9944H56.5175V7.30964H55.0212V6.65057H58.6907V7.30964H57.2033ZM66.4304 9.3225C66.4304 10.1152 66.1632 10.7742 65.6377 11.3086C65.1033 11.843 64.4531 12.1102 63.6783 12.1102C62.9034 12.1102 62.2533 11.843 61.7189 11.3086C61.1934 10.7742 60.9262 10.1152 60.9262 9.3225C60.9262 8.52983 61.1934 7.87075 61.7189 7.33636C62.2443 6.80198 62.8945 6.52588 63.6783 6.52588C64.4531 6.52588 65.1033 6.79307 65.6377 7.33636C66.1721 7.87966 66.4304 8.53873 66.4304 9.3225ZM61.6387 9.3225C61.6387 9.93704 61.8347 10.4536 62.2176 10.8544C62.6095 11.2552 63.0994 11.46 63.6783 11.46C64.2572 11.46 64.7471 11.2552 65.13 10.8544C65.5219 10.4536 65.7179 9.94595 65.7179 9.3225C65.7179 8.69905 65.5219 8.19138 65.13 7.79059C64.7382 7.3898 64.2572 7.18496 63.6783 7.18496C63.0994 7.18496 62.6095 7.3898 62.2176 7.79059C61.8347 8.19138 61.6387 8.70796 61.6387 9.3225ZM68.0781 11.9944H67.3923V6.65057H68.2295L70.8302 10.8099H70.8569L70.8302 9.77673V6.65057H71.516V11.9944H70.8034L68.087 7.63918H68.0603L68.087 8.67233V11.9944H68.0781Z" fill="#8C9EDB"/>
<path d="M60.7748 19.7876C58.6817 19.7876 56.9717 21.3818 56.9717 23.5728C56.9717 25.7549 58.6817 27.3581 60.7748 27.3581C62.8678 27.3581 64.5778 25.7549 64.5778 23.5728C64.5778 21.3818 62.8678 19.7876 60.7748 19.7876ZM60.7748 25.8707C59.6258 25.8707 58.6372 24.9266 58.6372 23.5728C58.6372 22.2101 59.6258 21.275 60.7748 21.275C61.9237 21.275 62.9123 22.2101 62.9123 23.5728C62.9123 24.9266 61.9148 25.8707 60.7748 25.8707ZM52.474 19.7876C50.3809 19.7876 48.6709 21.3818 48.6709 23.5728C48.6709 25.7549 50.3809 27.3581 52.474 27.3581C54.567 27.3581 56.277 25.7549 56.277 23.5728C56.277 21.3818 54.567 19.7876 52.474 19.7876ZM52.474 25.8707C51.325 25.8707 50.3364 24.9266 50.3364 23.5728C50.3364 22.2101 51.325 21.275 52.474 21.275C53.6229 21.275 54.6115 22.2101 54.6115 23.5728C54.6115 24.9266 53.6229 25.8707 52.474 25.8707ZM42.6056 20.9543V22.5575H46.4532C46.3374 23.457 46.0346 24.125 45.5804 24.5793C45.0193 25.1404 44.1464 25.7549 42.6145 25.7549C40.2454 25.7549 38.3929 23.8489 38.3929 21.4798C38.3929 19.1107 40.2454 17.2047 42.6145 17.2047C43.8881 17.2047 44.8233 17.7035 45.5091 18.3537L46.6402 17.2225C45.6783 16.3052 44.4047 15.6016 42.6056 15.6016C39.3637 15.6016 36.6383 18.2379 36.6383 21.4887C36.6383 24.7307 39.3637 27.3759 42.6056 27.3759C44.3602 27.3759 45.6783 26.8059 46.7115 25.7282C47.7714 24.6683 48.1009 23.172 48.1009 21.9697C48.1009 21.5956 48.0742 21.2482 48.0118 20.9632H42.6056V20.9543ZM82.9607 22.2012C82.649 21.3551 81.6871 19.7876 79.7188 19.7876C77.7682 19.7876 76.1473 21.3195 76.1473 23.5728C76.1473 25.6926 77.7504 27.3581 79.9058 27.3581C81.6425 27.3581 82.649 26.2982 83.0587 25.6837L81.7672 24.8197C81.3397 25.4521 80.7519 25.8707 79.9058 25.8707C79.0597 25.8707 78.454 25.4877 78.0711 24.7218L83.1388 22.6287L82.9607 22.2012ZM77.795 23.466C77.7504 22.0053 78.9261 21.2572 79.7722 21.2572C80.4313 21.2572 80.9924 21.5867 81.1794 22.0587L77.795 23.466ZM73.6802 27.1354H75.3457V16.0024H73.6802V27.1354ZM70.9548 20.6337H70.8925C70.5184 20.1884 69.8059 19.7876 68.8974 19.7876C67.0004 19.7876 65.2636 21.4531 65.2636 23.5906C65.2636 25.7104 67.0004 27.367 68.8974 27.367C69.797 27.367 70.5184 26.9662 70.8925 26.503H70.9459V27.0463C70.9459 28.4981 70.1711 29.2729 68.9242 29.2729C67.9088 29.2729 67.2765 28.5426 67.0182 27.9281L65.5664 28.5337C65.985 29.5401 67.0894 30.7692 68.9242 30.7692C70.8747 30.7692 72.5224 29.6203 72.5224 26.8237V20.0192H70.9459V20.6337H70.9548ZM69.0399 25.8707C67.891 25.8707 66.9291 24.9088 66.9291 23.5906C66.9291 22.2547 67.891 21.2839 69.0399 21.2839C70.1711 21.2839 71.0617 22.2636 71.0617 23.5906C71.0706 24.9088 70.18 25.8707 69.0399 25.8707ZM90.7627 16.0024H86.7816V27.1354H88.4471V22.9137H90.7716C92.6153 22.9137 94.4233 21.5778 94.4233 19.4581C94.4144 17.3383 92.5975 16.0024 90.7627 16.0024ZM90.7984 21.364H88.4382V17.5432H90.7984C92.0453 17.5432 92.7489 18.5763 92.7489 19.4491C92.7489 20.322 92.0453 21.364 90.7984 21.364ZM101.076 19.7698C99.874 19.7698 98.6271 20.3042 98.1106 21.4709L99.589 22.0855C99.9008 21.4709 100.489 21.2661 101.103 21.2661C101.958 21.2661 102.84 21.7826 102.849 22.7V22.8158C102.546 22.6466 101.905 22.3883 101.112 22.3883C99.5178 22.3883 97.9057 23.2611 97.9057 24.891C97.9057 26.3784 99.206 27.3403 100.667 27.3403C101.78 27.3403 102.403 26.8415 102.786 26.2537H102.84V27.1087H104.443V22.8425C104.452 20.8742 102.973 19.7698 101.076 19.7698ZM100.872 25.8707C100.328 25.8707 99.5712 25.5946 99.5712 24.9266C99.5712 24.0716 100.515 23.742 101.335 23.742C102.065 23.742 102.412 23.9024 102.849 24.1161C102.787 24.5982 102.553 25.0415 102.189 25.3641C101.826 25.6867 101.358 25.8667 100.872 25.8707ZM110.295 20.0103L108.389 24.8375H108.335L106.358 20.0103H104.568L107.534 26.7613L105.841 30.5109H107.578L112.147 20.0103H110.295ZM95.3317 27.1354H96.9972V16.0024H95.3317V27.1354Z" fill="#8C9EDB"/>
</svg>
