<svg width="21" height="21" viewBox="0 0 21 21" fill="none" xmlns="http://www.w3.org/2000/svg">
<path d="M5.48238 4.40965C5.02484 4.40965 4.78081 4.65367 4.79098 5.11122M5.48238 4.40965C6.2043 4.39948 6.91604 4.39948 7.62778 4.40965M5.48238 4.40965V3.90965C5.48111 3.90965 5.47984 3.90965 5.47857 3.90965C5.4775 3.90967 5.47642 3.90968 5.47534 3.9097L5.48238 4.40965ZM4.79098 5.11122L9.0411 8.12088M4.79098 5.11122C4.80114 5.55861 4.82148 6.02632 4.88249 6.4737L4.79098 5.11122ZM7.62778 4.40965C8.065 4.40965 8.30902 4.60284 8.32936 5.02988C8.37003 6.10766 8.58355 7.13461 9.0411 8.12088M7.62778 4.40965L7.63492 3.9097C7.63382 3.90968 7.63271 3.90967 7.63161 3.90965C7.63033 3.90965 7.62906 3.90965 7.62778 3.90965V4.40965ZM9.0411 8.12088L9.49467 7.91046C9.49418 7.90941 9.49369 7.90835 9.4932 7.90729C9.49253 7.9059 9.49186 7.9045 9.49118 7.9031L9.0411 8.12088ZM8.53716 9.57449C8.47949 9.48824 8.42317 9.40068 8.36819 9.31182L8.36372 9.30459L8.35901 9.29752C8.3454 9.27712 8.3495 9.27945 8.35692 9.29891C8.35732 9.29996 8.35773 9.30106 8.35814 9.3022C8.35942 9.30572 8.36092 9.31012 8.36249 9.31534C8.37183 9.34623 8.38398 9.40594 8.36989 9.48243C8.35215 9.57875 8.30303 9.64738 8.26242 9.68644C8.24042 9.7076 8.22227 9.71896 8.2154 9.72286M8.53716 9.57449L8.20536 9.7275L8.09643 9.47994L8.09393 9.47424L8.00399 9.26984L8.09808 9.47147L8.10078 9.47725L8.2154 9.72286M8.53716 9.57449C8.43134 9.62522 8.32342 9.67542 8.21338 9.72396M8.53716 9.57449L8.21275 9.72424M8.2154 9.72286L8.21543 9.72293C8.21406 9.72357 8.21318 9.72401 8.21275 9.72424M8.2154 9.72286C8.21455 9.72334 8.21387 9.7237 8.21338 9.72396M8.21275 9.72424C8.21296 9.72415 8.21317 9.72405 8.21338 9.72396M8.21275 9.72424C8.21253 9.72436 8.21243 9.72442 8.21244 9.72442C8.21245 9.72443 8.21278 9.72428 8.21338 9.72396M15.3245 11.5966C14.3696 11.5777 13.4606 11.3607 12.5838 10.9604L12.5803 10.9588C12.3057 10.836 11.9934 10.7871 11.6867 10.9082C11.3912 11.0249 11.1942 11.263 11.0615 11.5136C10.9907 11.6426 10.9241 11.7745 10.8617 11.9069L15.3245 11.5966ZM15.3245 11.5966L15.3146 12.0965L15.3242 11.5966C15.3243 11.5966 15.3244 11.5966 15.3245 11.5966ZM11.1217 12.0764C11.1207 12.0758 11.1196 12.0751 11.1184 12.0744L11.1174 12.0761M11.1217 12.0764L10.7379 12.1823M11.1217 12.0764C11.1234 12.0774 11.125 12.0785 11.1267 12.0796M11.1217 12.0764C11.1255 12.0786 11.1281 12.08 11.1297 12.0808L11.1267 12.0796M11.1174 12.0761C11.1098 12.0736 11.0993 12.0705 11.0861 12.0679C11.0306 12.057 10.9419 12.0571 10.8503 12.104C10.7993 12.1302 10.7656 12.1618 10.746 12.184M11.1174 12.0761L10.9889 12.2903M11.1174 12.0761C11.1213 12.0774 11.1244 12.0786 11.1267 12.0796M10.746 12.184L10.7386 12.1808C10.7384 12.1813 10.7381 12.1818 10.7379 12.1823M10.746 12.184C10.7452 12.185 10.7443 12.186 10.7435 12.187M10.746 12.184L10.9889 12.2903M10.7379 12.1823C10.7376 12.1829 10.7374 12.1836 10.7371 12.1842L10.7435 12.187M10.7379 12.1823C10.7274 12.2062 10.7228 12.2147 10.7228 12.2148C10.7229 12.2148 10.7239 12.2131 10.7257 12.2103C10.728 12.2069 10.7337 12.1984 10.7435 12.187M10.7435 12.187L10.988 12.2917M10.988 12.2917L10.9889 12.2903M10.988 12.2917L10.8611 12.5032L10.9925 12.2937M10.988 12.2917L10.9925 12.2937M10.9889 12.2903L10.9934 12.2922M10.9925 12.2937L11.1966 12.3811L10.9934 12.2922M10.9925 12.2937L10.9934 12.2922M10.9934 12.2922L11.1268 12.0796C11.1268 12.0796 11.1267 12.0796 11.1267 12.0796M8.60356 13.1746L8.2822 13.557C8.28224 13.5571 8.28229 13.5571 8.28233 13.5571L8.60356 13.1746ZM10.4045 19.5273H10.4036C5.14961 19.5273 0.909179 15.2686 0.918841 10.013V10.0121C0.918841 4.76713 5.15863 0.527344 10.4036 0.527344C15.6587 0.527344 19.9087 4.7773 19.9087 10.0324C19.9087 15.2877 15.6587 19.537 10.4045 19.5273Z" stroke="#8C9EDB"/>
</svg>
