<svg width="16" height="22" viewBox="0 0 16 22" fill="none" xmlns="http://www.w3.org/2000/svg">
<path d="M8.41378 0.630859C4.59147 0.630859 1.49036 3.58245 1.49036 7.21773C1.49036 11.4006 6.10597 18.0293 7.80077 20.3189C7.87112 20.4155 7.96332 20.4942 8.06986 20.5484C8.17639 20.6026 8.29424 20.6309 8.41378 20.6309C8.53332 20.6309 8.65116 20.6026 8.7577 20.5484C8.86423 20.4942 8.95644 20.4155 9.02679 20.3189C10.7216 18.0303 15.3372 11.404 15.3372 7.21773C15.3372 3.58245 12.2361 0.630859 8.41378 0.630859Z" stroke="#8C9EDB" stroke-linecap="round" stroke-linejoin="round"/>
<path d="M8.41378 9.86209C9.68834 9.86209 10.7216 8.82885 10.7216 7.55428C10.7216 6.27971 9.68834 5.24647 8.41378 5.24647C7.13921 5.24647 6.10597 6.27971 6.10597 7.55428C6.10597 8.82885 7.13921 9.86209 8.41378 9.86209Z" stroke="#8C9EDB" stroke-linecap="round" stroke-linejoin="round"/>
</svg>
