<svg width="177" height="181" viewBox="0 0 177 181" fill="none" xmlns="http://www.w3.org/2000/svg">
<path d="M96.0406 38.7079C96.0406 35.4898 96.0335 32.5738 96.0406 29.6648C96.0406 28.8497 95.9984 28.0136 96.1319 27.2125C96.3076 26.1094 97.5794 25.0484 98.5631 25.0414C99.5327 25.0343 100.861 26.0883 101.029 27.1844C101.17 28.1049 101.107 29.0535 101.107 29.988C101.107 47.3153 101.121 64.6497 101.1 81.977C101.093 86.3405 102.47 90.1699 105.393 93.648C115.778 89.5727 125.973 90.184 136.176 95.0955C135.888 91.8141 136.401 88.8981 138.284 86.4248C131.433 79.7215 130.955 75.2597 136.302 67.8959C134.244 65.5421 132.677 62.8931 132.705 59.5485C132.733 56.3163 134.37 53.8078 136.373 51.1799C132.719 47.1608 131.447 42.6287 134.237 37.2675C133.386 37.148 132.768 36.9864 132.143 36.9794C128.51 36.9583 124.884 36.9723 121.252 36.9653C120.549 36.9653 119.839 37.0075 119.144 36.9232C116.684 36.621 115.11 35.033 115.054 32.5316C114.956 28.5546 115.012 24.5706 114.998 20.5866C114.991 17.7689 114.668 14.9513 113.333 12.478C110.845 7.87564 106.939 5.54987 101.374 5.94335C101.275 6.77951 101.128 7.55242 101.114 8.32534C101.079 10.6652 101.184 13.012 101.072 15.3518C100.98 17.242 100.116 18.0078 98.4998 17.9868C96.7854 17.9657 96.0968 17.3122 96.0546 15.3237C95.9914 12.1618 95.9562 8.99988 96.0897 5.83796C96.2233 2.62685 98.4998 0.554034 101.753 0.371345C108.983 -0.0432176 116.157 5.09315 118.729 11.5645C119.643 13.8692 120.134 16.202 120.092 18.6964C120.015 23.0037 120.071 27.3179 120.071 31.9273C121.343 31.9273 122.369 31.9273 123.395 31.9273C137.216 31.9273 151.03 31.9344 164.851 31.9203C167.107 31.9203 169.172 32.2786 171.189 33.4661C176.051 36.3259 178.103 43.4367 174.611 48.7628C174.042 49.6341 173.395 50.4492 172.798 51.2713C177.66 56.6254 177.442 63.1039 172.707 67.8468C175.278 70.9033 177.077 74.4165 176.199 78.5692C175.32 82.7429 172.552 85.4903 168.884 86.9799C169.278 89.1511 169.72 91.1536 170.001 93.1773C170.683 98.0888 165.603 104.392 159.012 104.356C155.731 104.342 152.456 104.349 149.175 104.356C148.718 104.356 148.261 104.413 147.559 104.455C150.32 108.537 152.674 112.563 153.939 117.187C157.087 128.731 155.105 139.299 148.163 148.954C143.202 155.854 136.373 160.189 128.264 162.332C118.989 164.784 110.058 163.351 101.563 159.001C100.84 158.629 100.137 158.172 99.5187 157.652C98.2961 156.626 98.1485 155.179 99.0479 153.949C99.8911 152.797 101.079 152.453 102.428 153.282C105.428 155.116 108.597 156.437 112.019 157.273C125.51 160.561 139.492 154.16 146.02 142.581C148.704 137.817 150.25 132.701 150.173 127.284C149.969 112.999 140.483 100.569 126.585 97.2386C108.899 93.0016 92.6327 104.244 89.0914 120.342C87.3488 128.268 88.3114 135.821 92.5554 142.848C92.977 143.543 93.3424 144.274 93.764 144.97C95.4363 147.724 95.2255 148.342 92.0214 149.916C90.4615 149.509 89.5059 148.251 88.7541 146.979C86.1964 142.665 84.0393 138.175 83.4631 133.088C83.3929 132.448 83.0134 131.851 82.8167 131.338C82.367 131.261 82.114 131.127 81.9243 131.191C77.1814 132.814 77.1814 132.821 77.1814 137.788C77.1814 139.545 77.2096 141.302 77.1744 143.058C77.0761 148.251 73.8439 151.469 68.5951 151.525C64.4986 151.574 60.3952 151.399 56.2987 151.574C51.8299 151.764 47.881 148.237 47.7685 142.925C47.7194 140.466 47.628 137.999 47.7967 135.547C47.9512 133.299 46.5951 132.582 44.9158 131.739C43.1662 130.867 41.7749 131.127 40.468 132.371C38.6903 134.071 36.7861 135.688 35.2825 137.606C32.493 141.161 25.7264 141.126 22.8245 137.676C20.2739 134.641 17.3649 131.872 14.4068 129.216C10.9076 126.082 10.9638 120.475 14.3927 117.039C16.1282 115.297 17.8357 113.526 19.6204 111.833C20.9695 110.547 21.3489 109.282 20.4636 107.476C19.6064 105.713 18.9669 104.125 16.5147 104.307C14.0695 104.483 11.5962 104.237 9.14391 104.37C4.50643 104.623 0.297557 100.45 0.550511 95.7981C0.754279 91.9476 0.880756 88.0479 0.522405 84.2115C0.05163 79.2086 4.18321 75.0278 9.65685 74.9365C11.9967 74.8943 14.3435 74.8662 16.6833 74.9505C18.6227 75.0208 19.6555 74.1144 20.3231 72.3648C20.9906 70.6222 21.4473 69.1115 19.789 67.6079C17.8849 65.8793 16.065 64.0384 14.3224 62.1483C11.814 59.436 11.02 56.3022 12.5658 52.8171C12.9804 51.8896 13.6128 50.9972 14.3224 50.2665C17.1752 47.3224 20.0701 44.4204 23.0072 41.5606C26.5275 38.1247 31.2422 38.0404 34.896 41.3709C36.8002 43.1065 38.6622 44.9053 40.3486 46.8446C41.9647 48.7066 43.6089 48.0742 45.4076 47.4067C47.2064 46.7392 47.888 45.5166 47.8037 43.6264C47.7053 41.4061 47.7615 39.1787 47.7826 36.9513C47.8388 31.2106 51.2256 27.7747 56.8608 27.7395C60.8449 27.7185 64.8289 27.852 68.8059 27.7044C73.0288 27.5498 76.8723 30.8804 77.1744 35.7849C77.336 38.469 77.329 41.1742 77.1744 43.8583C77.0409 46.163 78.5657 46.7392 80.1958 47.5472C81.9243 48.3974 83.2664 48.2991 84.5874 46.8797C85.8592 45.5095 87.2785 44.2658 88.5433 42.8887C90.4475 40.7948 92.703 39.256 96.0406 38.7079ZM82.7745 125.731C83.8988 113.027 89.6816 103.042 100.495 96.037C97.1789 91.6666 95.9141 87.015 95.9843 81.7943C96.153 70.3201 96.0406 58.8458 96.0265 47.3716C96.0265 46.4862 95.893 45.6009 95.7876 44.2518C94.7688 44.849 94.024 45.1231 93.4899 45.622C91.7052 47.3083 89.9767 49.0649 88.2552 50.8216C85.7186 53.4143 82.6762 53.9765 79.3175 53.0068C74.0406 51.4891 71.6727 48.278 71.6516 42.7833C71.6446 40.6753 71.6867 38.5674 71.6375 36.4594C71.5813 34.0142 70.7522 32.9532 68.3491 32.8689C64.3722 32.7283 60.3811 32.7213 56.4111 32.8829C54.2048 32.9743 53.3546 34.0774 53.2984 36.2838C53.2422 38.3917 53.2914 40.4996 53.2843 42.6076C53.2703 48.3201 51.7385 50.5546 46.4476 52.6555C42.7306 54.131 39.4351 53.59 36.5824 50.7162C35.0155 49.1352 33.4556 47.5472 31.8606 46.0014C29.5559 43.767 28.537 43.7248 26.3237 45.8749C23.7169 48.4044 21.2084 51.0324 18.6086 53.5549C16.6131 55.4872 16.6904 57.047 18.6086 58.8739C20.302 60.49 21.9673 62.1412 23.5763 63.8417C25.874 66.2728 26.8155 69.0764 25.9302 72.428C24.4546 78.0281 21.4262 80.4453 15.6786 80.4734C13.5706 80.4804 11.4627 80.4453 9.35471 80.4804C6.88841 80.5296 5.77822 81.3517 5.68688 83.6985C5.53932 87.6755 5.53229 91.6666 5.6939 95.6365C5.78525 98.0045 6.85328 98.7844 9.36876 98.8336C11.5962 98.8828 13.8376 98.672 16.0369 98.8968C17.8427 99.0795 19.8242 99.3606 21.3419 100.253C26.8296 103.485 27.7149 111.263 23.2882 115.789C21.5668 117.545 19.7539 119.21 18.1027 121.03C16.6763 122.604 16.5639 123.89 17.9341 125.345C20.8219 128.415 23.7942 131.408 26.8858 134.268C28.4879 135.751 29.4997 135.582 31.1579 134.036C32.781 132.519 34.2285 130.797 35.9219 129.364C37.3272 128.169 38.8449 126.743 40.5313 126.321C45.4358 125.099 53.6146 128.169 53.3054 135.997C53.2071 138.449 53.2352 140.915 53.3125 143.375C53.3757 145.328 54.4016 146.431 56.3268 146.473C60.4233 146.558 64.5267 146.558 68.6232 146.473C70.5625 146.431 71.5673 145.349 71.6375 143.375C71.7148 141.035 71.6305 138.688 71.6656 136.348C71.7289 131.472 73.8368 128.464 78.39 126.855C79.6759 126.399 81.053 126.167 82.7745 125.731ZM154.74 36.9794C152.983 36.9794 151.227 36.9794 149.47 36.9794C147.713 36.9794 145.957 36.9161 144.2 36.9934C140.841 37.148 138.614 38.996 138.291 41.8136C137.961 44.6804 138.656 47.5613 142.928 48.3904C143.722 48.545 144.523 48.7347 145.324 48.7417C151.648 48.7698 157.965 48.7277 164.289 48.7769C165.884 48.7909 167.268 48.285 168.568 47.484C170.606 46.2262 171.512 43.4508 170.725 41.132C169.798 38.4058 167.893 37.0637 164.57 36.9934C161.296 36.9302 158.014 36.9794 154.74 36.9794ZM154.136 65.1697C154.136 65.1626 154.136 65.1626 154.136 65.1556C157.993 65.1556 161.851 65.2329 165.701 65.1345C168.814 65.0502 171.379 62.352 171.231 59.5414C171.069 56.5271 168.435 53.8851 165.23 53.85C158.225 53.7657 151.213 53.7938 144.2 53.85C142.563 53.864 140.982 54.3137 139.773 55.5644C138.277 57.1173 137.743 60.0544 138.621 62.085C139.57 64.2562 141.305 65.1837 143.624 65.1767C147.123 65.1626 150.629 65.1697 154.136 65.1697ZM154.136 82.0051C157.754 82.0051 161.373 82.0473 164.985 81.977C166.003 81.956 167.085 81.8084 168.013 81.4149C170.015 80.5577 171.428 77.726 171.041 75.6954C170.549 73.0885 168.442 70.9876 165.919 70.6925C164.999 70.5871 164.057 70.6574 163.122 70.6574C157.052 70.6574 150.988 70.6433 144.917 70.6644C140.56 70.6784 138.256 72.7091 138.235 76.4612C138.221 80.0658 140.42 81.97 144.678 82.0051C147.84 82.0262 150.988 82.0051 154.136 82.0051ZM153.011 98.8336C155.112 98.8266 157.213 98.8898 159.314 98.8125C162.546 98.7001 164.83 96.4305 164.963 93.3319C165.069 90.8234 162.525 87.7177 159.806 87.5912C155.379 87.3874 150.939 87.4015 146.512 87.5701C143.8 87.6685 141.207 90.6547 141.214 93.1913C141.221 96.3743 143.631 98.7282 147.067 98.8266C149.041 98.8757 151.03 98.8336 153.011 98.8336Z" fill="url(#paint0_linear_1021_527)"/>
<path d="M172.116 126.399C172.32 139.482 168.42 150.387 160.944 159.894C152.815 170.223 142.162 176.996 129.213 179.371C113.712 182.217 99.4273 178.851 86.8288 169.176C84.6155 167.475 82.6129 165.501 80.5752 163.583C79.9148 162.957 79.3948 162.149 78.924 161.355C78.2635 160.245 78.7975 159.339 79.6196 158.566C80.3574 157.877 81.2428 157.491 82.1492 158.116C83.1891 158.84 84.2009 159.641 85.0863 160.547C90.7145 166.344 97.3264 170.595 105.112 172.759C121.139 177.214 135.902 174.804 149.105 164.299C157.319 157.765 162.743 149.375 165.315 139.292C166.678 133.938 167.626 128.443 166.608 122.773C166.123 120.047 165.926 117.271 165.195 114.573C165.02 113.934 164.928 113.041 165.244 112.556C165.715 111.833 166.573 110.919 167.289 110.905C168.153 110.884 169.158 111.587 169.882 112.219C170.339 112.62 170.458 113.463 170.62 114.13C171.653 118.445 172.362 122.801 172.116 126.399Z" fill="url(#paint1_linear_1021_527)"/>
<path d="M99.5889 125.499C100.123 124.74 100.32 124.277 100.671 123.988C102.287 122.667 103.348 122.492 104.873 124.15C106.84 126.293 108.625 128.612 110.543 130.797C112.082 132.547 113.698 134.226 115.314 135.976C117.64 133.432 119.86 131.057 122.018 128.626C125.742 124.438 129.437 120.229 133.14 116.02C133.372 115.76 133.506 115.409 133.759 115.184C135.087 113.969 136.316 113.934 137.469 115.03C138.614 116.119 138.719 117.426 137.651 118.754C136.408 120.293 135.087 121.782 133.78 123.272C128.77 128.97 123.753 134.662 118.736 140.353C118.427 140.704 118.118 141.056 117.781 141.379C115.644 143.438 114.717 143.382 112.665 141.056C108.878 136.77 105.084 132.483 101.339 128.169C100.671 127.403 100.207 126.455 99.5889 125.499Z" fill="url(#paint2_linear_1021_527)"/>
<path d="M89.9697 89.4743C90.574 101.813 81.4817 113.997 68.4335 116.765C54.4718 119.723 40.6086 112.05 36.0484 97.8991C35.5635 96.3954 35.3176 94.9269 36.7932 93.7675C37.8542 92.9313 38.7044 92.8049 39.5897 93.7956C40.3345 94.6247 40.9529 95.6857 41.2901 96.7538C44.6628 107.329 55.0902 113.076 64.8851 111.994C71.9116 111.214 77.6382 107.792 81.4114 101.595C85.9716 94.0977 86.2527 86.3475 81.9243 78.7589C78.5586 72.8567 73.4996 68.9148 66.5363 67.7835C54.9918 65.9074 45.1266 71.8097 41.1917 83.038C40.9599 83.6915 40.7912 84.3801 40.468 84.9914C39.9481 85.9892 38.6833 86.3897 37.3904 86.0594C36.3716 85.7995 35.7322 85.1319 35.7462 84.078C35.7532 83.1645 35.8165 82.1949 36.1116 81.3376C39.6811 71.0017 46.9043 64.3195 57.5424 62.4715C71.8132 59.9982 83.695 67.657 88.5011 80.2204C89.7027 83.3472 90.054 86.5302 89.9697 89.4743Z" fill="url(#paint3_linear_1021_527)"/>
<path d="M62.3345 104.434C55.1885 105.073 47.4594 97.5407 47.5929 89.4884C47.7194 81.8365 54.7107 74.6835 62.6858 74.7819C70.2533 74.8803 77.336 81.8435 77.3712 89.9029C77.4133 97.1824 70.3376 105.186 62.3345 104.434ZM53.179 89.5586C52.8838 94.8706 56.5587 99.2482 62.3485 99.2482C68.3 99.2552 71.9748 95.7419 72.0591 89.6148C72.1224 84.8509 68.834 80.6069 62.7842 80.2766C57.5143 79.9885 52.5395 85.1319 53.179 89.5586Z" fill="url(#paint4_linear_1021_527)"/>
<defs>
<linearGradient id="paint0_linear_1021_527" x1="19.623" y1="-8.98369" x2="-20.5901" y2="174.666" gradientUnits="userSpaceOnUse">
<stop stop-color="#6E2FFF"/>
<stop offset="1" stop-color="#00277F"/>
</linearGradient>
<linearGradient id="paint1_linear_1021_527" x1="19.623" y1="-8.98369" x2="-20.5901" y2="174.666" gradientUnits="userSpaceOnUse">
<stop stop-color="#6E2FFF"/>
<stop offset="1" stop-color="#00277F"/>
</linearGradient>
<linearGradient id="paint2_linear_1021_527" x1="19.623" y1="-8.98369" x2="-20.5901" y2="174.666" gradientUnits="userSpaceOnUse">
<stop stop-color="#6E2FFF"/>
<stop offset="1" stop-color="#00277F"/>
</linearGradient>
<linearGradient id="paint3_linear_1021_527" x1="19.623" y1="-8.98369" x2="-20.5901" y2="174.666" gradientUnits="userSpaceOnUse">
<stop stop-color="#6E2FFF"/>
<stop offset="1" stop-color="#00277F"/>
</linearGradient>
<linearGradient id="paint4_linear_1021_527" x1="19.623" y1="-8.98369" x2="-20.5901" y2="174.666" gradientUnits="userSpaceOnUse">
<stop stop-color="#6E2FFF"/>
<stop offset="1" stop-color="#00277F"/>
</linearGradient>
</defs>
</svg>
