<svg xmlns="http://www.w3.org/2000/svg" width="314" height="87" fill="none" viewBox="0 0 314 87">
  <path fill="#fff" d="M106.408 43.758c-1.859 0-3.684-.319-5.474-.958-1.79-.638-3.416-1.62-4.88-2.943l3.172-3.798c1.116.906 2.26 1.626 3.434 2.16 1.174.534 2.458.801 3.853.801 1.115 0 1.981-.203 2.597-.61.616-.406.924-.969.924-1.689v-.07c0-.348-.064-.656-.192-.923-.129-.267-.373-.516-.734-.749-.362-.232-.863-.464-1.504-.696-.641-.233-1.474-.477-2.499-.732a30.545 30.545 0 0 1-3.356-1.01c-1.002-.372-1.853-.83-2.552-1.377a5.565 5.565 0 0 1-1.625-2.038c-.385-.812-.577-1.823-.577-3.03v-.07c0-1.115.208-2.12.623-3.013a6.855 6.855 0 0 1 1.75-2.317c.75-.65 1.646-1.15 2.688-1.498 1.042-.349 2.19-.523 3.446-.523 1.789 0 3.434.267 4.933.802a14.29 14.29 0 0 1 4.131 2.299l-2.789 4.041c-1.092-.743-2.162-1.33-3.207-1.759-1.046-.43-2.092-.645-3.138-.645-1.046 0-1.83.203-2.353.61-.523.406-.785.912-.785 1.516v.07c0 .394.076.736.227 1.026.152.29.426.552.822.784.396.233.938.453 1.625.662.688.21 1.556.454 2.605.732 1.235.326 2.336.69 3.303 1.097.967.407 1.783.895 2.447 1.464a5.58 5.58 0 0 1 1.503 2.003c.338.766.507 1.684.507 2.752v.07c0 1.207-.219 2.282-.658 3.222a6.617 6.617 0 0 1-1.836 2.369c-.785.639-1.722 1.126-2.811 1.463-1.088.337-2.295.505-3.62.505Zm14.085-24.734h18.373v4.773h-13.074v4.947h11.505v4.772h-11.505v5.121h13.248v4.773h-18.547V19.024Zm23.847 0h5.787l6.415 10.311 6.415-10.311h5.787V43.41h-5.299V27.49l-6.868 10.416h-.14l-6.798-10.313V43.41h-5.299V19.024Zm36.362 0h-5.369V43.41h5.369V19.024Zm6.589 0h5.369v10.66l9.901-10.66h6.485L199.11 29.37l10.389 14.039h-6.449l-7.565-10.381-2.825 2.926v7.455h-5.369V19.024Zm37.862 19.857c1.07 0 2.057-.197 2.964-.592a6.775 6.775 0 0 0 2.318-1.638 7.714 7.714 0 0 0 1.499-2.42 7.965 7.965 0 0 0 .541-2.944v-.07c0-1.045-.18-2.032-.541-2.961a7.364 7.364 0 0 0-1.534-2.439 7.37 7.37 0 0 0-2.353-1.655c-.907-.406-1.895-.61-2.964-.61-1.092 0-2.085.198-2.98.593a6.806 6.806 0 0 0-2.301 1.637 7.72 7.72 0 0 0-1.5 2.421 8.01 8.01 0 0 0-.54 2.944v.07c0 1.045.181 2.032.54 2.961a7.352 7.352 0 0 0 3.87 4.093c.895.407 1.889.61 2.981.61Zm-.07 4.947c-1.882 0-3.614-.331-5.194-.993-1.581-.662-2.946-1.556-4.097-2.682a12.005 12.005 0 0 1-2.684-3.972c-.639-1.521-.959-3.153-.959-4.894v-.07c0-1.742.325-3.373.976-4.894a12.631 12.631 0 0 1 2.702-4.007c1.15-1.15 2.522-2.055 4.114-2.717 1.592-.662 3.33-.993 5.212-.993 1.883 0 3.614.33 5.195.993 1.58.662 2.946 1.556 4.096 2.682a11.996 11.996 0 0 1 2.685 3.972c.639 1.521.959 3.152.959 4.894v.07c0 1.742-.326 3.373-.977 4.895a12.607 12.607 0 0 1-2.702 4.006c-1.15 1.15-2.521 2.055-4.113 2.717-1.593.662-3.33.993-5.213.993Zm18.269-24.804h5.369v19.544h12.167v4.842h-17.536V19.024Zm22.069 0h18.372v4.773H270.72v4.947h11.505v4.772H270.72v5.121h13.248v4.773h-18.547V19.024Zm23.846 0h4.951l11.435 15.015V19.024h5.299V43.41h-4.567l-11.819-15.503V43.41h-5.299V19.024ZM96.424 53.177h11.262v2.935h-8.008V59.3h7.057v2.935h-7.057v5.722h-3.254v-14.78Zm17.559 0h-3.254v14.78h3.254v-14.78Zm3.993 0h3l6.931 9.1v-9.1h3.212v14.78h-2.768l-7.163-9.396v9.396h-3.212v-14.78Zm20.39 0h-3.254v14.78h3.254v-14.78Zm9.276 14.991a9.797 9.797 0 0 1-3.317-.58 8.774 8.774 0 0 1-2.958-1.785l1.922-2.301c.676.549 1.37.985 2.082 1.309a5.566 5.566 0 0 0 2.334.486c.677 0 1.201-.124 1.575-.37.373-.246.559-.588.559-1.024v-.042c0-.211-.038-.398-.116-.56-.078-.162-.226-.313-.445-.454a4.68 4.68 0 0 0-.911-.422c-.388-.14-.893-.288-1.515-.443a18.603 18.603 0 0 1-2.034-.613c-.607-.225-1.123-.503-1.546-.834a3.372 3.372 0 0 1-.985-1.235c-.233-.492-.35-1.105-.35-1.837v-.042c0-.675.126-1.284.378-1.827a4.153 4.153 0 0 1 1.06-1.403 4.77 4.77 0 0 1 1.629-.908 6.563 6.563 0 0 1 2.089-.317c1.084 0 2.081.162 2.989.486a8.649 8.649 0 0 1 2.504 1.393l-1.69 2.45a10.72 10.72 0 0 0-1.944-1.067 4.97 4.97 0 0 0-1.902-.39c-.634 0-1.109.123-1.426.369-.317.246-.475.553-.475.919v.042c0 .239.046.447.137.623.092.176.258.334.498.475.24.14.569.274.985.4.417.128.943.275 1.579.444.748.197 1.416.419 2.002.665.586.247 1.08.542 1.483.887.402.345.706.75.911 1.214.205.465.307 1.02.307 1.668v.042c0 .732-.133 1.383-.399 1.953a4.005 4.005 0 0 1-1.112 1.436 5.016 5.016 0 0 1-1.704.887 7.402 7.402 0 0 1-2.194.306Zm8.536-14.991h3.254v5.849h6.001v-5.849h3.254v14.78h-3.254v-5.933h-6.001v5.933h-3.254v-14.78Zm19.756 0h-3.254v14.78h3.254v-14.78Zm3.994 0h3l6.931 9.1v-9.1h3.211v14.78h-2.767l-7.163-9.396v9.396h-3.212v-14.78Zm24.109 15.033c-1.155 0-2.208-.19-3.159-.57a7.292 7.292 0 0 1-2.451-1.583 7.154 7.154 0 0 1-1.595-2.407c-.381-.93-.571-1.943-.571-3.04v-.043a7.586 7.586 0 0 1 2.198-5.395 7.586 7.586 0 0 1 2.451-1.646c.944-.401 1.979-.602 3.106-.602.662 0 1.264.046 1.806.137a8.624 8.624 0 0 1 1.511.39c.465.17.902.381 1.31.634a9.64 9.64 0 0 1 1.183.866l-2.049 2.47a8.28 8.28 0 0 0-.846-.633 5.144 5.144 0 0 0-1.859-.76 5.903 5.903 0 0 0-1.162-.106c-.592 0-1.144.123-1.658.37a4.475 4.475 0 0 0-2.261 2.455 4.844 4.844 0 0 0-.328 1.788v.043c0 .677.109 1.301.328 1.872.218.572.528 1.07.929 1.492a4.22 4.22 0 0 0 1.416.984 4.53 4.53 0 0 0 1.806.35c1.212 0 2.233-.298 3.064-.894v-2.126h-3.275v-2.808h6.424v6.419c-.761.647-1.666 1.2-2.716 1.657-1.049.457-2.249.686-3.602.686Zm21.362-.042a9.806 9.806 0 0 1-3.318-.58 8.779 8.779 0 0 1-2.957-1.785l1.922-2.301c.676.549 1.37.985 2.081 1.309a5.57 5.57 0 0 0 2.335.486c.676 0 1.201-.124 1.575-.37.372-.246.56-.588.56-1.024v-.042c0-.211-.039-.398-.117-.56-.078-.162-.226-.313-.445-.454a4.68 4.68 0 0 0-.911-.422c-.388-.14-.893-.288-1.515-.443a18.603 18.603 0 0 1-2.034-.613c-.607-.225-1.123-.503-1.547-.834a3.38 3.38 0 0 1-.984-1.235c-.234-.492-.35-1.105-.35-1.837v-.042c0-.675.126-1.284.378-1.827a4.14 4.14 0 0 1 1.06-1.403 4.766 4.766 0 0 1 1.63-.908 6.55 6.55 0 0 1 2.087-.317c1.085 0 2.082.162 2.991.486a8.657 8.657 0 0 1 2.503 1.393l-1.69 2.45a10.72 10.72 0 0 0-1.944-1.067 4.97 4.97 0 0 0-1.902-.39c-.634 0-1.109.123-1.426.369-.317.246-.475.553-.475.919v.042c0 .239.046.447.137.623.092.176.258.334.498.475.24.14.569.274.985.4.417.128.943.275 1.579.444.748.197 1.416.419 2.002.665.586.247 1.08.542 1.483.887.402.345.706.75.911 1.214.205.465.307 1.02.307 1.668v.042c0 .732-.133 1.383-.399 1.953a4.005 4.005 0 0 1-1.112 1.436 5.016 5.016 0 0 1-1.704.887 7.402 7.402 0 0 1-2.194.306Zm15.467.042a7.662 7.662 0 0 1-3.022-.591 7.448 7.448 0 0 1-2.409-1.615 7.35 7.35 0 0 1-1.584-2.418 7.768 7.768 0 0 1-.571-2.977v-.042a7.69 7.69 0 0 1 2.155-5.395 7.363 7.363 0 0 1 2.431-1.646c.944-.401 1.985-.602 3.127-.602.69 0 1.32.056 1.891.169a7.898 7.898 0 0 1 1.553.464 6.69 6.69 0 0 1 1.289.718c.394.281.76.592 1.099.93l-2.072 2.385a7.818 7.818 0 0 0-1.763-1.225c-.599-.295-1.272-.443-2.018-.443a4.112 4.112 0 0 0-3.086 1.351c-.38.423-.676.912-.887 1.468a4.986 4.986 0 0 0-.317 1.784v.042c0 .633.106 1.232.317 1.795a4.7 4.7 0 0 0 .877 1.478 4.072 4.072 0 0 0 3.096 1.372c.845 0 1.56-.155 2.145-.464a8.349 8.349 0 0 0 1.743-1.267l2.07 2.09c-.38.408-.775.774-1.183 1.098a7.052 7.052 0 0 1-1.342.834 6.966 6.966 0 0 1-1.595.528 9.59 9.59 0 0 1-1.944.18Zm8.959-15.033h3.254v5.849h6v-5.849h3.254v14.78h-3.254v-5.933h-6v5.933h-3.254v-14.78Zm23.58 12.035c.649 0 1.247-.12 1.797-.359a4.114 4.114 0 0 0 1.405-.992c.387-.422.69-.912.908-1.467a4.85 4.85 0 0 0 .328-1.785v-.042a4.93 4.93 0 0 0-.328-1.795 4.45 4.45 0 0 0-.93-1.477 4.448 4.448 0 0 0-1.426-1.003 4.337 4.337 0 0 0-1.796-.37 4.42 4.42 0 0 0-1.807.36 4.134 4.134 0 0 0-1.394.991c-.388.423-.69.912-.908 1.468a4.824 4.824 0 0 0-.328 1.784v.042c0 .633.109 1.232.328 1.795a4.445 4.445 0 0 0 2.345 2.48c.542.247 1.144.37 1.806.37Zm-.042 2.998c-1.141 0-2.191-.2-3.148-.601a7.826 7.826 0 0 1-2.483-1.626 7.287 7.287 0 0 1-1.627-2.407 7.586 7.586 0 0 1-.581-2.967v-.042c0-1.056.197-2.044.592-2.966a7.652 7.652 0 0 1 1.637-2.429 7.644 7.644 0 0 1 2.493-1.646c.965-.401 2.018-.602 3.159-.602 1.142 0 2.191.2 3.149.602a7.843 7.843 0 0 1 2.483 1.625 7.269 7.269 0 0 1 1.626 2.407 7.57 7.57 0 0 1 .582 2.967v.042a7.452 7.452 0 0 1-.592 2.967 7.654 7.654 0 0 1-1.638 2.428 7.618 7.618 0 0 1-2.493 1.647c-.965.4-2.018.601-3.159.601Zm18.299-2.998a4.45 4.45 0 0 0 1.795-.359c.55-.24 1.018-.57 1.406-.992.387-.422.69-.912.908-1.467a4.85 4.85 0 0 0 .327-1.785v-.042a4.93 4.93 0 0 0-.327-1.795 4.45 4.45 0 0 0-.93-1.477 4.448 4.448 0 0 0-1.426-1.003 4.337 4.337 0 0 0-1.796-.37 4.42 4.42 0 0 0-1.807.36 4.124 4.124 0 0 0-1.394.991c-.387.423-.69.912-.909 1.468a4.844 4.844 0 0 0-.327 1.784v.042c0 .633.109 1.232.327 1.795a4.48 4.48 0 0 0 .93 1.478c.402.422.874.756 1.416 1.003.542.246 1.144.37 1.807.37Zm-.043 2.998c-1.141 0-2.19-.2-3.148-.601a7.826 7.826 0 0 1-2.483-1.626 7.287 7.287 0 0 1-1.627-2.407 7.586 7.586 0 0 1-.581-2.967v-.042a7.47 7.47 0 0 1 .592-2.966 7.652 7.652 0 0 1 1.637-2.429 7.627 7.627 0 0 1 2.494-1.646c.964-.401 2.017-.602 3.159-.602 1.141 0 2.19.2 3.148.602a7.838 7.838 0 0 1 2.482 1.625 7.257 7.257 0 0 1 1.627 2.407 7.57 7.57 0 0 1 .581 2.967v.042a7.469 7.469 0 0 1-.591 2.967 7.654 7.654 0 0 1-1.638 2.428 7.618 7.618 0 0 1-2.493 1.647c-.965.4-2.018.601-3.159.601Zm11.072-15.033h3.254v11.845h7.375v2.935h-10.629v-14.78Z"/>
  <path fill="#00277F" fill-rule="evenodd" d="M42.48 12.552c16.811 0 30.458 13.858 30.458 30.926 0 17.07-13.647 30.926-30.457 30.926-16.81 0-30.458-13.856-30.458-30.926 0-17.068 13.649-30.926 30.458-30.926Zm0 10.233c11.249 0 20.38 9.272 20.38 20.693 0 11.422-9.131 20.693-20.38 20.693-11.247 0-20.379-9.272-20.379-20.693 0-11.42 9.132-20.693 20.38-20.693Zm6.802 16.686a1.405 1.405 0 0 0-1.96-.002l-8.927 8.76c-.54.53-.54 1.392.001 1.923l8.926 8.758c.54.53 1.419.53 1.958 0l8.928-8.76a1.34 1.34 0 0 0 0-1.921l-8.926-8.758Zm-15.703 7.494a.841.841 0 0 0-1.172 0l-5.35 5.248a.806.806 0 0 0 0 1.152l5.348 5.247a.842.842 0 0 0 1.174 0l5.348-5.248a.802.802 0 0 0 0-1.15l-5.348-5.249Zm4.06-18.918a1.406 1.406 0 0 0-1.958 0l-8.928 8.76a1.34 1.34 0 0 0 .001 1.921l8.927 8.76c.54.53 1.418.53 1.958 0l8.928-8.76c.54-.53.54-1.39 0-1.922l-8.927-8.759Zm8.395 6.698a.805.805 0 0 1 0-1.152l5.349-5.248a.842.842 0 0 1 1.173 0l5.349 5.248a.803.803 0 0 1 0 1.152l-5.349 5.247a.84.84 0 0 1-1.173 0l-5.349-5.247Z" clip-rule="evenodd"/>
  <path fill="#fff" fill-rule="evenodd" d="m43.962 71.406.012-1.847-1.819-.012-.004.808.927.006-.004.608c-.234.169-.535.251-.87.249-.741-.005-1.264-.58-1.258-1.357v-.012c.005-.723.54-1.32 1.21-1.316.485.002.771.163 1.093.439l.585-.707c-.434-.38-.888-.59-1.642-.595-1.268-.008-2.202.976-2.21 2.185v.012c-.008 1.256.882 2.192 2.188 2.201a2.692 2.692 0 0 0 1.792-.662Zm-5.172.448.77-4.179-.892-.17-.475 2.573-1.454-2.94-.835-.159-.772 4.18.894.17.49-2.657 1.503 3.035.77.148Zm11.201-2.243-.004-.011c-.168-.722-.704-.911-1.581-.93-.748-.013-.943-.06-1.006-.331l-.004-.013c-.047-.2.097-.404.44-.487.344-.082.734-.014 1.155.152l.305-.797a2.385 2.385 0 0 0-1.637-.161c-.833.201-1.31.84-1.134 1.591l.004.012c.19.822.775.924 1.646.938.721.014.889.099.943.328l.003.012c.056.243-.13.444-.496.532-.467.113-.896.01-1.334-.209l-.38.773a2.63 2.63 0 0 0 1.884.244c.879-.211 1.387-.821 1.196-1.643Zm-16.197 1.1 1.313-4.038-.875-.293-1.312 4.037.874.294Zm-2.214-.75 1.818-3.83-.829-.406-.72 1.515-1.53-.748.72-1.516-.83-.406-1.82 3.83.831.406.73-1.538 1.53.75-.73 1.538.83.406Zm22.945-1.568-.77-.323c-.188.408-.384.704-.825.89-.662.284-1.352-.082-1.63-.754l-.005-.01c-.277-.673-.034-1.422.616-1.7.386-.163.759-.125 1.17.023l.28-.864c-.508-.205-1.045-.266-1.774.044-1.186.505-1.635 1.771-1.175 2.886l.005.011c.465 1.125 1.677 1.657 2.814 1.172.744-.317 1.075-.773 1.294-1.375Zm4.211-1.833-2.254-3.583-.776.503.892 1.418-1.432.93-.893-1.418-.776.503 2.254 3.584.777-.505-.905-1.438 1.432-.928.905 1.438.776-.504Zm-30.636.203.008-.011c.42-.606.203-1.138-.365-1.819-.485-.577-.58-.755-.423-.985l.007-.01c.118-.169.362-.194.651.012.289.206.498.548.654.978l.79-.296a2.463 2.463 0 0 0-.966-1.351c-.7-.5-1.489-.439-1.925.193l-.008.01c-.477.69-.166 1.203.4 1.873.469.558.518.741.384.936l-.007.01c-.141.204-.413.195-.722-.025-.39-.28-.6-.674-.73-1.153l-.82.224a2.71 2.71 0 0 0 1.068 1.594c.74.527 1.526.51 2.004-.18Zm-4.26-1.67 2.785-3.175-.688-.622-2.784 3.176.688.622Zm37.684-3.882-.008-.009c-.813-.883-2.148-.953-3.092-.058-.944.897-.963 2.27-.15 3.154l.008.008c.813.884 2.148.955 3.091.059.944-.897.965-2.27.15-3.154Zm-.695.677c.49.533.515 1.324-.026 1.839-.542.514-1.336.435-1.826-.097l-.009-.009c-.49-.532-.514-1.324.028-1.838.542-.515 1.335-.436 1.824.096l.009.009Zm-38.731 1.63 3.172-2.777-.595-.699-1.953 1.71.671-3.219-.554-.653-3.171 2.777.594.698 2.015-1.765-.692 3.325.513.603Zm42.431-6.422-.01-.007c-.965-.709-2.288-.52-3.045.543-.759 1.063-.52 2.416.445 3.125l.01.007c.964.71 2.288.52 3.046-.543.757-1.063.519-2.417-.445-3.125Zm-.555.8c.582.427.754 1.198.32 1.81-.436.61-1.229.686-1.81.258l-.01-.006c-.581-.427-.755-1.2-.32-1.81.435-.61 1.23-.688 1.81-.26l.01.007ZM18.896 59.46l3.503-2.329-.505-.782-3.503 2.329.505.782Zm49.201-4.94-.753-.37-.91 1.907-3.016-1.484-.402.842 3.769 1.855 1.312-2.75ZM20.76 56.181l.748-.382-1.432-2.892-3.742 1.91.414.836 1.448-.74.898 1.813.748-.382-.897-1.813.796-.407 1.019 2.057Zm28.191-6.268a.212.212 0 0 1-.058.083c-.182.237-.332.41-.447.525-.702.688-1.493 1.03-2.372 1.026-.88-.005-1.686-.366-2.417-1.083-.788-.774-1.177-1.675-1.168-2.703.01-1.03.423-1.944 1.24-2.746.933-.916 1.998-1.352 3.196-1.31 1.196.043 2.296.555 3.296 1.536 1.394 1.368 2.077 3.09 2.047 5.166-.029 2.076-.788 4.005-2.278 5.789l-1.86-1.826c.653-.774 1.047-1.524 1.181-2.25.136-.727.015-1.463-.36-2.207Zm-13.04 3.518c.117.006.227.06.305.15a.455.455 0 0 1-.366.752c-1.162-.065-4.202-.23-4.202-.23l-.281-4.026a.463.463 0 0 1 .43-.498.465.465 0 0 1 .49.433l.236 3.233 3.388.186ZM16.88 40.53l.95 1.933 2.104.32-1.518 1.514.352 2.131-1.888-.997-1.887.997.35-2.13-1.517-1.516 2.105-.32.949-1.932Zm51.202 0 .95 1.933 2.104.32-1.518 1.514.352 2.131-1.888-.997-1.887.997.35-2.13-1.517-1.516 2.104-.32.95-1.932Zm-34.148-.073c-.769-.756-1.152-1.65-1.147-2.682.005-1.034.392-1.927 1.162-2.683.77-.754 1.677-1.132 2.725-1.132s1.958.378 2.727 1.132c.77.756 1.151 1.645 1.146 2.668-.005 1.024-.39 1.913-1.16 2.668-.77.756-1.681 1.135-2.734 1.14-1.053.004-1.959-.366-2.719-1.111Zm18.688-3.458a.465.465 0 0 0 .487.439h.001a.465.465 0 0 0 .431-.493l-.232-4.096-4.14-.278a.446.446 0 0 0-.471.42c-.017.25.17.466.416.483l3.32.233.188 3.292Zm10.346-3.04 5.065-3.137-.671-1.117-3.118 1.93 1.67-4.34-.626-1.042-5.065 3.135.67 1.118 3.22-1.995-1.723 4.485.578.963ZM22.65 29.326l-.015-.008c-.899-.519-1.61-.138-2.477.768-.735.773-.971.934-1.31.738l-.014-.008c-.252-.144-.32-.491-.073-.932.247-.442.694-.787 1.27-1.07l-.519-1.09c-.718.289-1.317.803-1.744 1.566-.6 1.07-.407 2.19.528 2.73l.015.01c1.024.59 1.693.075 2.548-.827.711-.748.959-.843 1.246-.676l.015.008c.302.175.327.565.064 1.036-.335.6-.856.953-1.502 1.203l.423 1.143a3.788 3.788 0 0 0 2.068-1.745c.632-1.13.502-2.254-.523-2.846Zm5.442-3.387-.83-.826-2.253 2.335-.89-.887 1.958-2.026-.83-.826-1.958 2.027-.859-.855 2.226-2.305-.83-.825-3.132 3.244 4.235 4.218 3.163-3.274Zm31.29 2.487.792-.862-2.355-2.23.849-.926 2.046 1.937.792-.861-2.046-1.937.82-.894 2.326 2.2.792-.863-3.274-3.098-4.045 4.407 3.303 3.127Zm-25.146-6.283-2.88-5.267-1.23.694-.146 2.994-2.58-1.457-1.23.693 2.88 5.267 1.118-.63L28.3 21.02l2.662 1.412.03-.016.23-3.072 1.88 3.438 1.134-.64Zm20.947 2.512.576-1.053-2.587-1.458 2.305-4.213-1.14-.643-2.881 5.265 3.727 2.102Zm-18.13-3.23-1.604-5.799-1.256.358 1.604 5.8 1.257-.358Zm13.882-2.418.004-.016c.356-1.674-.64-3.31-2.43-3.703-1.788-.393-3.38.693-3.737 2.366l-.003.017c-.357 1.674.638 3.309 2.427 3.703 1.789.392 3.383-.693 3.74-2.367Zm-6.962 1.641-2.704-3.326 2.28-2.682-1.575.085-2.267 2.759-.137-2.63-1.303.07.314 6.016 1.303-.07-.095-1.84.647-.76 1.97 2.463 1.567-.085Zm5.624-1.917c-.215 1.01-1.103 1.678-2.13 1.452-1.027-.226-1.577-1.227-1.362-2.236l.004-.016c.215-1.01 1.103-1.678 2.13-1.452 1.027.225 1.576 1.227 1.362 2.235l-.004.017Z" clip-rule="evenodd"/>
</svg>
