<svg width="136" height="32" viewBox="0 0 136 32" fill="none" xmlns="http://www.w3.org/2000/svg">
<path d="M6.95315 15.8611C5.79363 15.8611 4.65586 15.6619 3.53982 15.2637C2.42379 14.8654 1.40921 14.2535 0.496094 13.4279L2.47452 11.06C3.17023 11.6248 3.88405 12.0738 4.616 12.4069C5.34794 12.74 6.14873 12.9065 7.01837 12.9065C7.71408 12.9065 8.25398 12.7798 8.63807 12.5264C9.02216 12.2729 9.2142 11.9217 9.2142 11.4727V11.4293C9.2142 11.212 9.17426 11.0201 9.09432 10.8536C9.01434 10.687 8.86175 10.5313 8.63657 10.3865C8.41133 10.2417 8.09888 10.0968 7.69915 9.952C7.29941 9.80717 6.77993 9.6551 6.1406 9.49578C5.37039 9.30751 4.67278 9.0975 4.04786 8.86577C3.4229 8.63404 2.89246 8.34792 2.45653 8.00747C2.02057 7.66748 1.6827 7.24358 1.44284 6.73668C1.20303 6.22977 1.0831 5.59967 1.0831 4.84681V4.8031C1.0831 4.10809 1.2127 3.48152 1.47192 2.92428C1.73108 2.36659 2.09467 1.88485 2.56268 1.4795C3.03068 1.07371 3.58953 0.762417 4.23929 0.54517C4.889 0.327927 5.60521 0.219303 6.38788 0.219303C7.50392 0.219303 8.52936 0.385765 9.46422 0.719143C10.3991 1.05207 11.2579 1.53028 12.0405 2.15287L10.3013 4.67284C9.62004 4.20965 8.95331 3.8436 8.30108 3.57602C7.64886 3.30799 6.99663 3.17376 6.3444 3.17376C5.69217 3.17376 5.203 3.30048 4.87689 3.55394C4.55078 3.80739 4.38772 4.12266 4.38772 4.49931V4.54258C4.38772 4.78897 4.43496 5.00224 4.52939 5.18328C4.62382 5.36432 4.79457 5.52725 5.04167 5.67208C5.28873 5.81691 5.62664 5.95468 6.05532 6.08494C6.48404 6.2152 7.02539 6.36753 7.67943 6.54106C8.44965 6.74418 9.1363 6.97202 9.73939 7.22548C10.3425 7.47893 10.8511 7.78316 11.2653 8.13818C11.6795 8.49284 11.992 8.90922 12.2027 9.38716C12.4135 9.8651 12.5188 10.4372 12.5188 11.1034V11.1469C12.5188 11.9 12.3821 12.5698 12.1085 13.1564C11.8349 13.7429 11.4533 14.2354 10.9637 14.6337C10.4741 15.0319 9.88976 15.3361 9.2108 15.5461C8.53188 15.7561 7.7793 15.8611 6.95315 15.8611Z" fill="#00277F"/>
<path d="M15.7365 0.436543H27.1939V3.41308H19.0411V6.4978H26.2156V9.47406H19.0411V12.6676H27.3026V15.6438H15.7365V0.436543Z" fill="#00277F"/>
<path d="M30.6073 0.436543H34.2163L38.2166 6.86693L42.217 0.436543H45.826V15.6438H42.5213V5.7158L38.2384 12.2114H38.1514L33.9119 5.7807V15.6438H30.6073V0.436543Z" fill="#00277F"/>
<path d="M53.2831 0.436543H49.935V15.6438H53.2831V0.436543Z" fill="#00277F"/>
<path d="M57.3919 0.436543H60.7401V7.08418L66.9146 0.436543H70.9583L64.7622 6.88901L71.2411 15.6438H67.2191L62.5015 9.16992L60.7401 10.9948V15.6438H57.3919V0.436543Z" fill="#00277F"/>
<path d="M81.0029 12.8196C81.6697 12.8196 82.2857 12.6965 82.8509 12.4503C83.4161 12.2041 83.8982 11.8638 84.2967 11.4293C84.6953 10.9948 85.0069 10.4915 85.2313 9.91941C85.4563 9.34733 85.5685 8.73542 85.5685 8.08386V8.04015C85.5685 7.38841 85.4563 6.77287 85.2313 6.19355C85.0069 5.61423 84.6878 5.10733 84.2747 4.67283C83.8619 4.23834 83.3723 3.89437 82.8071 3.64091C82.242 3.38746 81.626 3.26073 80.9592 3.26073C80.2782 3.26073 79.6587 3.38393 79.1006 3.63032C78.5425 3.87627 78.0643 4.21671 77.6658 4.6512C77.2672 5.08569 76.9552 5.58906 76.7307 6.16088C76.5062 6.73314 76.3936 7.34513 76.3936 7.99687V8.04015C76.3936 8.69197 76.5062 9.3075 76.7307 9.88682C76.9552 10.4661 77.2742 10.9731 77.6874 11.4075C78.1006 11.842 78.5858 12.186 79.1439 12.4395C79.702 12.6929 80.3215 12.8196 81.0029 12.8196ZM80.9592 15.9045C79.7855 15.9045 78.7055 15.6982 77.7201 15.2854C76.7343 14.8726 75.8827 14.315 75.1651 13.6126C74.4479 12.9102 73.8898 12.0846 73.4912 11.136C73.0927 10.1873 72.8934 9.16991 72.8934 8.08386V8.04015C72.8934 6.95391 73.0962 5.93657 73.5023 4.98811C73.9079 4.0392 74.4696 3.20642 75.1872 2.48978C75.9044 1.77269 76.7599 1.20794 77.7524 0.795082C78.7453 0.382225 79.8288 0.176025 81.0029 0.176025C82.177 0.176025 83.2565 0.382225 84.2424 0.795082C85.2278 1.20794 86.0793 1.76562 86.7965 2.4677C87.5141 3.17021 88.0722 3.99593 88.4708 4.94439C88.8694 5.8933 89.0687 6.91064 89.0687 7.99687V8.04015C89.0687 9.12646 88.8659 10.1439 88.4598 11.0925C88.0541 12.0412 87.4925 12.874 86.7748 13.5909C86.0577 14.3078 85.2026 14.8726 84.2097 15.2854C83.2168 15.6982 82.1333 15.9045 80.9592 15.9045Z" fill="#00277F"/>
<path d="M92.3515 0.436543H95.6997V12.6241H103.287V15.6438H92.3515V0.436543Z" fill="#00277F"/>
<path d="M106.114 0.436543H117.571V3.41308H109.418V6.4978H116.593V9.47406H109.418V12.6676H117.68V15.6438H106.114V0.436543Z" fill="#00277F"/>
<path d="M120.985 0.436543H124.072L131.203 9.79993V0.436543H134.507V15.6438H131.659L124.289 5.97631V15.6438H120.985V0.436543Z" fill="#00277F"/>
<path d="M0.72699 21.7346H7.75006V23.5649H2.75614V25.5531H7.15709V27.3832H2.75614V30.9513H0.72699V21.7346Z" fill="#00277F"/>
<path d="M11.6766 21.7346H9.64743V30.9512H11.6766V21.7346Z" fill="#00277F"/>
<path d="M14.167 21.7346H16.038L20.3599 27.4096V21.7346H22.3627V30.9513H20.6366L16.1698 25.0922V30.9513H14.167V21.7346Z" fill="#00277F"/>
<path d="M26.8823 21.7346H24.8531V30.9512H26.8823V21.7346Z" fill="#00277F"/>
<path d="M32.6667 31.083C31.9639 31.083 31.2744 30.9623 30.598 30.7209C29.9216 30.4795 29.3067 30.1087 28.7533 29.6084L29.9523 28.1732C30.374 28.5155 30.8066 28.7877 31.2503 28.9895C31.6939 29.1914 32.1792 29.2924 32.7062 29.2924C33.1279 29.2924 33.4551 29.2156 33.6879 29.062C33.9207 28.9083 34.0371 28.6955 34.0371 28.4234V28.397C34.0371 28.2654 34.0129 28.1491 33.9644 28.0481C33.9159 27.9472 33.8235 27.8528 33.687 27.7651C33.5505 27.6773 33.3611 27.5895 33.1188 27.5017C32.8766 27.4139 32.5617 27.3218 32.1742 27.2252C31.7074 27.1111 31.2846 26.9838 30.9059 26.8434C30.5271 26.7029 30.2057 26.5296 29.9414 26.3233C29.6772 26.117 29.4724 25.8603 29.3271 25.5531C29.1817 25.2458 29.1091 24.864 29.1091 24.4076V24.3812C29.1091 23.9599 29.1876 23.5803 29.3447 23.2421C29.5018 22.9043 29.7222 22.6124 30.0058 22.3669C30.2894 22.121 30.6281 21.9324 31.0219 21.8004C31.4157 21.6688 31.8498 21.6031 32.3241 21.6031C33.0005 21.6031 33.622 21.7042 34.1886 21.906C34.7552 22.1077 35.2756 22.3974 35.75 22.7749L34.6959 24.3022C34.283 24.0214 33.879 23.7997 33.4836 23.6373C33.0883 23.4748 32.6931 23.3936 32.2977 23.3936C31.9025 23.3936 31.606 23.4704 31.4084 23.6241C31.2107 23.7778 31.1119 23.9687 31.1119 24.1969V24.2233C31.1119 24.3725 31.1405 24.5019 31.1978 24.6116C31.255 24.7214 31.3585 24.8201 31.5082 24.9079C31.6579 24.9957 31.8628 25.0791 32.1225 25.1581C32.3824 25.2371 32.7105 25.3292 33.1069 25.4346C33.5737 25.5575 33.9898 25.6957 34.3554 25.8493C34.7208 26.0029 35.0292 26.1872 35.2802 26.4023C35.5312 26.6174 35.7206 26.8697 35.8483 27.1594C35.976 27.449 36.0399 27.7957 36.0399 28.1996V28.2259C36.0399 28.6823 35.957 29.0883 35.7912 29.4438C35.6253 29.7993 35.3941 30.0977 35.0973 30.3391C34.8006 30.5805 34.4465 30.7648 34.035 30.8921C33.6235 31.0194 33.1674 31.083 32.6667 31.083Z" fill="#00277F"/>
<path d="M37.99 21.7346H40.0192V25.3819H43.7613V21.7346H45.7905V30.9513H43.7613V27.2515H40.0192V30.9513H37.99V21.7346Z" fill="#00277F"/>
<path d="M50.3098 21.7346H48.2806V30.9512H50.3098V21.7346Z" fill="#00277F"/>
<path d="M52.8002 21.7346H54.6712L58.9933 27.4096V21.7346H60.996V30.9513H59.2699L54.8033 25.0922V30.9513H52.8002V21.7346Z" fill="#00277F"/>
<path d="M67.8346 31.1094C67.1143 31.1094 66.4577 30.9909 65.8647 30.7539C65.2717 30.5169 64.7626 30.1877 64.3362 29.7664C63.9102 29.3451 63.5788 28.8447 63.3415 28.2654C63.1042 27.686 62.9858 27.0541 62.9858 26.3694V26.3431C62.9858 25.6847 63.1064 25.0681 63.3481 24.4932C63.5898 23.9182 63.9257 23.4134 64.3561 22.979C64.7865 22.5445 65.296 22.2023 65.8846 21.9519C66.4732 21.702 67.1188 21.577 67.8214 21.577C68.2345 21.577 68.6101 21.6053 68.9482 21.6622C69.2862 21.7196 69.6004 21.8004 69.8903 21.906C70.1802 22.0111 70.4524 22.1431 70.7073 22.3007C70.9619 22.4588 71.208 22.639 71.4448 22.8407L70.1669 24.3812C69.991 24.232 69.8156 24.1004 69.6397 23.9862C69.4643 23.8721 69.2818 23.7756 69.0931 23.6965C68.904 23.6174 68.6998 23.5561 68.4802 23.5124C68.2606 23.4682 68.0193 23.4466 67.7555 23.4466C67.3865 23.4466 67.0419 23.5234 66.7215 23.6775C66.4007 23.8313 66.1196 24.0381 65.8779 24.2976C65.6362 24.5572 65.4475 24.8607 65.3114 25.2081C65.1753 25.5556 65.1073 25.9274 65.1073 26.3233V26.3497C65.1073 26.7719 65.1753 27.1612 65.3114 27.5176C65.4475 27.8739 65.6406 28.184 65.8912 28.4479C66.1413 28.7117 66.4356 28.9163 66.7741 29.0614C67.1121 29.2066 67.4877 29.2792 67.9005 29.2792C68.6561 29.2792 69.2929 29.0936 69.8112 28.7223V27.3964H67.7688V25.6452H71.7745V29.6479C71.2999 30.0516 70.7356 30.3962 70.0812 30.6815C69.4267 30.9667 68.6782 31.1094 67.8346 31.1094Z" fill="#00277F"/>
<path d="M81.1562 31.083C80.4532 31.083 79.7638 30.9623 79.0873 30.7209C78.4112 30.4795 77.7961 30.1087 77.2429 29.6084L78.4417 28.1732C78.8633 28.5155 79.2959 28.7877 79.7395 28.9895C80.1832 29.1914 80.6684 29.2924 81.1955 29.2924C81.6171 29.2924 81.9445 29.2156 82.1774 29.062C82.4099 28.9083 82.5265 28.6955 82.5265 28.4234V28.397C82.5265 28.2654 82.5022 28.1491 82.4536 28.0481C82.4054 27.9472 82.3126 27.8528 82.1765 27.7651C82.04 27.6773 81.8504 27.5895 81.6083 27.5017C81.3661 27.4139 81.0511 27.3218 80.6635 27.2252C80.1969 27.1111 79.774 26.9838 79.3953 26.8434C79.0166 26.7029 78.6949 26.5296 78.4307 26.3233C78.1664 26.117 77.9618 25.8603 77.8164 25.5531C77.6711 25.2458 77.5986 24.864 77.5986 24.4076V24.3812C77.5986 23.9599 77.6768 23.5803 77.8341 23.2421C77.991 22.9043 78.2115 22.6124 78.4952 22.3669C78.7789 22.121 79.1173 21.9324 79.5115 21.8004C79.9052 21.6688 80.3392 21.6031 80.8133 21.6031C81.4898 21.6031 82.1116 21.7042 82.6781 21.906C83.2446 22.1077 83.7651 22.3974 84.2393 22.7749L83.1854 24.3022C82.7722 24.0214 82.3683 23.7997 81.9728 23.6373C81.5778 23.4748 81.1823 23.3936 80.7872 23.3936C80.3918 23.3936 80.0952 23.4704 79.8977 23.6241C79.7002 23.7778 79.6012 23.9687 79.6012 24.1969V24.2233C79.6012 24.3725 79.6299 24.5019 79.6869 24.6116C79.7444 24.7214 79.8478 24.8201 79.9976 24.9079C80.1474 24.9957 80.352 25.0791 80.6118 25.1581C80.8717 25.2371 81.2 25.3292 81.5963 25.4346C82.063 25.5575 82.4792 25.6957 82.8447 25.8493C83.2101 26.0029 83.5186 26.1872 83.7695 26.4023C84.0205 26.6174 84.2101 26.8697 84.3378 27.1594C84.4655 27.449 84.5292 27.7957 84.5292 28.1996V28.2259C84.5292 28.6823 84.4465 29.0883 84.2804 29.4438C84.1147 29.7993 83.8836 30.0977 83.5866 30.3391C83.2901 30.5805 82.9357 30.7648 82.5243 30.8921C82.1129 31.0194 81.6569 31.083 81.1562 31.083Z" fill="#00277F"/>
<path d="M90.8013 31.1094C90.1248 31.1094 89.4969 30.9865 88.9171 30.7407C88.3374 30.4949 87.8367 30.1592 87.4147 29.7334C86.9931 29.3077 86.6639 28.8052 86.4267 28.2259C86.1894 27.6466 86.0709 27.0277 86.0709 26.3694V26.3431C86.0709 25.6847 86.1894 25.0681 86.4267 24.4932C86.6639 23.9182 86.9931 23.4134 87.4147 22.979C87.8367 22.5445 88.3418 22.2023 88.9304 21.9519C89.519 21.702 90.1686 21.577 90.8804 21.577C91.3108 21.577 91.7037 21.6119 92.0599 21.6821C92.4156 21.7523 92.7382 21.849 93.028 21.9718C93.3179 22.0945 93.5861 22.2438 93.8318 22.4195C94.0779 22.5948 94.306 22.7882 94.5172 22.9988L93.2255 24.4866C92.8654 24.1618 92.4986 23.9072 92.1257 23.723C91.7523 23.5384 91.3329 23.4466 90.8672 23.4466C90.4805 23.4466 90.1226 23.5212 89.7934 23.6704C89.4638 23.8195 89.1805 24.0257 88.9432 24.2891C88.7064 24.5524 88.5216 24.8574 88.39 25.2042C88.2583 25.5509 88.1924 25.9218 88.1924 26.3167V26.3431C88.1924 26.7381 88.2583 27.1111 88.39 27.4622C88.5216 27.8133 88.7041 28.1206 88.937 28.3839C89.1694 28.6472 89.4505 28.8557 89.7801 29.0093C90.1094 29.1629 90.4717 29.2397 90.8672 29.2397C91.3944 29.2397 91.8402 29.1432 92.2048 28.95C92.5694 28.7569 92.9317 28.4936 93.2918 28.16L94.583 29.4635C94.3457 29.7181 94.0996 29.9463 93.8451 30.1482C93.5901 30.3501 93.3113 30.5234 93.0081 30.6683C92.7054 30.8131 92.3736 30.9228 92.0134 30.9974C91.6533 31.0721 91.2494 31.1094 90.8013 31.1094Z" fill="#00277F"/>
<path d="M96.3881 21.7346H98.4173V25.3819H102.159V21.7346H104.188V30.9513H102.159V27.2515H98.4173V30.9513H96.3881V21.7346Z" fill="#00277F"/>
<path d="M111.093 29.2397C111.497 29.2397 111.871 29.1651 112.213 29.0159C112.556 28.8667 112.848 28.6604 113.089 28.397C113.331 28.1337 113.52 27.8287 113.656 27.482C113.792 27.1352 113.86 26.7644 113.86 26.3694V26.3431C113.86 25.9481 113.792 25.575 113.656 25.2239C113.52 24.8728 113.327 24.5656 113.076 24.3023C112.826 24.0389 112.529 23.8304 112.187 23.677C111.844 23.5234 111.471 23.4466 111.067 23.4466C110.654 23.4466 110.278 23.5212 109.94 23.6704C109.602 23.8195 109.312 24.0257 109.07 24.2891C108.829 24.5524 108.64 24.8574 108.504 25.2042C108.368 25.5509 108.3 25.9218 108.3 26.3167V26.3431C108.3 26.7381 108.368 27.1111 108.504 27.4622C108.64 27.8133 108.833 28.1206 109.084 28.3839C109.334 28.6472 109.628 28.8557 109.966 29.0093C110.305 29.1629 110.68 29.2397 111.093 29.2397ZM111.067 31.1094C110.355 31.1094 109.7 30.9843 109.103 30.7341C108.506 30.484 107.99 30.146 107.555 29.7203C107.12 29.2946 106.782 28.7943 106.541 28.2193C106.299 27.6443 106.178 27.0277 106.178 26.3694V26.3431C106.178 25.6847 106.301 25.0681 106.547 24.4932C106.793 23.9182 107.134 23.4134 107.568 22.979C108.003 22.5445 108.522 22.2023 109.123 21.9519C109.725 21.702 110.381 21.577 111.093 21.577C111.805 21.577 112.459 21.702 113.056 21.9519C113.654 22.2023 114.17 22.54 114.605 22.9657C115.039 23.3914 115.377 23.8919 115.619 24.4668C115.861 25.0418 115.981 25.6584 115.981 26.3167V26.3431C115.981 27.0014 115.859 27.618 115.613 28.193C115.366 28.7679 115.026 29.2726 114.591 29.7071C114.156 30.1416 113.638 30.484 113.037 30.7341C112.435 30.9843 111.778 31.1094 111.067 31.1094Z" fill="#00277F"/>
<path d="M122.478 29.2397C122.882 29.2397 123.255 29.1651 123.597 29.0159C123.94 28.8667 124.232 28.6604 124.474 28.397C124.715 28.1337 124.904 27.8287 125.04 27.482C125.176 27.1352 125.244 26.7644 125.244 26.3694V26.3431C125.244 25.9481 125.176 25.575 125.04 25.2239C124.904 24.8728 124.711 24.5656 124.46 24.3023C124.21 24.0389 123.914 23.8304 123.571 23.677C123.228 23.5234 122.855 23.4466 122.451 23.4466C122.038 23.4466 121.663 23.5212 121.324 23.6704C120.986 23.8195 120.696 24.0257 120.455 24.2891C120.213 24.5524 120.024 24.8574 119.888 25.2042C119.752 25.5509 119.684 25.9218 119.684 26.3167V26.3431C119.684 26.7381 119.752 27.1111 119.888 27.4622C120.024 27.8133 120.218 28.1206 120.468 28.3839C120.719 28.6472 121.013 28.8557 121.351 29.0093C121.689 29.1629 122.065 29.2397 122.478 29.2397ZM122.451 31.1094C121.74 31.1094 121.085 30.9843 120.488 30.7341C119.89 30.484 119.374 30.146 118.939 29.7203C118.505 29.2946 118.167 28.7943 117.925 28.2193C117.684 27.6443 117.563 27.0277 117.563 26.3694V26.3431C117.563 25.6847 117.686 25.0681 117.932 24.4932C118.178 23.9182 118.518 23.4134 118.953 22.979C119.388 22.5445 119.906 22.2023 120.508 21.9519C121.109 21.702 121.766 21.577 122.478 21.577C123.189 21.577 123.844 21.702 124.441 21.9519C125.038 22.2023 125.554 22.54 125.989 22.9657C126.424 23.3914 126.762 23.8919 127.004 24.4668C127.245 25.0418 127.366 25.6584 127.366 26.3167V26.3431C127.366 27.0014 127.243 27.618 126.997 28.193C126.751 28.7679 126.41 29.2726 125.976 29.7071C125.541 30.1416 125.023 30.484 124.421 30.7341C123.819 30.9843 123.163 31.1094 122.451 31.1094Z" fill="#00277F"/>
<path d="M129.356 21.7346H131.385V29.1212H135.984V30.9513H129.356V21.7346Z" fill="#00277F"/>
</svg>
